{"glyphs":{"0":{"ha":904,"x_min":50,"x_max":874,"o":"m 364 -25 q 128 53 206 -25 q 50 278 50 131 q 68 436 50 351 q 159 697 101 594 q 315 854 217 800 q 563 908 413 908 q 798 833 722 908 q 874 613 874 758 q 853 436 874 535 q 690 91 804 207 q 364 -25 576 -25 m 390 104 q 592 189 518 104 q 700 436 667 274 q 722 604 722 540 q 678 736 722 693 q 535 779 635 779 q 329 694 403 779 q 221 436 256 608 q 201 279 201 343 q 245 147 201 190 q 390 104 289 104 z "},"1":{"ha":443,"x_min":121,"x_max":464,"o":"m 282 761 l 132 736 l 158 863 l 464 908 l 271 0 l 121 0 l 282 761 z "},"2":{"ha":707,"x_min":-24,"x_max":694,"o":"m -8 75 q 113 217 40 151 q 292 360 186 283 q 435 470 392 433 q 501 542 478 507 q 536 632 524 578 q 543 683 543 664 q 507 756 543 733 q 388 779 471 779 q 165 738 286 779 l 194 871 q 316 898 247 888 q 444 908 385 908 q 630 853 565 908 q 694 700 694 797 q 688 633 694 663 q 613 481 668 546 q 451 338 557 417 q 422 315 432 324 q 285 210 338 254 q 193 117 232 167 l 588 117 l 564 0 l -24 0 l -8 75 z "},"3":{"ha":721,"x_min":-18,"x_max":703,"o":"m 226 -14 q 92 -2 164 -14 q -18 26 21 10 l 10 158 q 233 115 104 115 q 403 148 344 115 q 478 260 461 181 q 482 296 482 279 q 322 396 482 396 l 188 396 l 224 508 l 336 508 q 543 647 514 508 q 547 686 547 668 q 508 757 547 735 q 375 779 468 779 q 259 768 319 779 q 149 738 199 757 l 176 867 q 294 897 225 885 q 426 908 364 908 q 631 855 558 908 q 703 711 703 801 q 697 661 703 683 q 635 533 682 590 q 518 453 589 476 q 635 304 635 421 q 629 250 635 276 q 501 51 600 115 q 226 -14 403 -14 z "},"4":{"ha":754,"x_min":-11,"x_max":735,"o":"m 436 196 l -11 196 l 13 303 l 603 894 l 735 894 l 613 318 l 704 318 l 678 196 l 586 196 l 546 0 l 396 0 l 436 196 m 486 314 l 572 722 l 163 314 l 486 314 z "},"5":{"ha":715,"x_min":-14,"x_max":697,"o":"m 225 -14 q 92 -3 160 -14 q -14 26 25 7 l 14 158 q 116 126 57 138 q 233 115 175 115 q 399 153 342 115 q 475 274 457 190 q 483 335 483 307 q 449 404 483 382 q 331 426 414 426 l 67 426 l 86 518 l 189 894 l 697 894 l 661 778 l 293 778 l 228 543 l 379 543 q 570 492 504 543 q 636 344 636 440 q 628 271 636 311 q 501 59 599 132 q 225 -14 404 -14 z "},"6":{"ha":796,"x_min":33,"x_max":753,"o":"m 311 -14 q 106 49 178 -14 q 33 229 33 111 q 46 332 33 276 l 89 533 q 242 807 125 706 q 547 908 360 908 q 753 876 669 908 l 725 747 q 529 779 644 779 q 335 722 408 779 q 239 563 261 664 l 226 507 q 347 559 281 540 q 468 578 413 578 q 658 524 593 578 q 722 368 722 469 q 713 285 722 328 q 587 64 682 142 q 311 -14 492 -14 m 338 100 q 497 147 436 100 q 575 279 557 194 q 585 350 585 325 q 547 433 585 406 q 421 461 510 461 q 310 443 367 461 q 203 393 253 425 l 182 297 q 174 226 174 258 q 213 131 174 163 q 338 100 251 100 z "},"7":{"ha":692,"x_min":69,"x_max":750,"o":"m 564 778 l 128 778 l 151 894 l 750 894 l 731 797 l 224 0 l 69 0 l 564 778 z "},"8":{"ha":819,"x_min":19,"x_max":796,"o":"m 322 -14 q 19 181 19 -14 q 26 242 19 204 q 97 378 43 319 q 232 463 151 438 q 158 521 182 483 q 133 607 133 558 q 139 653 133 622 q 262 840 165 772 q 519 908 358 908 q 726 857 656 908 q 796 714 796 806 q 789 653 796 688 q 729 531 774 585 q 606 450 685 478 q 732 299 732 411 q 725 242 732 276 q 601 49 699 113 q 322 -14 504 -14 m 469 497 q 593 551 551 517 q 649 650 635 585 q 653 692 653 674 q 615 765 653 742 q 493 789 578 789 q 348 755 401 789 q 279 650 294 721 q 275 618 275 633 q 375 517 275 536 l 469 497 m 347 104 q 512 138 453 104 q 586 244 571 172 q 590 281 590 265 q 560 348 590 325 q 465 385 531 371 l 357 408 q 231 355 278 392 q 168 247 183 318 q 164 207 164 226 q 208 129 164 154 q 347 104 251 104 z "},"9":{"ha":796,"x_min":65,"x_max":785,"o":"m 271 -14 q 65 17 150 -14 l 93 147 q 289 114 172 114 q 485 172 411 114 q 579 332 558 229 l 592 388 q 472 335 538 354 q 350 317 406 317 q 162 372 228 317 q 96 529 96 426 q 106 610 96 558 q 507 908 169 908 q 713 845 642 908 q 785 665 785 782 q 772 563 785 617 l 729 361 q 573 83 690 181 q 271 -14 456 -14 m 397 432 q 508 451 451 432 q 615 500 564 469 l 636 597 q 644 667 644 635 q 606 762 644 731 q 481 793 567 793 q 317 747 372 793 q 242 614 261 701 q 233 549 233 579 q 271 461 233 490 q 397 432 308 432 z "},"\r":{"ha":556,"x_min":0,"x_max":0,"o":""}," ":{"ha":514,"x_min":0,"x_max":0,"o":""},"A":{"ha":971,"x_min":-24,"x_max":826,"o":"m 507 894 l 676 894 l 826 0 l 676 0 l 636 231 l 276 231 l 139 0 l -24 0 l 507 894 m 636 347 l 567 757 l 325 347 l 636 347 z "},"Á":{"ha":971,"x_min":-24,"x_max":839,"o":"m 706 1201 l 839 1201 l 669 956 l 549 956 l 706 1201 m 507 894 l 676 894 l 826 0 l 676 0 l 636 231 l 276 231 l 139 0 l -24 0 l 507 894 m 636 347 l 567 757 l 325 347 l 636 347 z "},"Ă":{"ha":971,"x_min":-24,"x_max":843,"o":"m 601 956 q 484 993 525 956 q 443 1099 443 1031 q 449 1151 443 1125 l 546 1151 q 542 1113 542 1131 q 559 1063 542 1079 q 617 1046 576 1046 q 694 1074 663 1046 q 736 1151 725 1103 l 843 1151 q 759 1008 824 1061 q 601 956 694 956 m 507 894 l 676 894 l 826 0 l 676 0 l 636 231 l 276 231 l 139 0 l -24 0 l 507 894 m 636 347 l 567 757 l 325 347 l 636 347 z "},"Ắ":{"ha":971,"x_min":-24,"x_max":864,"o":"m 701 1303 l 818 1303 l 681 1118 l 574 1118 l 701 1303 m 604 956 q 472 992 521 956 q 424 1104 424 1028 q 431 1161 424 1126 l 519 1161 q 515 1119 515 1139 q 540 1058 515 1078 q 619 1038 565 1038 q 717 1069 678 1038 q 769 1161 757 1101 l 864 1161 q 604 956 822 956 m 507 894 l 676 894 l 826 0 l 676 0 l 636 231 l 276 231 l 139 0 l -24 0 l 507 894 m 636 347 l 567 757 l 325 347 l 636 347 z "},"Ặ":{"ha":971,"x_min":-24,"x_max":842,"o":"m 600 956 q 483 993 524 956 q 442 1099 442 1031 q 447 1151 442 1125 l 544 1151 q 540 1113 540 1131 q 558 1063 540 1079 q 615 1046 575 1046 q 692 1074 661 1046 q 735 1151 724 1103 l 842 1151 q 758 1008 822 1061 q 600 956 693 956 m 507 894 l 676 894 l 826 0 l 676 0 l 636 231 l 276 231 l 139 0 l -24 0 l 507 894 m 636 347 l 567 757 l 325 347 l 636 347 m 311 -118 l 442 -118 l 417 -240 l 286 -240 l 311 -118 z "},"Ằ":{"ha":971,"x_min":-24,"x_max":864,"o":"m 538 1303 l 654 1303 l 704 1118 l 597 1118 l 538 1303 m 604 956 q 472 992 521 956 q 424 1104 424 1028 q 431 1161 424 1126 l 519 1161 q 515 1119 515 1139 q 540 1058 515 1078 q 619 1038 565 1038 q 717 1069 678 1038 q 769 1161 757 1101 l 864 1161 q 604 956 822 956 m 507 894 l 676 894 l 826 0 l 676 0 l 636 231 l 276 231 l 139 0 l -24 0 l 507 894 m 636 347 l 567 757 l 325 347 l 636 347 z "},"Ẳ":{"ha":971,"x_min":-24,"x_max":864,"o":"m 596 1207 q 688 1224 661 1210 q 722 1267 715 1238 q 724 1279 724 1271 q 708 1306 724 1299 q 660 1313 693 1313 q 579 1296 622 1313 l 594 1367 q 710 1383 644 1383 q 797 1361 767 1383 q 828 1300 828 1339 q 825 1276 828 1293 q 785 1206 815 1231 q 694 1171 754 1181 l 685 1125 l 579 1125 l 596 1207 m 604 956 q 472 992 521 956 q 424 1104 424 1028 q 431 1161 424 1126 l 519 1161 q 515 1119 515 1139 q 540 1058 515 1078 q 619 1038 565 1038 q 717 1069 678 1038 q 769 1161 757 1101 l 864 1161 q 604 956 822 956 m 507 894 l 676 894 l 826 0 l 676 0 l 636 231 l 276 231 l 139 0 l -24 0 l 507 894 m 636 347 l 567 757 l 325 347 l 636 347 z "},"Ẵ":{"ha":971,"x_min":-24,"x_max":896,"o":"m 763 1190 q 713 1197 736 1190 q 658 1218 689 1204 q 633 1228 651 1221 q 599 1238 614 1235 q 569 1242 583 1242 q 444 1194 497 1242 l 465 1293 q 520 1322 486 1311 q 588 1333 554 1333 q 636 1326 614 1333 q 689 1306 658 1319 q 738 1287 719 1293 q 781 1281 757 1281 q 896 1331 853 1281 l 876 1231 q 828 1201 858 1213 q 763 1190 797 1190 m 604 956 q 472 992 521 956 q 424 1104 424 1028 q 431 1161 424 1126 l 519 1161 q 515 1119 515 1139 q 540 1058 515 1078 q 619 1038 565 1038 q 717 1069 678 1038 q 769 1161 757 1101 l 864 1161 q 604 956 822 956 m 507 894 l 676 894 l 826 0 l 676 0 l 636 231 l 276 231 l 139 0 l -24 0 l 507 894 m 636 347 l 567 757 l 325 347 l 636 347 z "},"Ǎ":{"ha":971,"x_min":-24,"x_max":875,"o":"m 424 1178 l 542 1178 l 615 1038 l 750 1178 l 875 1178 l 654 954 l 549 954 l 424 1178 m 507 894 l 676 894 l 826 0 l 676 0 l 636 231 l 276 231 l 139 0 l -24 0 l 507 894 m 636 347 l 567 757 l 325 347 l 636 347 z "},"Â":{"ha":971,"x_min":-24,"x_max":828,"o":"m 596 1178 l 701 1178 l 828 954 l 711 954 l 635 1094 l 503 954 l 376 954 l 596 1178 m 507 894 l 676 894 l 826 0 l 676 0 l 636 231 l 276 231 l 139 0 l -24 0 l 507 894 m 636 347 l 567 757 l 325 347 l 636 347 z "},"Ấ":{"ha":971,"x_min":-24,"x_max":1000,"o":"m 885 1296 l 1000 1296 l 864 1111 l 757 1111 l 885 1296 m 576 1131 l 693 1131 l 821 954 l 701 954 l 626 1068 l 504 954 l 374 954 l 576 1131 m 507 894 l 676 894 l 826 0 l 676 0 l 636 231 l 276 231 l 139 0 l -24 0 l 507 894 m 636 347 l 567 757 l 325 347 l 636 347 z "},"Ậ":{"ha":971,"x_min":-24,"x_max":828,"o":"m 596 1178 l 701 1178 l 828 954 l 711 954 l 635 1094 l 503 954 l 376 954 l 596 1178 m 507 894 l 676 894 l 826 0 l 676 0 l 636 231 l 276 231 l 139 0 l -24 0 l 507 894 m 636 347 l 567 757 l 325 347 l 636 347 m 311 -118 l 442 -118 l 417 -240 l 286 -240 l 311 -118 z "},"Ầ":{"ha":971,"x_min":-24,"x_max":826,"o":"m 343 1296 l 460 1296 l 508 1111 l 401 1111 l 343 1296 m 579 1131 l 697 1131 l 822 954 l 703 954 l 629 1068 l 506 954 l 378 954 l 579 1131 m 507 894 l 676 894 l 826 0 l 676 0 l 636 231 l 276 231 l 139 0 l -24 0 l 507 894 m 636 347 l 567 757 l 325 347 l 636 347 z "},"Ẩ":{"ha":971,"x_min":-24,"x_max":1017,"o":"m 788 1174 q 875 1189 851 1176 q 904 1228 899 1201 q 906 1239 906 1232 q 849 1271 906 1271 q 768 1254 811 1271 l 785 1328 q 893 1344 835 1344 q 984 1322 951 1344 q 1017 1258 1017 1299 q 1014 1236 1017 1253 q 972 1164 1003 1190 q 883 1129 940 1138 l 874 1082 l 768 1082 l 788 1174 m 581 1131 l 699 1131 l 825 954 l 706 954 l 632 1068 l 508 954 l 379 954 l 581 1131 m 507 894 l 676 894 l 826 0 l 676 0 l 636 231 l 276 231 l 139 0 l -24 0 l 507 894 m 636 347 l 567 757 l 325 347 l 636 347 z "},"Ẫ":{"ha":971,"x_min":-24,"x_max":893,"o":"m 758 1142 q 708 1149 732 1142 q 654 1169 685 1156 q 603 1189 621 1183 q 565 1194 586 1194 q 440 1146 493 1194 l 461 1244 q 516 1274 482 1263 q 583 1285 550 1285 q 631 1278 610 1285 q 685 1258 651 1272 q 734 1240 715 1246 q 776 1233 753 1233 q 893 1282 847 1233 l 871 1183 q 824 1153 854 1165 q 758 1142 793 1142 m 582 1131 l 700 1131 l 826 954 l 707 954 l 633 1068 l 510 954 l 381 954 l 582 1131 m 507 894 l 676 894 l 826 0 l 676 0 l 636 231 l 276 231 l 139 0 l -24 0 l 507 894 m 636 347 l 567 757 l 325 347 l 636 347 z "},"Ä":{"ha":971,"x_min":-24,"x_max":828,"o":"m 443 1107 l 569 1107 l 543 988 l 417 988 l 443 1107 m 700 1107 l 828 1107 l 801 988 l 674 988 l 700 1107 m 507 894 l 676 894 l 826 0 l 676 0 l 636 231 l 276 231 l 139 0 l -24 0 l 507 894 m 636 347 l 567 757 l 325 347 l 636 347 z "},"Ạ":{"ha":971,"x_min":-24,"x_max":826,"o":"m 507 894 l 676 894 l 826 0 l 676 0 l 636 231 l 276 231 l 139 0 l -24 0 l 507 894 m 636 347 l 567 757 l 325 347 l 636 347 m 311 -118 l 442 -118 l 417 -240 l 286 -240 l 311 -118 z "},"À":{"ha":971,"x_min":-24,"x_max":826,"o":"m 469 1201 l 601 1201 l 654 956 l 532 956 l 469 1201 m 507 894 l 676 894 l 826 0 l 676 0 l 636 231 l 276 231 l 139 0 l -24 0 l 507 894 m 636 347 l 567 757 l 325 347 l 636 347 z "},"Ả":{"ha":971,"x_min":-24,"x_max":832,"o":"m 571 1069 q 678 1088 649 1074 q 714 1139 707 1103 q 715 1151 715 1143 q 622 1197 715 1197 q 575 1192 601 1197 q 531 1181 549 1188 l 547 1263 q 681 1281 601 1281 q 793 1254 754 1281 q 832 1181 832 1228 q 828 1151 832 1167 q 782 1062 817 1093 q 678 1021 747 1031 l 664 956 l 546 956 l 571 1069 m 507 894 l 676 894 l 826 0 l 676 0 l 636 231 l 276 231 l 139 0 l -24 0 l 507 894 m 636 347 l 567 757 l 325 347 l 636 347 z "},"Ā":{"ha":971,"x_min":-24,"x_max":836,"o":"m 424 1083 l 836 1083 l 815 985 l 403 985 l 424 1083 m 507 894 l 676 894 l 826 0 l 676 0 l 636 231 l 276 231 l 139 0 l -24 0 l 507 894 m 636 347 l 567 757 l 325 347 l 636 347 z "},"Ą":{"ha":971,"x_min":-24,"x_max":826,"o":"m 694 -306 q 604 -281 639 -306 q 569 -210 569 -257 q 572 -182 569 -201 q 606 -89 583 -126 q 676 0 629 -51 l 636 231 l 276 231 l 139 0 l -24 0 l 507 894 l 676 894 l 826 0 q 699 -156 718 -61 l 696 -174 q 710 -203 696 -194 q 751 -211 724 -211 q 790 -207 769 -211 q 824 -196 810 -203 l 804 -287 q 694 -306 761 -306 m 636 347 l 567 757 l 325 347 l 636 347 z "},"Å":{"ha":971,"x_min":-24,"x_max":826,"o":"m 488 861 q 444 957 444 896 q 449 992 444 974 q 515 1106 464 1061 q 643 1150 567 1150 q 742 1116 706 1150 q 778 1028 778 1082 q 752 933 778 978 q 682 861 726 889 l 826 0 l 676 0 l 636 231 l 276 231 l 139 0 l -24 0 l 488 861 m 593 910 q 667 940 638 910 q 697 1014 697 971 q 680 1058 697 1042 q 628 1074 663 1074 q 556 1042 586 1074 q 525 969 525 1011 q 542 926 525 942 q 593 910 558 910 m 636 347 l 567 757 l 325 347 l 636 347 z "},"Ǻ":{"ha":971,"x_min":-24,"x_max":864,"o":"m 731 1431 l 864 1431 l 694 1185 l 574 1185 l 731 1431 m 488 861 q 444 957 444 896 q 449 992 444 974 q 515 1106 464 1061 q 643 1150 567 1150 q 742 1116 706 1150 q 778 1028 778 1082 q 752 933 778 978 q 682 861 726 889 l 826 0 l 676 0 l 636 231 l 276 231 l 139 0 l -24 0 l 488 861 m 593 910 q 667 940 638 910 q 697 1014 697 971 q 680 1058 697 1042 q 628 1074 663 1074 q 556 1042 586 1074 q 525 969 525 1011 q 542 926 525 942 q 593 910 558 910 m 636 347 l 567 757 l 325 347 l 636 347 z "},"Ã":{"ha":971,"x_min":-24,"x_max":860,"o":"m 717 965 q 667 972 690 965 q 608 994 644 979 q 558 1013 576 1007 q 518 1019 539 1019 q 386 969 442 1019 l 410 1081 q 467 1110 432 1099 q 536 1122 501 1122 q 587 1115 564 1122 q 642 1094 610 1108 q 692 1075 671 1082 q 738 1068 713 1068 q 860 1119 811 1068 l 836 1008 q 785 977 818 989 q 717 965 753 965 m 507 894 l 676 894 l 826 0 l 676 0 l 636 231 l 276 231 l 139 0 l -24 0 l 507 894 m 636 347 l 567 757 l 325 347 l 636 347 z "},"Æ":{"ha":1172,"x_min":-24,"x_max":1218,"o":"m 507 894 l 1218 894 l 1193 776 l 794 776 l 738 506 l 1085 506 l 1060 389 l 713 389 l 654 117 l 1053 117 l 1029 0 l 481 0 l 529 232 l 276 232 l 139 0 l -24 0 l 507 894 m 554 349 l 646 779 l 592 779 l 340 349 l 554 349 z "},"Ǽ":{"ha":1172,"x_min":-24,"x_max":1218,"o":"m 868 1201 l 1001 1201 l 832 956 l 711 956 l 868 1201 m 507 894 l 1218 894 l 1193 776 l 794 776 l 738 506 l 1085 506 l 1060 389 l 713 389 l 654 117 l 1053 117 l 1029 0 l 481 0 l 529 232 l 276 232 l 139 0 l -24 0 l 507 894 m 554 349 l 646 779 l 592 779 l 340 349 l 554 349 z "},"B":{"ha":876,"x_min":4,"x_max":844,"o":"m 193 894 l 626 894 q 788 848 731 894 q 844 717 844 801 q 838 656 844 693 q 783 535 822 585 q 689 460 744 486 q 767 410 740 443 q 794 321 794 376 q 788 258 794 297 q 457 0 732 0 l 4 0 l 193 894 m 525 513 q 694 643 667 513 q 701 699 701 678 q 672 761 701 742 q 565 781 642 781 l 321 781 l 264 513 l 525 513 m 449 111 q 574 146 531 111 q 636 264 618 181 q 642 308 642 297 q 608 378 642 356 q 494 401 574 401 l 240 401 l 179 111 l 449 111 z "},"C":{"ha":829,"x_min":56,"x_max":868,"o":"m 419 -14 q 152 74 249 -14 q 56 317 56 163 q 68 433 56 371 q 249 786 117 664 q 615 908 381 908 q 868 865 754 908 l 840 733 q 599 779 731 779 q 347 693 436 779 q 221 433 257 607 q 207 318 207 372 q 267 165 207 215 q 460 114 328 114 q 719 157 596 114 l 690 24 q 419 -14 564 -14 z "},"Ć":{"ha":829,"x_min":56,"x_max":868,"o":"m 696 1201 l 829 1201 l 660 956 l 539 956 l 696 1201 m 419 -14 q 152 74 249 -14 q 56 317 56 163 q 68 433 56 371 q 249 786 117 664 q 615 908 381 908 q 868 865 754 908 l 840 733 q 599 779 731 779 q 347 693 436 779 q 221 433 257 607 q 207 318 207 372 q 267 165 207 215 q 460 114 328 114 q 719 157 596 114 l 690 24 q 419 -14 564 -14 z "},"Č":{"ha":829,"x_min":56,"x_max":897,"o":"m 446 1178 l 564 1178 l 638 1038 l 772 1178 l 897 1178 l 676 954 l 571 954 l 446 1178 m 419 -14 q 152 74 249 -14 q 56 317 56 163 q 68 433 56 371 q 249 786 117 664 q 615 908 381 908 q 868 865 754 908 l 840 733 q 599 779 731 779 q 347 693 436 779 q 221 433 257 607 q 207 318 207 372 q 267 165 207 215 q 460 114 328 114 q 719 157 596 114 l 690 24 q 419 -14 564 -14 z "},"Ç":{"ha":829,"x_min":54,"x_max":868,"o":"m 313 -333 q 260 -330 290 -333 q 214 -322 229 -326 l 232 -240 q 315 -251 269 -251 q 409 -239 381 -251 q 446 -189 438 -226 q 447 -174 447 -183 q 424 -140 447 -147 q 346 -132 401 -132 l 290 -132 l 353 -10 q 133 91 211 6 q 54 315 54 176 q 68 433 54 374 q 249 786 117 664 q 615 908 381 908 q 868 865 754 908 l 840 733 q 599 779 731 779 q 347 693 436 779 q 221 433 257 607 q 207 318 207 372 q 267 165 207 215 q 460 114 328 114 q 719 157 596 114 l 690 24 q 453 -14 576 -10 l 425 -65 q 519 -90 488 -65 q 551 -158 551 -114 q 547 -190 551 -174 q 313 -333 517 -333 z "},"Ĉ":{"ha":829,"x_min":56,"x_max":868,"o":"m 579 1178 l 685 1178 l 811 954 l 694 954 l 618 1094 l 486 954 l 360 954 l 579 1178 m 419 -14 q 152 74 249 -14 q 56 317 56 163 q 68 433 56 371 q 249 786 117 664 q 615 908 381 908 q 868 865 754 908 l 840 733 q 599 779 731 779 q 347 693 436 779 q 221 433 257 607 q 207 318 207 372 q 267 165 207 215 q 460 114 328 114 q 719 157 596 114 l 690 24 q 419 -14 564 -14 z "},"Ċ":{"ha":829,"x_min":56,"x_max":868,"o":"m 579 1110 l 707 1110 l 681 988 l 553 988 l 579 1110 m 419 -14 q 152 74 249 -14 q 56 317 56 163 q 68 433 56 371 q 249 786 117 664 q 615 908 381 908 q 868 865 754 908 l 840 733 q 599 779 731 779 q 347 693 436 779 q 221 433 257 607 q 207 318 207 372 q 267 165 207 215 q 460 114 328 114 q 719 157 596 114 l 690 24 q 419 -14 564 -14 z "},"D":{"ha":901,"x_min":4,"x_max":869,"o":"m 193 894 l 556 894 q 790 824 711 894 q 869 607 869 754 q 850 442 869 529 q 686 106 801 213 q 371 0 571 0 l 4 0 l 193 894 m 367 117 q 524 144 463 117 q 628 241 586 171 q 699 442 671 311 q 724 619 724 563 q 675 742 724 708 q 507 776 626 776 l 319 776 l 179 117 l 367 117 z "},"Ð":{"ha":957,"x_min":43,"x_max":925,"o":"m 140 381 l 43 381 l 68 497 l 164 497 l 249 894 l 611 894 q 846 824 767 894 q 925 607 925 754 q 906 442 925 529 q 742 106 857 213 q 426 0 626 0 l 60 0 l 140 381 m 422 117 q 580 144 518 117 q 684 241 642 171 q 754 442 726 311 q 779 619 779 563 q 731 742 779 708 q 563 776 682 776 l 375 776 l 315 497 l 546 497 l 521 381 l 290 381 l 235 117 l 422 117 z "},"Ď":{"ha":901,"x_min":4,"x_max":869,"o":"m 363 1193 l 481 1193 l 554 1053 l 689 1193 l 814 1193 l 593 969 l 488 969 l 363 1193 m 193 894 l 556 894 q 790 824 711 894 q 869 607 869 754 q 850 442 869 529 q 686 106 801 213 q 371 0 571 0 l 4 0 l 193 894 m 367 117 q 524 144 463 117 q 628 241 586 171 q 699 442 671 311 q 724 619 724 563 q 675 742 724 708 q 507 776 626 776 l 319 776 l 179 117 l 367 117 z "},"Đ":{"ha":943,"x_min":29,"x_max":911,"o":"m 126 381 l 29 381 l 54 497 l 150 497 l 235 894 l 597 894 q 832 824 753 894 q 911 607 911 754 q 892 442 911 529 q 728 106 843 213 q 413 0 613 0 l 46 0 l 126 381 m 408 117 q 566 144 504 117 q 670 241 628 171 q 740 442 713 311 q 765 619 765 563 q 717 742 765 708 q 549 776 668 776 l 361 776 l 301 497 l 532 497 l 507 381 l 276 381 l 221 117 l 408 117 z "},"Ḍ":{"ha":901,"x_min":4,"x_max":869,"o":"m 193 894 l 556 894 q 790 824 711 894 q 869 607 869 754 q 850 442 869 529 q 686 106 801 213 q 371 0 571 0 l 4 0 l 193 894 m 367 117 q 524 144 463 117 q 628 241 586 171 q 699 442 671 311 q 724 619 724 563 q 675 742 724 708 q 507 776 626 776 l 319 776 l 179 117 l 367 117 m 268 -118 l 399 -118 l 374 -240 l 243 -240 l 268 -118 z "},"Ḏ":{"ha":901,"x_min":4,"x_max":869,"o":"m 193 894 l 556 894 q 790 824 711 894 q 869 607 869 754 q 850 442 869 529 q 686 106 801 213 q 371 0 571 0 l 4 0 l 193 894 m 367 117 q 524 144 463 117 q 628 241 586 171 q 699 442 671 311 q 724 619 724 563 q 675 742 724 708 q 507 776 626 776 l 319 776 l 179 117 l 367 117 m 71 -129 l 483 -129 l 463 -228 l 50 -228 l 71 -129 z "},"E":{"ha":764,"x_min":4,"x_max":817,"o":"m 193 894 l 817 894 l 792 776 l 319 776 l 263 506 l 683 506 l 658 389 l 238 389 l 179 117 l 651 117 l 628 0 l 4 0 l 193 894 z "},"É":{"ha":764,"x_min":4,"x_max":817,"o":"m 596 1201 l 729 1201 l 560 956 l 439 956 l 596 1201 m 193 894 l 817 894 l 792 776 l 319 776 l 263 506 l 683 506 l 658 389 l 238 389 l 179 117 l 651 117 l 628 0 l 4 0 l 193 894 z "},"Ĕ":{"ha":764,"x_min":4,"x_max":817,"o":"m 519 956 q 402 993 443 956 q 361 1099 361 1031 q 367 1151 361 1125 l 464 1151 q 460 1113 460 1131 q 477 1063 460 1079 q 535 1046 494 1046 q 612 1074 581 1046 q 654 1151 643 1103 l 761 1151 q 677 1008 742 1061 q 519 956 613 956 m 193 894 l 817 894 l 792 776 l 319 776 l 263 506 l 683 506 l 658 389 l 238 389 l 179 117 l 651 117 l 628 0 l 4 0 l 193 894 z "},"Ě":{"ha":764,"x_min":4,"x_max":817,"o":"m 344 1178 l 463 1178 l 536 1038 l 671 1178 l 796 1178 l 575 954 l 469 954 l 344 1178 m 193 894 l 817 894 l 792 776 l 319 776 l 263 506 l 683 506 l 658 389 l 238 389 l 179 117 l 651 117 l 628 0 l 4 0 l 193 894 z "},"Ê":{"ha":764,"x_min":4,"x_max":817,"o":"m 501 1178 l 607 1178 l 733 954 l 617 954 l 540 1094 l 408 954 l 282 954 l 501 1178 m 193 894 l 817 894 l 792 776 l 319 776 l 263 506 l 683 506 l 658 389 l 238 389 l 179 117 l 651 117 l 628 0 l 4 0 l 193 894 z "},"Ế":{"ha":764,"x_min":4,"x_max":913,"o":"m 797 1294 l 913 1294 l 776 1110 l 669 1110 l 797 1294 m 489 1129 l 606 1129 l 733 953 l 614 953 l 539 1067 l 417 953 l 286 953 l 489 1129 m 193 894 l 817 894 l 792 776 l 319 776 l 263 506 l 683 506 l 658 389 l 238 389 l 179 117 l 651 117 l 628 0 l 4 0 l 193 894 z "},"Ệ":{"ha":764,"x_min":4,"x_max":817,"o":"m 496 1178 l 601 1178 l 728 954 l 611 954 l 535 1094 l 403 954 l 276 954 l 496 1178 m 193 894 l 817 894 l 792 776 l 319 776 l 263 506 l 683 506 l 658 389 l 238 389 l 179 117 l 651 117 l 628 0 l 4 0 l 193 894 m 210 -118 l 340 -118 l 315 -240 l 185 -240 l 210 -118 z "},"Ề":{"ha":764,"x_min":4,"x_max":817,"o":"m 265 1294 l 382 1294 l 431 1110 l 324 1110 l 265 1294 m 501 1129 l 619 1129 l 744 953 l 625 953 l 551 1067 l 428 953 l 300 953 l 501 1129 m 193 894 l 817 894 l 792 776 l 319 776 l 263 506 l 683 506 l 658 389 l 238 389 l 179 117 l 651 117 l 628 0 l 4 0 l 193 894 z "},"Ể":{"ha":764,"x_min":4,"x_max":928,"o":"m 699 1172 q 786 1188 763 1175 q 815 1226 810 1200 q 817 1238 817 1231 q 760 1269 817 1269 q 679 1253 722 1269 l 696 1326 q 804 1343 746 1343 q 895 1320 863 1343 q 928 1257 928 1297 q 925 1235 928 1251 q 883 1163 914 1189 q 794 1128 851 1136 l 785 1081 l 679 1081 l 699 1172 m 492 1129 l 610 1129 l 736 953 l 617 953 l 543 1067 l 419 953 l 290 953 l 492 1129 m 193 894 l 817 894 l 792 776 l 319 776 l 263 506 l 683 506 l 658 389 l 238 389 l 179 117 l 651 117 l 628 0 l 4 0 l 193 894 z "},"Ễ":{"ha":764,"x_min":4,"x_max":817,"o":"m 671 1142 q 621 1149 644 1142 q 567 1169 597 1156 q 516 1189 533 1183 q 478 1194 499 1194 q 353 1146 406 1194 l 374 1244 q 428 1274 394 1263 q 496 1285 463 1285 q 543 1278 522 1285 q 597 1258 564 1272 q 647 1240 628 1246 q 689 1233 665 1233 q 806 1282 760 1233 l 783 1183 q 736 1153 767 1165 q 671 1142 706 1142 m 494 1131 l 613 1131 l 739 954 l 619 954 l 546 1068 l 422 954 l 293 954 l 494 1131 m 193 894 l 817 894 l 792 776 l 319 776 l 263 506 l 683 506 l 658 389 l 238 389 l 179 117 l 651 117 l 628 0 l 4 0 l 193 894 z "},"Ë":{"ha":764,"x_min":4,"x_max":817,"o":"m 356 1108 l 482 1108 l 456 989 l 329 989 l 356 1108 m 613 1108 l 740 1108 l 714 989 l 586 989 l 613 1108 m 193 894 l 817 894 l 792 776 l 319 776 l 263 506 l 683 506 l 658 389 l 238 389 l 179 117 l 651 117 l 628 0 l 4 0 l 193 894 z "},"Ė":{"ha":764,"x_min":4,"x_max":817,"o":"m 481 1110 l 608 1110 l 582 988 l 454 988 l 481 1110 m 193 894 l 817 894 l 792 776 l 319 776 l 263 506 l 683 506 l 658 389 l 238 389 l 179 117 l 651 117 l 628 0 l 4 0 l 193 894 z "},"Ẹ":{"ha":764,"x_min":4,"x_max":817,"o":"m 193 894 l 817 894 l 792 776 l 319 776 l 263 506 l 683 506 l 658 389 l 238 389 l 179 117 l 651 117 l 628 0 l 4 0 l 193 894 m 215 -118 l 346 -118 l 321 -240 l 190 -240 l 215 -118 z "},"È":{"ha":764,"x_min":4,"x_max":817,"o":"m 407 1201 l 539 1201 l 592 956 l 469 956 l 407 1201 m 193 894 l 817 894 l 792 776 l 319 776 l 263 506 l 683 506 l 658 389 l 238 389 l 179 117 l 651 117 l 628 0 l 4 0 l 193 894 z "},"Ẻ":{"ha":764,"x_min":4,"x_max":817,"o":"m 474 1068 q 581 1087 551 1072 q 617 1138 610 1101 q 618 1150 618 1142 q 525 1196 618 1196 q 478 1191 504 1196 q 433 1179 451 1186 l 450 1261 q 583 1279 504 1279 q 696 1253 657 1279 q 735 1179 735 1226 q 731 1150 735 1165 q 685 1060 719 1092 q 581 1019 650 1029 l 567 954 l 449 954 l 474 1068 m 193 894 l 817 894 l 792 776 l 319 776 l 263 506 l 683 506 l 658 389 l 238 389 l 179 117 l 651 117 l 628 0 l 4 0 l 193 894 z "},"Ē":{"ha":764,"x_min":4,"x_max":817,"o":"m 328 1100 l 740 1100 l 719 1001 l 307 1001 l 328 1100 m 193 894 l 817 894 l 792 776 l 319 776 l 263 506 l 683 506 l 658 389 l 238 389 l 179 117 l 651 117 l 628 0 l 4 0 l 193 894 z "},"Ę":{"ha":764,"x_min":4,"x_max":817,"o":"m 439 -306 q 349 -282 383 -306 q 314 -211 314 -258 q 317 -182 314 -192 q 365 -81 328 -129 q 457 0 403 -33 l 4 0 l 193 894 l 817 894 l 792 776 l 319 776 l 263 506 l 683 506 l 658 389 l 238 389 l 179 117 l 651 117 l 628 0 l 571 0 q 443 -156 460 -74 l 440 -174 q 454 -203 440 -194 q 496 -211 468 -211 q 534 -207 514 -211 q 568 -196 554 -203 l 549 -287 q 439 -306 506 -306 z "},"Ẽ":{"ha":764,"x_min":4,"x_max":817,"o":"m 626 976 q 577 983 600 976 q 518 1006 554 990 q 467 1024 486 1018 q 428 1031 449 1031 q 296 981 351 1031 l 319 1092 q 376 1122 342 1110 q 446 1133 411 1133 q 497 1126 474 1133 q 551 1106 519 1119 q 601 1086 581 1093 q 647 1079 622 1079 q 769 1131 721 1079 l 746 1019 q 695 988 728 1000 q 626 976 663 976 m 193 894 l 817 894 l 792 776 l 319 776 l 263 506 l 683 506 l 658 389 l 238 389 l 179 117 l 651 117 l 628 0 l 4 0 l 193 894 z "},"F":{"ha":728,"x_min":4,"x_max":801,"o":"m 193 894 l 801 894 l 776 776 l 319 776 l 263 506 l 668 506 l 643 389 l 238 389 l 156 0 l 4 0 l 193 894 z "},"G":{"ha":890,"x_min":53,"x_max":874,"o":"m 417 -14 q 147 71 240 -14 q 53 307 53 156 q 67 429 53 368 q 251 783 115 658 q 618 908 388 908 q 874 868 765 908 l 846 738 q 603 779 742 779 q 348 691 442 779 q 219 429 254 603 q 206 311 206 356 q 264 162 206 210 q 449 114 322 114 q 647 142 568 114 l 700 392 l 476 392 l 499 490 l 851 490 l 760 60 q 617 7 703 28 q 417 -14 531 -14 z "},"Ğ":{"ha":890,"x_min":53,"x_max":874,"o":"m 615 956 q 498 993 539 956 q 457 1099 457 1031 q 463 1151 457 1125 l 560 1151 q 556 1113 556 1131 q 573 1063 556 1079 q 631 1046 590 1046 q 708 1074 676 1046 q 750 1151 739 1103 l 857 1151 q 773 1008 838 1061 q 615 956 708 956 m 417 -14 q 147 71 240 -14 q 53 307 53 156 q 67 429 53 368 q 251 783 115 658 q 618 908 388 908 q 874 868 765 908 l 846 738 q 603 779 742 779 q 348 691 442 779 q 219 429 254 603 q 206 311 206 356 q 264 162 206 210 q 449 114 322 114 q 647 142 568 114 l 700 392 l 476 392 l 499 490 l 851 490 l 760 60 q 617 7 703 28 q 417 -14 531 -14 z "},"Ǧ":{"ha":890,"x_min":53,"x_max":889,"o":"m 438 1176 l 556 1176 l 629 1036 l 764 1176 l 889 1176 l 668 953 l 563 953 l 438 1176 m 417 -14 q 147 71 240 -14 q 53 307 53 156 q 67 429 53 368 q 251 783 115 658 q 618 908 388 908 q 874 868 765 908 l 846 738 q 603 779 742 779 q 348 691 442 779 q 219 429 254 603 q 206 311 206 356 q 264 162 206 210 q 449 114 322 114 q 647 142 568 114 l 700 392 l 476 392 l 499 490 l 851 490 l 760 60 q 617 7 703 28 q 417 -14 531 -14 z "},"Ĝ":{"ha":890,"x_min":53,"x_max":874,"o":"m 608 1178 l 714 1178 l 840 954 l 724 954 l 647 1094 l 515 954 l 389 954 l 608 1178 m 417 -14 q 147 71 240 -14 q 53 307 53 156 q 67 429 53 368 q 251 783 115 658 q 618 908 388 908 q 874 868 765 908 l 846 738 q 603 779 742 779 q 348 691 442 779 q 219 429 254 603 q 206 311 206 356 q 264 162 206 210 q 449 114 322 114 q 647 142 568 114 l 700 392 l 476 392 l 499 490 l 851 490 l 760 60 q 617 7 703 28 q 417 -14 531 -14 z "},"Ģ":{"ha":890,"x_min":53,"x_max":874,"o":"m 417 -14 q 147 71 240 -14 q 53 307 53 156 q 67 429 53 368 q 251 783 115 658 q 618 908 388 908 q 874 868 765 908 l 846 738 q 603 779 742 779 q 348 691 442 779 q 219 429 254 603 q 206 311 206 356 q 264 162 206 210 q 449 114 322 114 q 647 142 568 114 l 700 392 l 476 392 l 499 490 l 851 490 l 760 60 q 617 7 703 28 q 417 -14 531 -14 m 361 -58 l 486 -58 l 365 -321 l 265 -321 l 361 -58 z "},"Ġ":{"ha":890,"x_min":53,"x_max":874,"o":"m 592 1110 l 719 1110 l 693 988 l 565 988 l 592 1110 m 417 -14 q 147 71 240 -14 q 53 307 53 156 q 67 429 53 368 q 251 783 115 658 q 618 908 388 908 q 874 868 765 908 l 846 738 q 603 779 742 779 q 348 691 442 779 q 219 429 254 603 q 206 311 206 356 q 264 162 206 210 q 449 114 322 114 q 647 142 568 114 l 700 392 l 476 392 l 499 490 l 851 490 l 760 60 q 617 7 703 28 q 417 -14 531 -14 z "},"Ḡ":{"ha":890,"x_min":53,"x_max":874,"o":"m 443 1094 l 856 1094 l 835 996 l 422 996 l 443 1094 m 417 -14 q 147 71 240 -14 q 53 307 53 156 q 67 429 53 368 q 251 783 115 658 q 618 908 388 908 q 874 868 765 908 l 846 738 q 603 779 742 779 q 348 691 442 779 q 219 429 254 603 q 206 311 206 356 q 264 162 206 210 q 449 114 322 114 q 647 142 568 114 l 700 392 l 476 392 l 499 490 l 851 490 l 760 60 q 617 7 703 28 q 417 -14 531 -14 z "},"H":{"ha":908,"x_min":4,"x_max":926,"o":"m 193 894 l 344 894 l 263 506 l 693 506 l 775 894 l 926 894 l 738 0 l 586 0 l 668 389 l 238 389 l 156 0 l 4 0 l 193 894 z "},"Ħ":{"ha":908,"x_min":4,"x_max":968,"o":"m 138 635 l 69 635 l 94 753 l 163 753 l 193 894 l 344 894 l 314 753 l 744 753 l 775 894 l 926 894 l 896 753 l 968 753 l 943 635 l 871 635 l 738 0 l 586 0 l 668 389 l 238 389 l 156 0 l 4 0 l 138 635 m 693 506 l 719 635 l 289 635 l 263 506 l 693 506 z "},"Ḫ":{"ha":908,"x_min":4,"x_max":926,"o":"m 193 894 l 344 894 l 263 506 l 693 506 l 775 894 l 926 894 l 738 0 l 586 0 l 668 389 l 238 389 l 156 0 l 4 0 l 193 894 m 308 -287 q 190 -249 232 -287 q 149 -144 149 -211 q 154 -90 149 -117 l 253 -90 q 249 -131 249 -114 q 266 -181 249 -164 q 322 -197 283 -197 q 399 -169 368 -197 q 442 -90 431 -140 l 549 -90 q 465 -234 529 -181 q 308 -287 400 -287 z "},"Ĥ":{"ha":908,"x_min":4,"x_max":926,"o":"m 565 1178 l 671 1178 l 797 954 l 681 954 l 604 1094 l 472 954 l 346 954 l 565 1178 m 193 894 l 344 894 l 263 506 l 693 506 l 775 894 l 926 894 l 738 0 l 586 0 l 668 389 l 238 389 l 156 0 l 4 0 l 193 894 z "},"Ḥ":{"ha":908,"x_min":4,"x_max":926,"o":"m 193 894 l 344 894 l 263 506 l 693 506 l 775 894 l 926 894 l 738 0 l 586 0 l 668 389 l 238 389 l 156 0 l 4 0 l 193 894 m 281 -118 l 411 -118 l 386 -240 l 256 -240 l 281 -118 z "},"I":{"ha":326,"x_min":4,"x_max":344,"o":"m 193 894 l 344 894 l 156 0 l 4 0 l 193 894 z "},"Ĳ":{"ha":904,"x_min":4,"x_max":928,"o":"m 193 894 l 344 894 l 156 0 l 4 0 l 193 894 m 443 -14 q 256 18 331 -14 l 283 146 q 357 122 314 131 q 444 114 400 114 q 581 151 536 114 q 646 275 626 189 l 776 894 l 928 894 l 792 250 q 679 53 764 119 q 443 -14 594 -14 z "},"Í":{"ha":328,"x_min":4,"x_max":507,"o":"m 374 1201 l 507 1201 l 338 956 l 217 956 l 374 1201 m 193 894 l 344 894 l 156 0 l 4 0 l 193 894 z "},"Ĭ":{"ha":328,"x_min":4,"x_max":525,"o":"m 283 969 q 166 1007 207 969 q 125 1113 125 1044 q 131 1165 125 1139 l 228 1165 q 224 1126 224 1144 q 241 1076 224 1093 q 299 1060 258 1060 q 376 1088 344 1060 q 418 1165 407 1117 l 525 1165 q 441 1022 506 1075 q 283 969 376 969 m 193 894 l 344 894 l 156 0 l 4 0 l 193 894 z "},"Ǐ":{"ha":328,"x_min":4,"x_max":549,"o":"m 97 1178 l 215 1178 l 289 1038 l 424 1178 l 549 1178 l 328 954 l 222 954 l 97 1178 m 193 894 l 344 894 l 156 0 l 4 0 l 193 894 z "},"Î":{"ha":326,"x_min":4,"x_max":507,"o":"m 275 1178 l 381 1178 l 507 954 l 390 954 l 314 1094 l 182 954 l 56 954 l 275 1178 m 193 894 l 344 894 l 156 0 l 4 0 l 193 894 z "},"Ï":{"ha":326,"x_min":4,"x_max":508,"o":"m 124 1113 l 250 1113 l 224 993 l 97 993 l 124 1113 m 381 1113 l 508 1113 l 482 993 l 354 993 l 381 1113 m 193 894 l 344 894 l 156 0 l 4 0 l 193 894 z "},"İ":{"ha":326,"x_min":4,"x_max":379,"o":"m 251 1114 l 379 1114 l 353 992 l 225 992 l 251 1114 m 193 894 l 344 894 l 156 0 l 4 0 l 193 894 z "},"Ị":{"ha":326,"x_min":-36,"x_max":344,"o":"m 193 894 l 344 894 l 156 0 l 4 0 l 193 894 m -11 -118 l 119 -118 l 94 -240 l -36 -240 l -11 -118 z "},"Ì":{"ha":326,"x_min":4,"x_max":344,"o":"m 160 1201 l 292 1201 l 344 956 l 222 956 l 160 1201 m 193 894 l 344 894 l 156 0 l 4 0 l 193 894 z "},"Ỉ":{"ha":328,"x_min":4,"x_max":508,"o":"m 247 1068 q 354 1087 325 1072 q 390 1138 383 1101 q 392 1150 392 1142 q 299 1196 392 1196 q 251 1191 278 1196 q 207 1179 225 1186 l 224 1261 q 357 1279 278 1279 q 469 1253 431 1279 q 508 1179 508 1226 q 504 1150 508 1165 q 458 1060 493 1092 q 354 1019 424 1029 l 340 954 l 222 954 l 247 1068 m 193 894 l 344 894 l 156 0 l 4 0 l 193 894 z "},"Ī":{"ha":328,"x_min":4,"x_max":519,"o":"m 106 1100 l 519 1100 l 499 1001 l 85 1001 l 106 1100 m 193 894 l 344 894 l 156 0 l 4 0 l 193 894 z "},"Į":{"ha":328,"x_min":-115,"x_max":344,"o":"m 10 -306 q -81 -282 -46 -306 q -115 -211 -115 -258 q -112 -182 -115 -192 q -64 -81 -101 -129 q 28 0 -26 -33 l 4 0 l 193 894 l 344 894 l 156 0 l 142 0 q 14 -156 31 -74 l 11 -174 q 25 -203 11 -194 q 67 -211 39 -211 q 105 -207 85 -211 q 139 -196 125 -203 l 119 -287 q 10 -306 76 -306 z "},"Ĩ":{"ha":328,"x_min":4,"x_max":539,"o":"m 396 967 q 347 974 369 967 q 288 996 324 981 q 237 1015 256 1008 q 197 1021 218 1021 q 65 971 121 1021 l 89 1082 q 146 1112 111 1100 q 215 1124 181 1124 q 266 1117 243 1124 q 321 1096 289 1110 q 371 1076 350 1083 q 417 1069 392 1069 q 539 1121 490 1069 l 515 1010 q 465 978 497 990 q 396 967 432 967 m 193 894 l 344 894 l 156 0 l 4 0 l 193 894 z "},"J":{"ha":599,"x_min":-49,"x_max":624,"o":"m 139 -14 q -49 18 26 -14 l -21 146 q 53 122 10 131 q 140 114 96 114 q 277 151 232 114 q 342 275 322 189 l 472 894 l 624 894 l 488 250 q 375 53 460 119 q 139 -14 290 -14 z "},"Ĵ":{"ha":599,"x_min":-49,"x_max":786,"o":"m 554 1178 l 660 1178 l 786 954 l 669 954 l 593 1094 l 461 954 l 335 954 l 554 1178 m 139 -14 q -49 18 26 -14 l -21 146 q 53 122 10 131 q 140 114 96 114 q 277 151 232 114 q 342 275 322 189 l 472 894 l 624 894 l 488 250 q 375 53 460 119 q 139 -14 290 -14 z "},"K":{"ha":868,"x_min":4,"x_max":900,"o":"m 193 894 l 344 894 l 257 483 l 725 894 l 900 894 l 494 533 l 725 0 l 564 0 l 379 438 l 218 296 l 156 0 l 4 0 l 193 894 z "},"Ķ":{"ha":868,"x_min":4,"x_max":900,"o":"m 193 894 l 344 894 l 257 483 l 725 894 l 900 894 l 494 533 l 725 0 l 564 0 l 379 438 l 218 296 l 156 0 l 4 0 l 193 894 m 285 -51 l 410 -51 l 289 -314 l 189 -314 l 285 -51 z "},"L":{"ha":729,"x_min":4,"x_max":638,"o":"m 193 894 l 344 894 l 179 117 l 638 117 l 614 0 l 4 0 l 193 894 z "},"Ĺ":{"ha":729,"x_min":4,"x_max":638,"o":"m 375 1201 l 508 1201 l 339 956 l 218 956 l 375 1201 m 193 894 l 344 894 l 179 117 l 638 117 l 614 0 l 4 0 l 193 894 z "},"Ľ":{"ha":729,"x_min":4,"x_max":736,"o":"m 611 1049 l 736 1049 l 615 786 l 515 786 l 611 1049 m 193 894 l 344 894 l 179 117 l 638 117 l 614 0 l 4 0 l 193 894 z "},"Ļ":{"ha":729,"x_min":4,"x_max":638,"o":"m 193 894 l 344 894 l 179 117 l 638 117 l 614 0 l 4 0 l 193 894 m 249 -51 l 374 -51 l 253 -314 l 153 -314 l 249 -51 z "},"Ŀ":{"ha":729,"x_min":4,"x_max":638,"o":"m 193 894 l 344 894 l 179 117 l 638 117 l 614 0 l 4 0 l 193 894 m 460 493 l 588 493 l 561 371 l 433 371 l 460 493 z "},"Ḷ":{"ha":729,"x_min":4,"x_max":638,"o":"m 193 894 l 344 894 l 179 117 l 638 117 l 614 0 l 4 0 l 193 894 m 208 -118 l 339 -118 l 314 -240 l 183 -240 l 208 -118 z "},"Ḹ":{"ha":729,"x_min":4,"x_max":638,"o":"m 131 1094 l 543 1094 l 522 996 l 110 996 l 131 1094 m 193 894 l 344 894 l 179 117 l 638 117 l 614 0 l 4 0 l 193 894 m 208 -118 l 339 -118 l 314 -240 l 183 -240 l 208 -118 z "},"Ḻ":{"ha":729,"x_min":4,"x_max":638,"o":"m 193 894 l 344 894 l 179 117 l 638 117 l 614 0 l 4 0 l 193 894 m 64 -104 l 476 -104 l 456 -203 l 43 -203 l 64 -104 z "},"Ł":{"ha":729,"x_min":-50,"x_max":638,"o":"m 82 371 l -50 318 l -25 435 l 107 488 l 193 894 l 344 894 l 272 554 l 468 633 l 444 517 l 247 438 l 179 117 l 638 117 l 614 0 l 4 0 l 82 371 z "},"M":{"ha":1051,"x_min":4,"x_max":1069,"o":"m 193 894 l 344 894 l 506 315 l 910 894 l 1069 894 l 881 0 l 731 0 l 868 649 l 521 154 l 429 154 l 292 649 l 154 0 l 4 0 l 193 894 z "},"Ṃ":{"ha":1051,"x_min":4,"x_max":1069,"o":"m 193 894 l 344 894 l 506 315 l 910 894 l 1069 894 l 881 0 l 731 0 l 868 649 l 521 154 l 429 154 l 292 649 l 154 0 l 4 0 l 193 894 m 354 -118 l 485 -118 l 460 -240 l 329 -240 l 354 -118 z "},"N":{"ha":926,"x_min":4,"x_max":943,"o":"m 193 894 l 326 894 l 654 236 l 793 894 l 943 894 l 754 0 l 621 0 l 294 657 l 156 0 l 4 0 l 193 894 z "},"Ń":{"ha":926,"x_min":4,"x_max":943,"o":"m 669 1201 l 803 1201 l 633 956 l 513 956 l 669 1201 m 193 894 l 326 894 l 654 236 l 793 894 l 943 894 l 754 0 l 621 0 l 294 657 l 156 0 l 4 0 l 193 894 z "},"Ň":{"ha":926,"x_min":4,"x_max":943,"o":"m 414 1178 l 532 1178 l 606 1038 l 740 1178 l 865 1178 l 644 954 l 539 954 l 414 1178 m 193 894 l 326 894 l 654 236 l 793 894 l 943 894 l 754 0 l 621 0 l 294 657 l 156 0 l 4 0 l 193 894 z "},"Ņ":{"ha":926,"x_min":4,"x_max":943,"o":"m 193 894 l 326 894 l 654 236 l 793 894 l 943 894 l 754 0 l 621 0 l 294 657 l 156 0 l 4 0 l 193 894 m 319 -51 l 444 -51 l 324 -314 l 224 -314 l 319 -51 z "},"Ṅ":{"ha":926,"x_min":4,"x_max":943,"o":"m 538 1110 l 665 1110 l 639 988 l 511 988 l 538 1110 m 193 894 l 326 894 l 654 236 l 793 894 l 943 894 l 754 0 l 621 0 l 294 657 l 156 0 l 4 0 l 193 894 z "},"Ṇ":{"ha":926,"x_min":4,"x_max":943,"o":"m 193 894 l 326 894 l 654 236 l 793 894 l 943 894 l 754 0 l 621 0 l 294 657 l 156 0 l 4 0 l 193 894 m 290 -118 l 421 -118 l 396 -240 l 265 -240 l 290 -118 z "},"Ŋ":{"ha":926,"x_min":4,"x_max":943,"o":"m 471 -325 q 338 -303 390 -325 l 361 -193 q 443 -207 401 -207 q 539 -184 508 -207 q 581 -106 569 -161 l 608 24 l 294 657 l 156 0 l 4 0 l 193 894 l 326 894 l 654 236 l 793 894 l 943 894 l 728 -119 q 642 -271 707 -217 q 471 -325 578 -325 z "},"Ṉ":{"ha":926,"x_min":4,"x_max":943,"o":"m 193 894 l 326 894 l 654 236 l 793 894 l 943 894 l 754 0 l 621 0 l 294 657 l 156 0 l 4 0 l 193 894 m 157 -100 l 569 -100 l 549 -199 l 136 -199 l 157 -100 z "},"Ñ":{"ha":926,"x_min":4,"x_max":943,"o":"m 701 976 q 652 983 675 976 q 593 1006 629 990 q 542 1024 561 1018 q 503 1031 524 1031 q 371 981 426 1031 l 394 1092 q 451 1122 417 1110 q 521 1133 486 1133 q 572 1126 549 1133 q 626 1106 594 1119 q 676 1086 656 1093 q 722 1079 697 1079 q 844 1131 796 1079 l 821 1019 q 770 988 803 1000 q 701 976 738 976 m 193 894 l 326 894 l 654 236 l 793 894 l 943 894 l 754 0 l 621 0 l 294 657 l 156 0 l 4 0 l 193 894 z "},"O":{"ha":968,"x_min":53,"x_max":936,"o":"m 396 -14 q 140 62 228 -14 q 53 290 53 138 q 71 444 53 363 q 247 798 122 688 q 593 908 372 908 q 936 604 936 908 q 918 444 936 531 q 742 97 867 208 q 396 -14 617 -14 m 424 114 q 645 193 560 114 q 767 444 731 272 q 786 596 786 538 q 735 737 786 694 q 565 779 683 779 q 344 701 428 779 q 224 444 261 624 q 206 301 206 354 q 257 158 206 203 q 424 114 308 114 z "},"Ó":{"ha":968,"x_min":53,"x_max":936,"o":"m 693 1201 l 826 1201 l 657 956 l 536 956 l 693 1201 m 396 -14 q 140 62 228 -14 q 53 290 53 138 q 71 444 53 363 q 247 798 122 688 q 593 908 372 908 q 936 604 936 908 q 918 444 936 531 q 742 97 867 208 q 396 -14 617 -14 m 424 114 q 645 193 560 114 q 767 444 731 272 q 786 596 786 538 q 735 737 786 694 q 565 779 683 779 q 344 701 428 779 q 224 444 261 624 q 206 301 206 354 q 257 158 206 203 q 424 114 308 114 z "},"Ŏ":{"ha":968,"x_min":53,"x_max":936,"o":"m 600 956 q 483 993 524 956 q 442 1099 442 1031 q 447 1151 442 1125 l 544 1151 q 540 1113 540 1131 q 558 1063 540 1079 q 615 1046 575 1046 q 692 1074 661 1046 q 735 1151 724 1103 l 842 1151 q 758 1008 822 1061 q 600 956 693 956 m 396 -14 q 140 62 228 -14 q 53 290 53 138 q 71 444 53 363 q 247 798 122 688 q 593 908 372 908 q 936 604 936 908 q 918 444 936 531 q 742 97 867 208 q 396 -14 617 -14 m 424 114 q 645 193 560 114 q 767 444 731 272 q 786 596 786 538 q 735 737 786 694 q 565 779 683 779 q 344 701 428 779 q 224 444 261 624 q 206 301 206 354 q 257 158 206 203 q 424 114 308 114 z "},"Ǒ":{"ha":968,"x_min":53,"x_max":936,"o":"m 424 1178 l 542 1178 l 615 1038 l 750 1178 l 875 1178 l 654 954 l 549 954 l 424 1178 m 396 -14 q 140 62 228 -14 q 53 290 53 138 q 71 444 53 363 q 247 798 122 688 q 593 908 372 908 q 936 604 936 908 q 918 444 936 531 q 742 97 867 208 q 396 -14 617 -14 m 424 114 q 645 193 560 114 q 767 444 731 272 q 786 596 786 538 q 735 737 786 694 q 565 779 683 779 q 344 701 428 779 q 224 444 261 624 q 206 301 206 354 q 257 158 206 203 q 424 114 308 114 z "},"Ô":{"ha":968,"x_min":53,"x_max":936,"o":"m 596 1178 l 701 1178 l 828 954 l 711 954 l 635 1094 l 503 954 l 376 954 l 596 1178 m 396 -14 q 140 62 228 -14 q 53 290 53 138 q 71 444 53 363 q 247 798 122 688 q 593 908 372 908 q 936 604 936 908 q 918 444 936 531 q 742 97 867 208 q 396 -14 617 -14 m 424 114 q 645 193 560 114 q 767 444 731 272 q 786 596 786 538 q 735 737 786 694 q 565 779 683 779 q 344 701 428 779 q 224 444 261 624 q 206 301 206 354 q 257 158 206 203 q 424 114 308 114 z "},"Ố":{"ha":968,"x_min":53,"x_max":1010,"o":"m 894 1296 l 1010 1296 l 874 1111 l 767 1111 l 894 1296 m 586 1131 l 703 1131 l 831 954 l 711 954 l 636 1068 l 514 954 l 383 954 l 586 1131 m 396 -14 q 140 62 228 -14 q 53 290 53 138 q 71 444 53 363 q 247 798 122 688 q 593 908 372 908 q 936 604 936 908 q 918 444 936 531 q 742 97 867 208 q 396 -14 617 -14 m 424 114 q 645 193 560 114 q 767 444 731 272 q 786 596 786 538 q 735 737 786 694 q 565 779 683 779 q 344 701 428 779 q 224 444 261 624 q 206 301 206 354 q 257 158 206 203 q 424 114 308 114 z "},"Ộ":{"ha":968,"x_min":53,"x_max":936,"o":"m 597 1185 l 703 1185 l 829 961 l 713 961 l 636 1101 l 504 961 l 378 961 l 597 1185 m 396 -14 q 140 62 228 -14 q 53 290 53 138 q 71 444 53 363 q 247 798 122 688 q 593 908 372 908 q 936 604 936 908 q 918 444 936 531 q 742 97 867 208 q 396 -14 617 -14 m 424 114 q 645 193 560 114 q 767 444 731 272 q 786 596 786 538 q 735 737 786 694 q 565 779 683 779 q 344 701 428 779 q 224 444 261 624 q 206 301 206 354 q 257 158 206 203 q 424 114 308 114 m 310 -118 l 440 -118 l 415 -240 l 285 -240 l 310 -118 z "},"Ồ":{"ha":968,"x_min":53,"x_max":936,"o":"m 335 1296 l 451 1296 l 500 1111 l 393 1111 l 335 1296 m 571 1131 l 689 1131 l 814 954 l 694 954 l 621 1068 l 497 954 l 369 954 l 571 1131 m 396 -14 q 140 62 228 -14 q 53 290 53 138 q 71 444 53 363 q 247 798 122 688 q 593 908 372 908 q 936 604 936 908 q 918 444 936 531 q 742 97 867 208 q 396 -14 617 -14 m 424 114 q 645 193 560 114 q 767 444 731 272 q 786 596 786 538 q 735 737 786 694 q 565 779 683 779 q 344 701 428 779 q 224 444 261 624 q 206 301 206 354 q 257 158 206 203 q 424 114 308 114 z "},"Ổ":{"ha":968,"x_min":53,"x_max":1014,"o":"m 785 1174 q 872 1189 849 1176 q 901 1228 896 1201 q 903 1239 903 1232 q 846 1271 903 1271 q 765 1254 808 1271 l 782 1328 q 890 1344 832 1344 q 981 1322 949 1344 q 1014 1258 1014 1299 q 1011 1236 1014 1253 q 969 1164 1000 1190 q 881 1129 938 1138 l 871 1082 l 765 1082 l 785 1174 m 578 1131 l 696 1131 l 822 954 l 703 954 l 629 1068 l 506 954 l 376 954 l 578 1131 m 396 -14 q 140 62 228 -14 q 53 290 53 138 q 71 444 53 363 q 247 798 122 688 q 593 908 372 908 q 936 604 936 908 q 918 444 936 531 q 742 97 867 208 q 396 -14 617 -14 m 424 114 q 645 193 560 114 q 767 444 731 272 q 786 596 786 538 q 735 737 786 694 q 565 779 683 779 q 344 701 428 779 q 224 444 261 624 q 206 301 206 354 q 257 158 206 203 q 424 114 308 114 z "},"Ỗ":{"ha":968,"x_min":53,"x_max":936,"o":"m 761 1190 q 711 1197 735 1190 q 657 1218 688 1204 q 631 1228 650 1221 q 597 1238 613 1235 q 568 1242 582 1242 q 443 1194 496 1242 l 464 1293 q 519 1322 485 1311 q 586 1333 553 1333 q 635 1326 613 1333 q 688 1306 657 1319 q 737 1287 718 1293 q 779 1281 756 1281 q 894 1331 851 1281 l 875 1231 q 826 1201 857 1213 q 761 1190 796 1190 m 603 956 q 471 992 519 956 q 422 1104 422 1028 q 429 1161 422 1126 l 518 1161 q 514 1119 514 1139 q 539 1058 514 1078 q 618 1038 564 1038 q 716 1069 676 1038 q 768 1161 756 1101 l 863 1161 q 603 956 821 956 m 396 -14 q 140 62 228 -14 q 53 290 53 138 q 71 444 53 363 q 247 798 122 688 q 593 908 372 908 q 936 604 936 908 q 918 444 936 531 q 742 97 867 208 q 396 -14 617 -14 m 424 114 q 645 193 560 114 q 767 444 731 272 q 786 596 786 538 q 735 737 786 694 q 565 779 683 779 q 344 701 428 779 q 224 444 261 624 q 206 301 206 354 q 257 158 206 203 q 424 114 308 114 z "},"Ö":{"ha":968,"x_min":53,"x_max":936,"o":"m 443 1108 l 569 1108 l 543 989 l 417 989 l 443 1108 m 700 1108 l 828 1108 l 801 989 l 674 989 l 700 1108 m 396 -14 q 140 62 228 -14 q 53 290 53 138 q 71 444 53 363 q 247 798 122 688 q 593 908 372 908 q 936 604 936 908 q 918 444 936 531 q 742 97 867 208 q 396 -14 617 -14 m 424 114 q 645 193 560 114 q 767 444 731 272 q 786 596 786 538 q 735 737 786 694 q 565 779 683 779 q 344 701 428 779 q 224 444 261 624 q 206 301 206 354 q 257 158 206 203 q 424 114 308 114 z "},"Ọ":{"ha":968,"x_min":53,"x_max":936,"o":"m 396 -14 q 140 62 228 -14 q 53 290 53 138 q 71 444 53 363 q 247 798 122 688 q 593 908 372 908 q 936 604 936 908 q 918 444 936 531 q 742 97 867 208 q 396 -14 617 -14 m 424 114 q 645 193 560 114 q 767 444 731 272 q 786 596 786 538 q 735 737 786 694 q 565 779 683 779 q 344 701 428 779 q 224 444 261 624 q 206 301 206 354 q 257 158 206 203 q 424 114 308 114 m 310 -118 l 440 -118 l 415 -240 l 285 -240 l 310 -118 z "},"Ò":{"ha":968,"x_min":53,"x_max":936,"o":"m 488 1201 l 619 1201 l 672 956 l 550 956 l 488 1201 m 396 -14 q 140 62 228 -14 q 53 290 53 138 q 71 444 53 363 q 247 798 122 688 q 593 908 372 908 q 936 604 936 908 q 918 444 936 531 q 742 97 867 208 q 396 -14 617 -14 m 424 114 q 645 193 560 114 q 767 444 731 272 q 786 596 786 538 q 735 737 786 694 q 565 779 683 779 q 344 701 428 779 q 224 444 261 624 q 206 301 206 354 q 257 158 206 203 q 424 114 308 114 z "},"Ỏ":{"ha":968,"x_min":53,"x_max":936,"o":"m 571 1068 q 678 1087 649 1072 q 714 1138 707 1101 q 715 1150 715 1142 q 622 1196 715 1196 q 575 1191 601 1196 q 531 1179 549 1186 l 547 1261 q 681 1279 601 1279 q 793 1253 754 1279 q 832 1179 832 1226 q 828 1150 832 1165 q 782 1060 817 1092 q 678 1019 747 1029 l 664 954 l 546 954 l 571 1068 m 396 -14 q 140 62 228 -14 q 53 290 53 138 q 71 444 53 363 q 247 798 122 688 q 593 908 372 908 q 936 604 936 908 q 918 444 936 531 q 742 97 867 208 q 396 -14 617 -14 m 424 114 q 645 193 560 114 q 767 444 731 272 q 786 596 786 538 q 735 737 786 694 q 565 779 683 779 q 344 701 428 779 q 224 444 261 624 q 206 301 206 354 q 257 158 206 203 q 424 114 308 114 z "},"Ơ":{"ha":1069,"x_min":51,"x_max":1165,"o":"m 396 -14 q 138 59 224 -14 q 51 282 51 132 q 71 444 51 351 q 249 797 121 685 q 593 908 378 908 q 882 801 801 908 q 994 835 958 803 q 1049 956 1031 868 l 1165 956 q 1082 772 1139 831 q 928 699 1025 713 q 938 610 938 653 q 918 444 938 542 q 738 98 867 210 q 396 -14 610 -14 m 424 114 q 647 192 565 114 q 767 444 729 269 q 783 583 783 526 q 730 733 783 688 q 565 779 676 779 q 342 703 424 779 q 224 444 261 626 q 207 311 207 368 q 260 161 207 208 q 424 114 314 114 z "},"Ớ":{"ha":1069,"x_min":51,"x_max":1165,"o":"m 714 1201 l 847 1201 l 678 956 l 557 956 l 714 1201 m 396 -14 q 138 59 224 -14 q 51 282 51 132 q 71 444 51 351 q 249 797 121 685 q 593 908 378 908 q 882 801 801 908 q 994 835 958 803 q 1049 956 1031 868 l 1165 956 q 1082 772 1139 831 q 928 699 1025 713 q 938 610 938 653 q 918 444 938 542 q 738 98 867 210 q 396 -14 610 -14 m 424 114 q 647 192 565 114 q 767 444 729 269 q 783 583 783 526 q 730 733 783 688 q 565 779 676 779 q 342 703 424 779 q 224 444 261 626 q 207 311 207 368 q 260 161 207 208 q 424 114 314 114 z "},"Ợ":{"ha":1069,"x_min":51,"x_max":1165,"o":"m 396 -14 q 138 59 224 -14 q 51 282 51 132 q 71 444 51 351 q 249 797 121 685 q 593 908 378 908 q 882 801 801 908 q 994 835 958 803 q 1049 956 1031 868 l 1165 956 q 1082 772 1139 831 q 928 699 1025 713 q 938 610 938 653 q 918 444 938 542 q 738 98 867 210 q 396 -14 610 -14 m 424 114 q 647 192 565 114 q 767 444 729 269 q 783 583 783 526 q 730 733 783 688 q 565 779 676 779 q 342 703 424 779 q 224 444 261 626 q 207 311 207 368 q 260 161 207 208 q 424 114 314 114 m 315 -118 l 446 -118 l 421 -240 l 290 -240 l 315 -118 z "},"Ờ":{"ha":1069,"x_min":51,"x_max":1165,"o":"m 508 1201 l 640 1201 l 693 956 l 571 956 l 508 1201 m 396 -14 q 138 59 224 -14 q 51 282 51 132 q 71 444 51 351 q 249 797 121 685 q 593 908 378 908 q 882 801 801 908 q 994 835 958 803 q 1049 956 1031 868 l 1165 956 q 1082 772 1139 831 q 928 699 1025 713 q 938 610 938 653 q 918 444 938 542 q 738 98 867 210 q 396 -14 610 -14 m 424 114 q 647 192 565 114 q 767 444 729 269 q 783 583 783 526 q 730 733 783 688 q 565 779 676 779 q 342 703 424 779 q 224 444 261 626 q 207 311 207 368 q 260 161 207 208 q 424 114 314 114 z "},"Ở":{"ha":1069,"x_min":51,"x_max":1165,"o":"m 578 1068 q 685 1087 656 1072 q 721 1138 714 1101 q 722 1150 722 1142 q 629 1196 722 1196 q 582 1191 608 1196 q 538 1179 556 1186 l 554 1261 q 688 1279 608 1279 q 800 1253 761 1279 q 839 1179 839 1226 q 835 1150 839 1165 q 789 1060 824 1092 q 685 1019 754 1029 l 671 954 l 553 954 l 578 1068 m 396 -14 q 138 59 224 -14 q 51 282 51 132 q 71 444 51 351 q 249 797 121 685 q 593 908 378 908 q 882 801 801 908 q 994 835 958 803 q 1049 956 1031 868 l 1165 956 q 1082 772 1139 831 q 928 699 1025 713 q 938 610 938 653 q 918 444 938 542 q 738 98 867 210 q 396 -14 610 -14 m 424 114 q 647 192 565 114 q 767 444 729 269 q 783 583 783 526 q 730 733 783 688 q 565 779 676 779 q 342 703 424 779 q 224 444 261 626 q 207 311 207 368 q 260 161 207 208 q 424 114 314 114 z "},"Ỡ":{"ha":1069,"x_min":51,"x_max":1165,"o":"m 738 974 q 688 981 711 974 q 629 1003 665 988 q 578 1022 597 1015 q 539 1028 560 1028 q 407 978 463 1028 l 431 1089 q 488 1119 453 1107 q 557 1131 522 1131 q 608 1124 585 1131 q 663 1103 631 1117 q 713 1083 692 1090 q 758 1076 733 1076 q 881 1128 832 1076 l 857 1017 q 806 985 839 997 q 738 974 774 974 m 396 -14 q 138 59 224 -14 q 51 282 51 132 q 71 444 51 351 q 249 797 121 685 q 593 908 378 908 q 882 801 801 908 q 994 835 958 803 q 1049 956 1031 868 l 1165 956 q 1082 772 1139 831 q 928 699 1025 713 q 938 610 938 653 q 918 444 938 542 q 738 98 867 210 q 396 -14 610 -14 m 424 114 q 647 192 565 114 q 767 444 729 269 q 783 583 783 526 q 730 733 783 688 q 565 779 676 779 q 342 703 424 779 q 224 444 261 626 q 207 311 207 368 q 260 161 207 208 q 424 114 314 114 z "},"Ő":{"ha":968,"x_min":53,"x_max":946,"o":"m 508 1182 l 644 1182 l 478 954 l 356 954 l 508 1182 m 808 1182 l 946 1182 l 778 954 l 656 954 l 808 1182 m 396 -14 q 140 62 228 -14 q 53 290 53 138 q 71 444 53 363 q 247 798 122 688 q 593 908 372 908 q 936 604 936 908 q 918 444 936 531 q 742 97 867 208 q 396 -14 617 -14 m 424 114 q 645 193 560 114 q 767 444 731 272 q 786 596 786 538 q 735 737 786 694 q 565 779 683 779 q 344 701 428 779 q 224 444 261 624 q 206 301 206 354 q 257 158 206 203 q 424 114 308 114 z "},"Ō":{"ha":968,"x_min":53,"x_max":936,"o":"m 424 1100 l 836 1100 l 815 1001 l 403 1001 l 424 1100 m 396 -14 q 140 62 228 -14 q 53 290 53 138 q 71 444 53 363 q 247 798 122 688 q 593 908 372 908 q 936 604 936 908 q 918 444 936 531 q 742 97 867 208 q 396 -14 617 -14 m 424 114 q 645 193 560 114 q 767 444 731 272 q 786 596 786 538 q 735 737 786 694 q 565 779 683 779 q 344 701 428 779 q 224 444 261 624 q 206 301 206 354 q 257 158 206 203 q 424 114 308 114 z "},"Ø":{"ha":968,"x_min":53,"x_max":936,"o":"m 189 28 q 53 290 53 100 q 71 444 53 363 q 247 798 122 688 q 593 908 372 908 q 700 899 644 908 l 738 963 l 840 963 l 788 872 q 936 604 936 807 q 918 444 936 531 q 742 97 868 208 q 396 -14 617 -14 q 274 -1 328 -14 l 232 -74 l 129 -74 l 189 28 m 628 775 q 565 779 599 779 q 344 701 428 779 q 224 444 261 624 q 206 300 206 364 q 263 154 206 197 l 628 775 m 424 114 q 645 193 560 114 q 767 444 731 272 q 786 596 786 538 q 769 692 786 654 q 715 750 751 729 l 346 119 q 424 114 378 114 z "},"Ǿ":{"ha":968,"x_min":53,"x_max":936,"o":"m 672 1201 l 806 1201 l 636 956 l 515 956 l 672 1201 m 189 28 q 53 290 53 100 q 71 444 53 363 q 247 798 122 688 q 593 908 372 908 q 700 899 644 908 l 738 963 l 840 963 l 788 872 q 936 604 936 807 q 918 444 936 531 q 742 97 868 208 q 396 -14 617 -14 q 274 -1 328 -14 l 232 -74 l 129 -74 l 189 28 m 628 775 q 565 779 599 779 q 344 701 428 779 q 224 444 261 624 q 206 300 206 364 q 263 154 206 197 l 628 775 m 424 114 q 645 193 560 114 q 767 444 731 272 q 786 596 786 538 q 769 692 786 654 q 715 750 751 729 l 346 119 q 424 114 378 114 z "},"Õ":{"ha":968,"x_min":53,"x_max":936,"o":"m 715 965 q 666 972 689 965 q 607 994 643 979 q 556 1013 575 1007 q 517 1019 538 1019 q 385 969 440 1019 l 408 1081 q 465 1110 431 1099 q 535 1122 500 1122 q 585 1115 563 1122 q 640 1094 608 1108 q 690 1075 669 1082 q 736 1068 711 1068 q 858 1119 810 1068 l 835 1008 q 784 977 817 989 q 715 965 751 965 m 396 -14 q 140 62 228 -14 q 53 290 53 138 q 71 444 53 363 q 247 798 122 688 q 593 908 372 908 q 936 604 936 908 q 918 444 936 531 q 742 97 867 208 q 396 -14 617 -14 m 424 114 q 645 193 560 114 q 767 444 731 272 q 786 596 786 538 q 735 737 786 694 q 565 779 683 779 q 344 701 428 779 q 224 444 261 624 q 206 301 206 354 q 257 158 206 203 q 424 114 308 114 z "},"Œ":{"ha":1440,"x_min":51,"x_max":1485,"o":"m 394 -14 q 139 62 226 -14 q 51 290 51 138 q 69 444 51 363 q 246 798 121 688 q 592 908 371 908 q 849 833 764 908 l 861 894 l 1485 894 l 1460 776 l 988 776 l 931 506 l 1351 506 l 1326 389 l 906 389 l 847 117 l 1319 117 l 1296 0 l 672 0 l 683 56 q 394 -14 571 -14 m 422 114 q 644 193 558 114 q 765 444 729 272 q 785 596 785 538 q 733 737 785 694 q 564 779 682 779 q 343 701 426 779 q 222 444 260 624 q 204 301 204 354 q 256 158 204 203 q 422 114 307 114 z "},"P":{"ha":819,"x_min":4,"x_max":838,"o":"m 193 894 l 592 894 q 776 835 714 894 q 838 676 838 776 q 829 596 838 638 q 706 380 799 458 q 461 301 613 301 l 219 301 l 156 0 l 4 0 l 193 894 m 458 421 q 678 596 643 421 q 686 672 686 640 q 656 752 686 728 q 551 776 625 776 l 319 776 l 244 421 l 458 421 z "},"Þ":{"ha":819,"x_min":4,"x_max":806,"o":"m 193 894 l 344 894 l 313 742 l 560 742 q 743 683 681 742 q 806 522 806 624 q 797 444 806 486 q 673 228 767 307 q 428 149 579 149 l 186 149 l 156 0 l 4 0 l 193 894 m 426 268 q 572 315 514 268 q 646 444 629 363 q 654 513 654 482 q 620 596 654 569 q 508 622 586 622 l 288 622 l 213 268 l 426 268 z "},"Q":{"ha":968,"x_min":53,"x_max":936,"o":"m 478 -239 q 355 -198 396 -239 q 314 -81 314 -157 q 321 -10 314 -51 q 53 290 53 21 q 71 444 53 363 q 247 798 122 688 q 593 908 372 908 q 936 604 936 908 q 918 444 936 531 q 758 113 869 224 q 456 -11 647 3 q 449 -64 449 -46 q 468 -112 449 -100 q 535 -124 488 -124 q 636 -110 583 -124 l 611 -222 q 550 -234 588 -229 q 478 -239 513 -239 m 424 114 q 645 193 560 114 q 767 444 731 272 q 786 596 786 538 q 735 737 786 694 q 565 779 683 779 q 344 701 428 779 q 224 444 261 624 q 206 301 206 354 q 257 158 206 203 q 424 114 308 114 z "},"R":{"ha":847,"x_min":4,"x_max":840,"o":"m 193 894 l 590 894 q 777 840 714 894 q 840 688 840 786 q 832 608 840 650 q 751 445 811 511 q 594 354 690 379 q 623 317 614 338 q 640 260 632 297 l 699 0 l 543 0 l 486 250 q 458 302 478 288 q 390 317 439 317 l 222 317 l 156 0 l 4 0 l 193 894 m 468 439 q 610 479 558 439 q 681 608 661 519 q 689 674 689 646 q 656 751 689 726 q 553 776 624 776 l 319 776 l 249 439 l 468 439 z "},"Ŕ":{"ha":847,"x_min":4,"x_max":840,"o":"m 608 1201 l 742 1201 l 572 956 l 451 956 l 608 1201 m 193 894 l 590 894 q 777 840 714 894 q 840 688 840 786 q 832 608 840 650 q 751 445 811 511 q 594 354 690 379 q 623 317 614 338 q 640 260 632 297 l 699 0 l 543 0 l 486 250 q 458 302 478 288 q 390 317 439 317 l 222 317 l 156 0 l 4 0 l 193 894 m 468 439 q 610 479 558 439 q 681 608 661 519 q 689 674 689 646 q 656 751 689 726 q 553 776 624 776 l 319 776 l 249 439 l 468 439 z "},"Ř":{"ha":847,"x_min":4,"x_max":840,"o":"m 349 1178 l 467 1178 l 540 1038 l 675 1178 l 800 1178 l 579 954 l 474 954 l 349 1178 m 193 894 l 590 894 q 777 840 714 894 q 840 688 840 786 q 832 608 840 650 q 751 445 811 511 q 594 354 690 379 q 623 317 614 338 q 640 260 632 297 l 699 0 l 543 0 l 486 250 q 458 302 478 288 q 390 317 439 317 l 222 317 l 156 0 l 4 0 l 193 894 m 468 439 q 610 479 558 439 q 681 608 661 519 q 689 674 689 646 q 656 751 689 726 q 553 776 624 776 l 319 776 l 249 439 l 468 439 z "},"Ŗ":{"ha":847,"x_min":4,"x_max":840,"o":"m 193 894 l 590 894 q 777 840 714 894 q 840 688 840 786 q 832 608 840 650 q 751 445 811 511 q 594 354 690 379 q 623 317 614 338 q 640 260 632 297 l 699 0 l 543 0 l 486 250 q 458 302 478 288 q 390 317 439 317 l 222 317 l 156 0 l 4 0 l 193 894 m 468 439 q 610 479 558 439 q 681 608 661 519 q 689 674 689 646 q 656 751 689 726 q 553 776 624 776 l 319 776 l 249 439 l 468 439 m 249 -51 l 374 -51 l 253 -314 l 153 -314 l 249 -51 z "},"Ṛ":{"ha":847,"x_min":4,"x_max":840,"o":"m 193 894 l 590 894 q 777 840 714 894 q 840 688 840 786 q 832 608 840 650 q 751 445 811 511 q 594 354 690 379 q 623 317 614 338 q 640 260 632 297 l 699 0 l 543 0 l 486 250 q 458 302 478 288 q 390 317 439 317 l 222 317 l 156 0 l 4 0 l 193 894 m 468 439 q 610 479 558 439 q 681 608 661 519 q 689 674 689 646 q 656 751 689 726 q 553 776 624 776 l 319 776 l 249 439 l 468 439 m 251 -118 l 382 -118 l 357 -240 l 226 -240 l 251 -118 z "},"Ṝ":{"ha":847,"x_min":4,"x_max":840,"o":"m 349 1094 l 761 1094 l 740 996 l 328 996 l 349 1094 m 193 894 l 590 894 q 777 840 714 894 q 840 688 840 786 q 832 608 840 650 q 751 445 811 511 q 594 354 690 379 q 623 317 614 338 q 640 260 632 297 l 699 0 l 543 0 l 486 250 q 458 302 478 288 q 390 317 439 317 l 222 317 l 156 0 l 4 0 l 193 894 m 468 439 q 610 479 558 439 q 681 608 661 519 q 689 674 689 646 q 656 751 689 726 q 553 776 624 776 l 319 776 l 249 439 l 468 439 m 251 -118 l 382 -118 l 357 -240 l 226 -240 l 251 -118 z "},"Ṟ":{"ha":847,"x_min":4,"x_max":840,"o":"m 193 894 l 590 894 q 777 840 714 894 q 840 688 840 786 q 832 608 840 650 q 751 445 811 511 q 594 354 690 379 q 623 317 614 338 q 640 260 632 297 l 699 0 l 543 0 l 486 250 q 458 302 478 288 q 390 317 439 317 l 222 317 l 156 0 l 4 0 l 193 894 m 468 439 q 610 479 558 439 q 681 608 661 519 q 689 674 689 646 q 656 751 689 726 q 553 776 624 776 l 319 776 l 249 439 l 468 439 m 97 -100 l 510 -100 l 489 -199 l 76 -199 l 97 -100 z "},"S":{"ha":771,"x_min":1,"x_max":758,"o":"m 271 -14 q 1 31 99 -14 l 31 164 q 285 114 149 114 q 453 140 397 114 q 525 239 510 167 q 529 271 529 258 q 508 326 529 304 q 445 364 488 347 q 322 403 403 381 q 160 479 211 433 q 108 597 108 525 q 115 657 108 622 q 513 908 168 908 q 652 898 586 908 q 758 872 718 888 l 731 739 q 506 779 633 779 q 341 751 400 779 q 268 657 282 724 q 265 628 265 646 q 283 579 265 599 q 341 544 301 560 q 456 508 381 528 q 631 426 578 476 q 685 300 685 375 q 678 239 685 276 q 556 51 651 115 q 271 -14 460 -14 z "},"Ś":{"ha":771,"x_min":1,"x_max":758,"o":"m 578 1206 l 711 1206 l 542 960 l 421 960 l 578 1206 m 271 -14 q 1 31 99 -14 l 31 164 q 285 114 149 114 q 453 140 397 114 q 525 239 510 167 q 529 271 529 258 q 508 326 529 304 q 445 364 488 347 q 322 403 403 381 q 160 479 211 433 q 108 597 108 525 q 115 657 108 622 q 513 908 168 908 q 652 898 586 908 q 758 872 718 888 l 731 739 q 506 779 633 779 q 341 751 400 779 q 268 657 282 724 q 265 628 265 646 q 283 579 265 599 q 341 544 301 560 q 456 508 381 528 q 631 426 578 476 q 685 300 685 375 q 678 239 685 276 q 556 51 651 115 q 271 -14 460 -14 z "},"Š":{"ha":771,"x_min":1,"x_max":794,"o":"m 343 1178 l 461 1178 l 535 1038 l 669 1178 l 794 1178 l 574 954 l 468 954 l 343 1178 m 271 -14 q 1 31 99 -14 l 31 164 q 285 114 149 114 q 453 140 397 114 q 525 239 510 167 q 529 271 529 258 q 508 326 529 304 q 445 364 488 347 q 322 403 403 381 q 160 479 211 433 q 108 597 108 525 q 115 657 108 622 q 513 908 168 908 q 652 898 586 908 q 758 872 718 888 l 731 739 q 506 779 633 779 q 341 751 400 779 q 268 657 282 724 q 265 628 265 646 q 283 579 265 599 q 341 544 301 560 q 456 508 381 528 q 631 426 578 476 q 685 300 685 375 q 678 239 685 276 q 556 51 651 115 q 271 -14 460 -14 z "},"Ş":{"ha":771,"x_min":1,"x_max":758,"o":"m 185 -333 q 132 -330 163 -333 q 86 -322 101 -326 l 104 -240 q 188 -251 142 -251 q 281 -239 253 -251 q 318 -189 310 -226 q 319 -174 319 -183 q 297 -140 319 -147 q 218 -132 274 -132 l 163 -132 l 224 -12 q 1 31 86 -8 l 31 164 q 285 114 149 114 q 453 140 397 114 q 525 239 510 167 q 529 271 529 258 q 508 326 529 304 q 445 364 488 347 q 322 403 403 381 q 160 479 211 433 q 108 597 108 525 q 115 657 108 622 q 513 908 168 908 q 652 898 586 908 q 758 872 718 888 l 731 739 q 506 779 633 779 q 341 751 400 779 q 268 657 282 724 q 265 628 265 646 q 283 579 265 599 q 341 544 301 560 q 456 508 381 528 q 631 426 578 476 q 685 300 685 375 q 678 239 685 276 q 569 60 653 124 q 325 -12 485 -4 l 297 -65 q 392 -90 360 -65 q 424 -158 424 -114 q 419 -190 424 -174 q 185 -333 389 -333 z "},"Ŝ":{"ha":771,"x_min":1,"x_max":758,"o":"m 497 1189 l 603 1189 l 729 965 l 613 965 l 536 1106 l 404 965 l 278 965 l 497 1189 m 271 -14 q 1 31 99 -14 l 31 164 q 285 114 149 114 q 453 140 397 114 q 525 239 510 167 q 529 271 529 258 q 508 326 529 304 q 445 364 488 347 q 322 403 403 381 q 160 479 211 433 q 108 597 108 525 q 115 657 108 622 q 513 908 168 908 q 652 898 586 908 q 758 872 718 888 l 731 739 q 506 779 633 779 q 341 751 400 779 q 268 657 282 724 q 265 628 265 646 q 283 579 265 599 q 341 544 301 560 q 456 508 381 528 q 631 426 578 476 q 685 300 685 375 q 678 239 685 276 q 556 51 651 115 q 271 -14 460 -14 z "},"Ș":{"ha":771,"x_min":1,"x_max":758,"o":"m 271 -14 q 1 31 99 -14 l 31 164 q 285 114 149 114 q 453 140 397 114 q 525 239 510 167 q 529 271 529 258 q 508 326 529 304 q 445 364 488 347 q 322 403 403 381 q 160 479 211 433 q 108 597 108 525 q 115 657 108 622 q 513 908 168 908 q 652 898 586 908 q 758 872 718 888 l 731 739 q 506 779 633 779 q 341 751 400 779 q 268 657 282 724 q 265 628 265 646 q 283 579 265 599 q 341 544 301 560 q 456 508 381 528 q 631 426 578 476 q 685 300 685 375 q 678 239 685 276 q 556 51 651 115 q 271 -14 460 -14 m 219 -69 l 351 -69 l 244 -310 l 129 -310 l 219 -69 z "},"Ṡ":{"ha":771,"x_min":1,"x_max":758,"o":"m 469 1110 l 597 1110 l 571 988 l 443 988 l 469 1110 m 271 -14 q 1 31 99 -14 l 31 164 q 285 114 149 114 q 453 140 397 114 q 525 239 510 167 q 529 271 529 258 q 508 326 529 304 q 445 364 488 347 q 322 403 403 381 q 160 479 211 433 q 108 597 108 525 q 115 657 108 622 q 513 908 168 908 q 652 898 586 908 q 758 872 718 888 l 731 739 q 506 779 633 779 q 341 751 400 779 q 268 657 282 724 q 265 628 265 646 q 283 579 265 599 q 341 544 301 560 q 456 508 381 528 q 631 426 578 476 q 685 300 685 375 q 678 239 685 276 q 556 51 651 115 q 271 -14 460 -14 z "},"Ṣ":{"ha":771,"x_min":1,"x_max":758,"o":"m 271 -14 q 1 31 99 -14 l 31 164 q 285 114 149 114 q 453 140 397 114 q 525 239 510 167 q 529 271 529 258 q 508 326 529 304 q 445 364 488 347 q 322 403 403 381 q 160 479 211 433 q 108 597 108 525 q 115 657 108 622 q 513 908 168 908 q 652 898 586 908 q 758 872 718 888 l 731 739 q 506 779 633 779 q 341 751 400 779 q 268 657 282 724 q 265 628 265 646 q 283 579 265 599 q 341 544 301 560 q 456 508 381 528 q 631 426 578 476 q 685 300 685 375 q 678 239 685 276 q 556 51 651 115 q 271 -14 460 -14 m 200 -118 l 331 -118 l 306 -240 l 175 -240 l 200 -118 z "},"ẞ":{"ha":868,"x_min":-3,"x_max":828,"o":"m 447 -14 q 254 17 329 -14 l 282 144 q 357 122 313 129 q 447 114 401 114 q 633 256 601 114 q 639 299 639 289 q 610 356 639 339 q 511 374 581 374 l 378 374 l 404 501 l 685 656 q 688 681 688 672 q 644 755 688 726 q 514 783 601 783 q 347 738 403 783 q 269 596 290 693 l 143 0 l -3 0 l 122 592 q 542 908 190 908 q 758 849 688 908 q 828 688 828 789 q 819 617 828 654 l 553 474 l 603 474 q 733 428 685 474 q 782 307 782 383 q 776 254 782 278 q 668 58 750 129 q 447 -14 586 -14 z "},"Ə":{"ha":936,"x_min":42,"x_max":903,"o":"m 364 -14 q 122 58 203 -14 q 42 257 42 129 q 53 360 42 311 l 85 514 l 763 514 q 769 590 769 560 q 698 744 769 697 q 463 792 626 792 q 322 777 399 792 q 188 739 244 763 l 211 854 q 361 893 279 878 q 519 908 443 908 q 903 589 903 908 q 885 436 903 517 q 710 103 839 221 q 364 -14 582 -14 m 389 99 q 620 175 533 99 q 740 406 707 251 l 196 406 l 179 331 q 172 269 172 293 q 228 142 172 186 q 389 99 285 99 z "},"T":{"ha":788,"x_min":113,"x_max":860,"o":"m 399 776 l 113 776 l 138 894 l 860 894 l 835 776 l 550 776 l 386 0 l 235 0 l 399 776 z "},"Ŧ":{"ha":788,"x_min":113,"x_max":860,"o":"m 324 425 l 147 425 l 171 538 l 347 538 l 399 776 l 113 776 l 138 894 l 860 894 l 835 776 l 550 776 l 499 538 l 679 538 l 656 425 l 475 425 l 386 0 l 235 0 l 324 425 z "},"Ť":{"ha":788,"x_min":113,"x_max":860,"o":"m 336 1189 l 454 1189 l 528 1049 l 663 1189 l 788 1189 l 567 965 l 461 965 l 336 1189 m 399 776 l 113 776 l 138 894 l 860 894 l 835 776 l 550 776 l 386 0 l 235 0 l 399 776 z "},"Ţ":{"ha":788,"x_min":113,"x_max":860,"o":"m 211 -333 q 158 -330 189 -333 q 113 -322 128 -326 l 131 -240 q 214 -251 168 -251 q 308 -239 279 -251 q 344 -189 336 -226 q 346 -174 346 -183 q 323 -140 346 -147 q 244 -132 300 -132 l 189 -132 l 257 0 l 235 0 l 399 776 l 113 776 l 138 894 l 860 894 l 835 776 l 550 776 l 386 0 l 358 0 l 324 -65 q 418 -90 386 -65 q 450 -158 450 -114 q 446 -190 450 -174 q 211 -333 415 -333 z "},"Ț":{"ha":788,"x_min":113,"x_max":860,"o":"m 399 776 l 113 776 l 138 894 l 860 894 l 835 776 l 550 776 l 386 0 l 235 0 l 399 776 m 238 -62 l 363 -62 l 242 -325 l 142 -325 l 238 -62 z "},"Ṭ":{"ha":788,"x_min":113,"x_max":860,"o":"m 399 776 l 113 776 l 138 894 l 860 894 l 835 776 l 550 776 l 386 0 l 235 0 l 399 776 m 221 -108 l 351 -108 l 326 -231 l 196 -231 l 221 -108 z "},"Ṯ":{"ha":788,"x_min":63,"x_max":860,"o":"m 399 776 l 113 776 l 138 894 l 860 894 l 835 776 l 550 776 l 386 0 l 235 0 l 399 776 m 83 -90 l 496 -90 l 475 -189 l 63 -189 l 83 -90 z "},"U":{"ha":938,"x_min":58,"x_max":961,"o":"m 382 -14 q 144 58 229 -14 q 58 251 58 129 q 67 332 58 290 l 186 894 l 338 894 l 219 338 q 208 253 208 286 q 255 147 208 181 q 410 114 301 114 q 599 167 531 114 q 693 338 668 221 l 811 894 l 961 894 l 842 332 q 693 74 806 161 q 382 -14 581 -14 z "},"Ú":{"ha":938,"x_min":58,"x_max":961,"o":"m 676 1201 l 810 1201 l 640 956 l 519 956 l 676 1201 m 382 -14 q 144 58 229 -14 q 58 251 58 129 q 67 332 58 290 l 186 894 l 338 894 l 219 338 q 208 253 208 286 q 255 147 208 181 q 410 114 301 114 q 599 167 531 114 q 693 338 668 221 l 811 894 l 961 894 l 842 332 q 693 74 806 161 q 382 -14 581 -14 z "},"Ŭ":{"ha":938,"x_min":58,"x_max":961,"o":"m 568 956 q 451 993 492 956 q 410 1099 410 1031 q 415 1151 410 1125 l 513 1151 q 508 1113 508 1131 q 526 1063 508 1079 q 583 1046 543 1046 q 660 1074 629 1046 q 703 1151 692 1103 l 810 1151 q 726 1008 790 1061 q 568 956 661 956 m 382 -14 q 144 58 229 -14 q 58 251 58 129 q 67 332 58 290 l 186 894 l 338 894 l 219 338 q 208 253 208 286 q 255 147 208 181 q 410 114 301 114 q 599 167 531 114 q 693 338 668 221 l 811 894 l 961 894 l 842 332 q 693 74 806 161 q 382 -14 581 -14 z "},"Ǔ":{"ha":938,"x_min":58,"x_max":961,"o":"m 408 1178 l 526 1178 l 600 1038 l 735 1178 l 860 1178 l 639 954 l 533 954 l 408 1178 m 382 -14 q 144 58 229 -14 q 58 251 58 129 q 67 332 58 290 l 186 894 l 338 894 l 219 338 q 208 253 208 286 q 255 147 208 181 q 410 114 301 114 q 599 167 531 114 q 693 338 668 221 l 811 894 l 961 894 l 842 332 q 693 74 806 161 q 382 -14 581 -14 z "},"Û":{"ha":938,"x_min":58,"x_max":961,"o":"m 581 1178 l 686 1178 l 813 954 l 696 954 l 619 1094 l 488 954 l 361 954 l 581 1178 m 382 -14 q 144 58 229 -14 q 58 251 58 129 q 67 332 58 290 l 186 894 l 338 894 l 219 338 q 208 253 208 286 q 255 147 208 181 q 410 114 301 114 q 599 167 531 114 q 693 338 668 221 l 811 894 l 961 894 l 842 332 q 693 74 806 161 q 382 -14 581 -14 z "},"Ü":{"ha":938,"x_min":58,"x_max":961,"o":"m 419 1108 l 546 1108 l 519 989 l 393 989 l 419 1108 m 676 1108 l 804 1108 l 778 989 l 650 989 l 676 1108 m 382 -14 q 144 58 229 -14 q 58 251 58 129 q 67 332 58 290 l 186 894 l 338 894 l 219 338 q 208 253 208 286 q 255 147 208 181 q 410 114 301 114 q 599 167 531 114 q 693 338 668 221 l 811 894 l 961 894 l 842 332 q 693 74 806 161 q 382 -14 581 -14 z "},"Ǘ":{"ha":938,"x_min":58,"x_max":961,"o":"m 681 1268 l 796 1268 l 665 1092 l 558 1092 l 681 1268 m 413 1072 l 536 1072 l 511 956 l 388 956 l 413 1072 m 688 1072 l 811 1072 l 786 956 l 663 956 l 688 1072 m 382 -14 q 144 58 229 -14 q 58 251 58 129 q 67 332 58 290 l 186 894 l 338 894 l 219 338 q 208 253 208 286 q 255 147 208 181 q 410 114 301 114 q 599 167 531 114 q 693 338 668 221 l 811 894 l 961 894 l 842 332 q 693 74 806 161 q 382 -14 581 -14 z "},"Ǚ":{"ha":938,"x_min":58,"x_max":961,"o":"m 442 1256 l 556 1256 l 626 1147 l 742 1256 l 861 1256 l 672 1089 l 563 1089 l 442 1256 m 410 1072 l 535 1072 l 510 956 l 385 956 l 410 1072 m 686 1072 l 808 1072 l 783 956 l 661 956 l 686 1072 m 382 -14 q 144 58 229 -14 q 58 251 58 129 q 67 332 58 290 l 186 894 l 338 894 l 219 338 q 208 253 208 286 q 255 147 208 181 q 410 114 301 114 q 599 167 531 114 q 693 338 668 221 l 811 894 l 961 894 l 842 332 q 693 74 806 161 q 382 -14 581 -14 z "},"Ǜ":{"ha":938,"x_min":58,"x_max":961,"o":"m 507 1268 l 624 1268 l 669 1092 l 563 1092 l 507 1268 m 410 1072 l 533 1072 l 508 956 l 385 956 l 410 1072 m 685 1072 l 808 1072 l 783 956 l 660 956 l 685 1072 m 382 -14 q 144 58 229 -14 q 58 251 58 129 q 67 332 58 290 l 186 894 l 338 894 l 219 338 q 208 253 208 286 q 255 147 208 181 q 410 114 301 114 q 599 167 531 114 q 693 338 668 221 l 811 894 l 961 894 l 842 332 q 693 74 806 161 q 382 -14 581 -14 z "},"Ǖ":{"ha":938,"x_min":58,"x_max":961,"o":"m 447 1253 l 860 1253 l 839 1154 l 426 1154 l 447 1253 m 425 1082 l 551 1082 l 525 963 l 399 963 l 425 1082 m 682 1082 l 810 1082 l 783 963 l 656 963 l 682 1082 m 382 -14 q 144 58 229 -14 q 58 251 58 129 q 67 332 58 290 l 186 894 l 338 894 l 219 338 q 208 253 208 286 q 255 147 208 181 q 410 114 301 114 q 599 167 531 114 q 693 338 668 221 l 811 894 l 961 894 l 842 332 q 693 74 806 161 q 382 -14 581 -14 z "},"Ụ":{"ha":938,"x_min":58,"x_max":961,"o":"m 382 -14 q 144 58 229 -14 q 58 251 58 129 q 67 332 58 290 l 186 894 l 338 894 l 219 338 q 208 253 208 286 q 255 147 208 181 q 410 114 301 114 q 599 167 531 114 q 693 338 668 221 l 811 894 l 961 894 l 842 332 q 693 74 806 161 q 382 -14 581 -14 m 294 -118 l 425 -118 l 400 -240 l 269 -240 l 294 -118 z "},"Ù":{"ha":938,"x_min":58,"x_max":961,"o":"m 483 1201 l 615 1201 l 668 956 l 546 956 l 483 1201 m 382 -14 q 144 58 229 -14 q 58 251 58 129 q 67 332 58 290 l 186 894 l 338 894 l 219 338 q 208 253 208 286 q 255 147 208 181 q 410 114 301 114 q 599 167 531 114 q 693 338 668 221 l 811 894 l 961 894 l 842 332 q 693 74 806 161 q 382 -14 581 -14 z "},"Ủ":{"ha":938,"x_min":58,"x_max":961,"o":"m 550 1068 q 657 1087 628 1072 q 693 1138 686 1101 q 694 1150 694 1142 q 601 1196 694 1196 q 554 1191 581 1196 q 510 1179 528 1186 l 526 1261 q 660 1279 581 1279 q 772 1253 733 1279 q 811 1179 811 1226 q 807 1150 811 1165 q 761 1060 796 1092 q 657 1019 726 1029 l 643 954 l 525 954 l 550 1068 m 382 -14 q 144 58 229 -14 q 58 251 58 129 q 67 332 58 290 l 186 894 l 338 894 l 219 338 q 208 253 208 286 q 255 147 208 181 q 410 114 301 114 q 599 167 531 114 q 693 338 668 221 l 811 894 l 961 894 l 842 332 q 693 74 806 161 q 382 -14 581 -14 z "},"Ư":{"ha":1140,"x_min":57,"x_max":1226,"o":"m 382 -14 q 140 51 224 -14 q 57 240 57 115 q 67 332 57 285 l 186 894 l 338 894 l 219 338 q 213 272 213 308 q 263 153 213 193 q 410 114 314 114 q 597 170 524 114 q 693 338 669 226 l 811 894 l 961 894 l 942 797 q 1055 834 1018 800 q 1110 956 1092 868 l 1226 956 q 1123 751 1194 810 q 918 690 1051 693 l 842 332 q 687 75 807 164 q 382 -14 567 -14 z "},"Ứ":{"ha":1140,"x_min":57,"x_max":1226,"o":"m 694 1201 l 828 1201 l 658 956 l 538 956 l 694 1201 m 382 -14 q 140 51 224 -14 q 57 240 57 115 q 67 332 57 285 l 186 894 l 338 894 l 219 338 q 213 272 213 308 q 263 153 213 193 q 410 114 314 114 q 597 170 524 114 q 693 338 669 226 l 811 894 l 961 894 l 942 797 q 1055 834 1018 800 q 1110 956 1092 868 l 1226 956 q 1123 751 1194 810 q 918 690 1051 693 l 842 332 q 687 75 807 164 q 382 -14 567 -14 z "},"Ự":{"ha":1140,"x_min":57,"x_max":1226,"o":"m 382 -14 q 140 51 224 -14 q 57 240 57 115 q 67 332 57 285 l 186 894 l 338 894 l 219 338 q 213 272 213 308 q 263 153 213 193 q 410 114 314 114 q 597 170 524 114 q 693 338 669 226 l 811 894 l 961 894 l 942 797 q 1055 834 1018 800 q 1110 956 1092 868 l 1226 956 q 1123 751 1194 810 q 918 690 1051 693 l 842 332 q 687 75 807 164 q 382 -14 567 -14 m 292 -118 l 422 -118 l 397 -240 l 267 -240 l 292 -118 z "},"Ừ":{"ha":1140,"x_min":57,"x_max":1226,"o":"m 478 1201 l 610 1201 l 663 956 l 540 956 l 478 1201 m 382 -14 q 140 51 224 -14 q 57 240 57 115 q 67 332 57 285 l 186 894 l 338 894 l 219 338 q 213 272 213 308 q 263 153 213 193 q 410 114 314 114 q 597 170 524 114 q 693 338 669 226 l 811 894 l 961 894 l 942 797 q 1055 834 1018 800 q 1110 956 1092 868 l 1226 956 q 1123 751 1194 810 q 918 690 1051 693 l 842 332 q 687 75 807 164 q 382 -14 567 -14 z "},"Ử":{"ha":1140,"x_min":57,"x_max":1226,"o":"m 561 1068 q 668 1087 639 1072 q 704 1138 697 1101 q 706 1150 706 1142 q 613 1196 706 1196 q 565 1191 592 1196 q 521 1179 539 1186 l 538 1261 q 671 1279 592 1279 q 783 1253 744 1279 q 822 1179 822 1226 q 818 1150 822 1165 q 772 1060 807 1092 q 668 1019 738 1029 l 654 954 l 536 954 l 561 1068 m 382 -14 q 140 51 224 -14 q 57 240 57 115 q 67 332 57 285 l 186 894 l 338 894 l 219 338 q 213 272 213 308 q 263 153 213 193 q 410 114 314 114 q 597 170 524 114 q 693 338 669 226 l 811 894 l 961 894 l 942 797 q 1055 834 1018 800 q 1110 956 1092 868 l 1226 956 q 1123 751 1194 810 q 918 690 1051 693 l 842 332 q 687 75 807 164 q 382 -14 567 -14 z "},"Ữ":{"ha":1140,"x_min":57,"x_max":1226,"o":"m 703 974 q 653 981 676 974 q 594 1003 631 988 q 544 1022 563 1015 q 504 1028 525 1028 q 372 978 428 1028 l 396 1089 q 453 1119 418 1107 q 522 1131 488 1131 q 573 1124 550 1131 q 628 1103 596 1117 q 678 1083 657 1090 q 724 1076 699 1076 q 846 1128 797 1076 l 822 1017 q 772 985 804 997 q 703 974 739 974 m 382 -14 q 140 51 224 -14 q 57 240 57 115 q 67 332 57 285 l 186 894 l 338 894 l 219 338 q 213 272 213 308 q 263 153 213 193 q 410 114 314 114 q 597 170 524 114 q 693 338 669 226 l 811 894 l 961 894 l 942 797 q 1055 834 1018 800 q 1110 956 1092 868 l 1226 956 q 1123 751 1194 810 q 918 690 1051 693 l 842 332 q 687 75 807 164 q 382 -14 567 -14 z "},"Ű":{"ha":938,"x_min":58,"x_max":961,"o":"m 486 1182 l 622 1182 l 456 954 l 333 954 l 486 1182 m 786 1182 l 924 1182 l 756 954 l 633 954 l 786 1182 m 382 -14 q 144 58 229 -14 q 58 251 58 129 q 67 332 58 290 l 186 894 l 338 894 l 219 338 q 208 253 208 286 q 255 147 208 181 q 410 114 301 114 q 599 167 531 114 q 693 338 668 221 l 811 894 l 961 894 l 842 332 q 693 74 806 161 q 382 -14 581 -14 z "},"Ū":{"ha":938,"x_min":58,"x_max":961,"o":"m 403 1100 l 815 1100 l 794 1001 l 382 1001 l 403 1100 m 382 -14 q 144 58 229 -14 q 58 251 58 129 q 67 332 58 290 l 186 894 l 338 894 l 219 338 q 208 253 208 286 q 255 147 208 181 q 410 114 301 114 q 599 167 531 114 q 693 338 668 221 l 811 894 l 961 894 l 842 332 q 693 74 806 161 q 382 -14 581 -14 z "},"Ų":{"ha":938,"x_min":58,"x_max":961,"o":"m 350 -306 q 260 -282 294 -306 q 225 -211 225 -258 q 228 -182 225 -192 q 269 -90 238 -135 q 347 -12 301 -44 q 134 66 210 -4 q 58 251 58 136 q 67 332 58 290 l 186 894 l 338 894 l 219 338 q 208 253 208 286 q 255 147 208 181 q 410 114 301 114 q 599 167 531 114 q 693 338 668 221 l 811 894 l 961 894 l 842 332 q 468 -8 778 26 q 354 -156 368 -79 l 351 -174 q 365 -203 351 -194 q 407 -211 379 -211 q 445 -207 425 -211 q 479 -196 465 -203 l 460 -287 q 350 -306 417 -306 z "},"Ů":{"ha":938,"x_min":58,"x_max":961,"o":"m 576 954 q 481 989 515 954 q 446 1078 446 1024 q 449 1111 446 1100 q 515 1225 464 1181 q 643 1269 567 1269 q 742 1235 706 1269 q 778 1147 778 1201 q 752 1051 778 1096 q 681 981 726 1007 q 576 954 635 954 m 593 1029 q 667 1060 638 1029 q 697 1133 697 1090 q 680 1177 697 1161 q 628 1193 663 1193 q 556 1162 586 1193 q 525 1089 525 1131 q 542 1045 525 1061 q 593 1029 558 1029 m 382 -14 q 144 58 229 -14 q 58 251 58 129 q 67 332 58 290 l 186 894 l 338 894 l 219 338 q 208 253 208 286 q 255 147 208 181 q 410 114 301 114 q 599 167 531 114 q 693 338 668 221 l 811 894 l 961 894 l 842 332 q 693 74 806 161 q 382 -14 581 -14 z "},"Ũ":{"ha":938,"x_min":58,"x_max":961,"o":"m 694 976 q 645 983 668 976 q 586 1006 622 990 q 535 1024 554 1018 q 496 1031 517 1031 q 364 981 419 1031 l 388 1092 q 444 1122 410 1110 q 514 1133 479 1133 q 565 1126 542 1133 q 619 1106 588 1119 q 669 1086 649 1093 q 715 1079 690 1079 q 838 1131 789 1079 l 814 1019 q 763 988 796 1000 q 694 976 731 976 m 382 -14 q 144 58 229 -14 q 58 251 58 129 q 67 332 58 290 l 186 894 l 338 894 l 219 338 q 208 253 208 286 q 255 147 208 181 q 410 114 301 114 q 599 167 531 114 q 693 338 668 221 l 811 894 l 961 894 l 842 332 q 693 74 806 161 q 382 -14 581 -14 z "},"V":{"ha":971,"x_min":165,"x_max":1015,"o":"m 165 894 l 319 894 l 432 163 l 856 894 l 1015 894 l 488 0 l 318 0 l 165 894 z "},"W":{"ha":1206,"x_min":165,"x_max":1250,"o":"m 165 894 l 314 894 l 324 224 l 613 786 l 635 894 l 758 894 l 807 224 l 1103 894 l 1250 894 l 854 0 l 708 0 l 661 626 l 339 0 l 185 0 l 165 894 z "},"Ẃ":{"ha":1206,"x_min":165,"x_max":1250,"o":"m 814 1201 l 947 1201 l 778 956 l 657 956 l 814 1201 m 165 894 l 314 894 l 324 224 l 613 786 l 635 894 l 758 894 l 807 224 l 1103 894 l 1250 894 l 854 0 l 708 0 l 661 626 l 339 0 l 185 0 l 165 894 z "},"Ŵ":{"ha":1206,"x_min":165,"x_max":1250,"o":"m 721 1178 l 826 1178 l 953 954 l 836 954 l 760 1094 l 628 954 l 501 954 l 721 1178 m 165 894 l 314 894 l 324 224 l 613 786 l 635 894 l 758 894 l 807 224 l 1103 894 l 1250 894 l 854 0 l 708 0 l 661 626 l 339 0 l 185 0 l 165 894 z "},"Ẅ":{"ha":1206,"x_min":165,"x_max":1250,"o":"m 569 1106 l 696 1106 l 669 986 l 543 986 l 569 1106 m 826 1106 l 954 1106 l 928 986 l 800 986 l 826 1106 m 165 894 l 314 894 l 324 224 l 613 786 l 635 894 l 758 894 l 807 224 l 1103 894 l 1250 894 l 854 0 l 708 0 l 661 626 l 339 0 l 185 0 l 165 894 z "},"Ẁ":{"ha":1206,"x_min":165,"x_max":1250,"o":"m 578 1201 l 710 1201 l 763 956 l 640 956 l 578 1201 m 165 894 l 314 894 l 324 224 l 613 786 l 635 894 l 758 894 l 807 224 l 1103 894 l 1250 894 l 854 0 l 708 0 l 661 626 l 339 0 l 185 0 l 165 894 z "},"X":{"ha":940,"x_min":-24,"x_max":979,"o":"m 390 446 l 172 894 l 347 894 l 506 563 l 803 894 l 979 894 l 571 446 l 796 0 l 618 0 l 456 328 l 154 0 l -24 0 l 390 446 z "},"Y":{"ha":911,"x_min":165,"x_max":957,"o":"m 367 332 l 165 894 l 317 894 l 464 460 l 794 894 l 957 894 l 517 332 l 447 0 l 297 0 l 367 332 z "},"Ý":{"ha":911,"x_min":165,"x_max":957,"o":"m 657 1201 l 790 1201 l 621 956 l 500 956 l 657 1201 m 367 332 l 165 894 l 317 894 l 464 460 l 794 894 l 957 894 l 517 332 l 447 0 l 297 0 l 367 332 z "},"Ŷ":{"ha":911,"x_min":165,"x_max":957,"o":"m 568 1178 l 674 1178 l 800 954 l 683 954 l 607 1094 l 475 954 l 349 954 l 568 1178 m 367 332 l 165 894 l 317 894 l 464 460 l 794 894 l 957 894 l 517 332 l 447 0 l 297 0 l 367 332 z "},"Ÿ":{"ha":911,"x_min":165,"x_max":957,"o":"m 415 1108 l 542 1108 l 515 989 l 389 989 l 415 1108 m 672 1108 l 800 1108 l 774 989 l 646 989 l 672 1108 m 367 332 l 165 894 l 317 894 l 464 460 l 794 894 l 957 894 l 517 332 l 447 0 l 297 0 l 367 332 z "},"Ẏ":{"ha":911,"x_min":165,"x_max":957,"o":"m 543 1110 l 671 1110 l 644 988 l 517 988 l 543 1110 m 367 332 l 165 894 l 317 894 l 464 460 l 794 894 l 957 894 l 517 332 l 447 0 l 297 0 l 367 332 z "},"Ỵ":{"ha":911,"x_min":165,"x_max":957,"o":"m 367 332 l 165 894 l 317 894 l 464 460 l 794 894 l 957 894 l 517 332 l 447 0 l 297 0 l 367 332 m 285 -101 l 415 -101 l 390 -224 l 260 -224 l 285 -101 z "},"Ỳ":{"ha":911,"x_min":165,"x_max":957,"o":"m 467 1201 l 599 1201 l 651 956 l 529 956 l 467 1201 m 367 332 l 165 894 l 317 894 l 464 460 l 794 894 l 957 894 l 517 332 l 447 0 l 297 0 l 367 332 z "},"Ỷ":{"ha":911,"x_min":165,"x_max":957,"o":"m 531 1068 q 638 1087 608 1072 q 674 1138 667 1101 q 675 1150 675 1142 q 582 1196 675 1196 q 535 1191 561 1196 q 490 1179 508 1186 l 507 1261 q 640 1279 561 1279 q 753 1253 714 1279 q 792 1179 792 1226 q 788 1150 792 1165 q 742 1060 776 1092 q 638 1019 707 1029 l 624 954 l 506 954 l 531 1068 m 367 332 l 165 894 l 317 894 l 464 460 l 794 894 l 957 894 l 517 332 l 447 0 l 297 0 l 367 332 z "},"Ỹ":{"ha":911,"x_min":165,"x_max":957,"o":"m 690 976 q 641 983 664 976 q 582 1006 618 990 q 531 1024 550 1018 q 492 1031 513 1031 q 360 981 415 1031 l 383 1092 q 440 1122 406 1110 q 510 1133 475 1133 q 560 1126 538 1133 q 615 1106 583 1119 q 665 1086 644 1093 q 711 1079 686 1079 q 833 1131 785 1079 l 810 1019 q 759 988 792 1000 q 690 976 726 976 m 367 332 l 165 894 l 317 894 l 464 460 l 794 894 l 957 894 l 517 332 l 447 0 l 297 0 l 367 332 z "},"Z":{"ha":799,"x_min":-24,"x_max":840,"o":"m -7 81 l 619 771 l 163 771 l 189 894 l 840 894 l 821 801 l 199 117 l 682 117 l 658 0 l -24 0 l -7 81 z "},"Ź":{"ha":799,"x_min":-24,"x_max":840,"o":"m 624 1201 l 757 1201 l 588 956 l 467 956 l 624 1201 m -7 81 l 619 771 l 163 771 l 189 894 l 840 894 l 821 801 l 199 117 l 682 117 l 658 0 l -24 0 l -7 81 z "},"Ž":{"ha":799,"x_min":-24,"x_max":840,"o":"m 367 1178 l 485 1178 l 558 1038 l 693 1178 l 818 1178 l 597 954 l 492 954 l 367 1178 m -7 81 l 619 771 l 163 771 l 189 894 l 840 894 l 821 801 l 199 117 l 682 117 l 658 0 l -24 0 l -7 81 z "},"Ż":{"ha":799,"x_min":-24,"x_max":840,"o":"m 503 1110 l 631 1110 l 604 988 l 476 988 l 503 1110 m -7 81 l 619 771 l 163 771 l 189 894 l 840 894 l 821 801 l 199 117 l 682 117 l 658 0 l -24 0 l -7 81 z "},"Ẓ":{"ha":799,"x_min":-24,"x_max":840,"o":"m -7 81 l 619 771 l 163 771 l 189 894 l 840 894 l 821 801 l 199 117 l 682 117 l 658 0 l -24 0 l -7 81 m 247 -118 l 378 -118 l 353 -240 l 222 -240 l 247 -118 z "},"a":{"ha":810,"x_min":29,"x_max":776,"o":"m 272 -14 q 29 201 29 -14 q 40 303 29 243 q 122 499 63 415 q 263 628 181 583 q 436 672 344 672 q 538 658 496 672 q 615 613 579 644 l 625 658 l 776 658 l 638 0 l 508 0 l 511 65 q 400 5 457 24 q 272 -14 343 -14 m 338 100 q 521 169 439 100 l 590 496 q 532 542 564 526 q 453 557 500 557 q 286 491 353 557 q 193 301 219 425 q 181 210 181 247 q 217 124 181 149 q 338 100 253 100 z "},"á":{"ha":810,"x_min":29,"x_max":776,"o":"m 556 971 l 689 971 l 519 725 l 399 725 l 556 971 m 272 -14 q 29 201 29 -14 q 40 303 29 243 q 122 499 63 415 q 263 628 181 583 q 436 672 344 672 q 538 658 496 672 q 615 613 579 644 l 625 658 l 776 658 l 638 0 l 508 0 l 511 65 q 400 5 457 24 q 272 -14 343 -14 m 338 100 q 521 169 439 100 l 590 496 q 532 542 564 526 q 453 557 500 557 q 286 491 353 557 q 193 301 219 425 q 181 210 181 247 q 217 124 181 149 q 338 100 253 100 z "},"ă":{"ha":810,"x_min":29,"x_max":776,"o":"m 474 725 q 356 763 397 725 q 315 868 315 800 q 321 921 315 894 l 418 921 q 414 882 414 900 q 431 832 414 849 q 489 815 449 815 q 566 844 535 815 q 608 921 597 872 l 715 921 q 631 778 696 831 q 474 725 567 725 m 272 -14 q 29 201 29 -14 q 40 303 29 243 q 122 499 63 415 q 263 628 181 583 q 436 672 344 672 q 538 658 496 672 q 615 613 579 644 l 625 658 l 776 658 l 638 0 l 508 0 l 511 65 q 400 5 457 24 q 272 -14 343 -14 m 338 100 q 521 169 439 100 l 590 496 q 532 542 564 526 q 453 557 500 557 q 286 491 353 557 q 193 301 219 425 q 181 210 181 247 q 217 124 181 149 q 338 100 253 100 z "},"ắ":{"ha":810,"x_min":29,"x_max":776,"o":"m 576 1072 l 693 1072 l 556 888 l 449 888 l 576 1072 m 479 725 q 347 761 396 725 q 299 874 299 797 q 306 931 299 896 l 394 931 q 390 889 390 908 q 415 827 390 847 q 494 807 440 807 q 592 839 553 807 q 644 931 632 871 l 739 931 q 479 725 697 725 m 272 -14 q 29 201 29 -14 q 40 303 29 243 q 122 499 63 415 q 263 628 181 583 q 436 672 344 672 q 538 658 496 672 q 615 613 579 644 l 625 658 l 776 658 l 638 0 l 508 0 l 511 65 q 400 5 457 24 q 272 -14 343 -14 m 338 100 q 521 169 439 100 l 590 496 q 532 542 564 526 q 453 557 500 557 q 286 491 353 557 q 193 301 219 425 q 181 210 181 247 q 217 124 181 149 q 338 100 253 100 z "},"ặ":{"ha":810,"x_min":29,"x_max":776,"o":"m 471 725 q 353 763 394 725 q 313 868 313 800 q 318 921 313 894 l 415 921 q 411 882 411 900 q 428 832 411 849 q 486 815 446 815 q 563 844 532 815 q 606 921 594 872 l 713 921 q 628 778 693 831 q 471 725 564 725 m 272 -14 q 29 201 29 -14 q 40 303 29 243 q 122 499 63 415 q 263 628 181 583 q 436 672 344 672 q 538 658 496 672 q 615 613 579 644 l 625 658 l 776 658 l 638 0 l 508 0 l 511 65 q 400 5 457 24 q 272 -14 343 -14 m 338 100 q 521 169 439 100 l 590 496 q 532 542 564 526 q 453 557 500 557 q 286 491 353 557 q 193 301 219 425 q 181 210 181 247 q 217 124 181 149 q 338 100 253 100 m 229 -118 l 360 -118 l 335 -240 l 204 -240 l 229 -118 z "},"ằ":{"ha":810,"x_min":29,"x_max":776,"o":"m 407 1072 l 524 1072 l 574 888 l 467 888 l 407 1072 m 474 725 q 342 761 390 725 q 293 874 293 797 q 300 931 293 896 l 389 931 q 385 889 385 908 q 410 827 385 847 q 489 807 435 807 q 587 839 547 807 q 639 931 626 871 l 733 931 q 474 725 692 725 m 272 -14 q 29 201 29 -14 q 40 303 29 243 q 122 499 63 415 q 263 628 181 583 q 436 672 344 672 q 538 658 496 672 q 615 613 579 644 l 625 658 l 776 658 l 638 0 l 508 0 l 511 65 q 400 5 457 24 q 272 -14 343 -14 m 338 100 q 521 169 439 100 l 590 496 q 532 542 564 526 q 453 557 500 557 q 286 491 353 557 q 193 301 219 425 q 181 210 181 247 q 217 124 181 149 q 338 100 253 100 z "},"ẳ":{"ha":810,"x_min":29,"x_max":776,"o":"m 468 976 q 560 993 533 979 q 594 1036 588 1007 q 596 1049 596 1040 q 581 1075 596 1068 q 532 1082 565 1082 q 451 1065 494 1082 l 467 1136 q 582 1153 517 1153 q 669 1131 639 1153 q 700 1069 700 1108 q 697 1046 700 1063 q 657 975 688 1000 q 567 940 626 950 l 557 894 l 451 894 l 468 976 m 476 725 q 344 761 393 725 q 296 874 296 797 q 303 931 296 896 l 392 931 q 388 889 388 908 q 413 827 388 847 q 492 807 438 807 q 590 839 550 807 q 642 931 629 871 l 736 931 q 476 725 694 725 m 272 -14 q 29 201 29 -14 q 40 303 29 243 q 122 499 63 415 q 263 628 181 583 q 436 672 344 672 q 538 658 496 672 q 615 613 579 644 l 625 658 l 776 658 l 638 0 l 508 0 l 511 65 q 400 5 457 24 q 272 -14 343 -14 m 338 100 q 521 169 439 100 l 590 496 q 532 542 564 526 q 453 557 500 557 q 286 491 353 557 q 193 301 219 425 q 181 210 181 247 q 217 124 181 149 q 338 100 253 100 z "},"ẵ":{"ha":810,"x_min":29,"x_max":776,"o":"m 642 960 q 592 967 615 960 q 538 988 568 974 q 512 997 531 990 q 478 1008 493 1004 q 449 1011 463 1011 q 324 964 376 1011 l 344 1063 q 399 1092 365 1081 q 467 1103 433 1103 q 515 1096 493 1103 q 568 1075 538 1089 q 617 1056 599 1063 q 660 1050 636 1050 q 775 1100 732 1050 l 756 1000 q 707 971 738 982 q 642 960 676 960 m 483 725 q 351 761 400 725 q 303 874 303 797 q 310 931 303 896 l 399 931 q 394 889 394 908 q 419 827 394 847 q 499 807 444 807 q 597 839 557 807 q 649 931 636 871 l 743 931 q 483 725 701 725 m 272 -14 q 29 201 29 -14 q 40 303 29 243 q 122 499 63 415 q 263 628 181 583 q 436 672 344 672 q 538 658 496 672 q 615 613 579 644 l 625 658 l 776 658 l 638 0 l 508 0 l 511 65 q 400 5 457 24 q 272 -14 343 -14 m 338 100 q 521 169 439 100 l 590 496 q 532 542 564 526 q 453 557 500 557 q 286 491 353 557 q 193 301 219 425 q 181 210 181 247 q 217 124 181 149 q 338 100 253 100 z "},"ǎ":{"ha":810,"x_min":29,"x_max":776,"o":"m 285 947 l 403 947 l 476 807 l 611 947 l 736 947 l 515 724 l 410 724 l 285 947 m 272 -14 q 29 201 29 -14 q 40 303 29 243 q 122 499 63 415 q 263 628 181 583 q 436 672 344 672 q 538 658 496 672 q 615 613 579 644 l 625 658 l 776 658 l 638 0 l 508 0 l 511 65 q 400 5 457 24 q 272 -14 343 -14 m 338 100 q 521 169 439 100 l 590 496 q 532 542 564 526 q 453 557 500 557 q 286 491 353 557 q 193 301 219 425 q 181 210 181 247 q 217 124 181 149 q 338 100 253 100 z "},"â":{"ha":810,"x_min":29,"x_max":776,"o":"m 460 947 l 565 947 l 692 724 l 575 724 l 499 864 l 367 724 l 240 724 l 460 947 m 272 -14 q 29 201 29 -14 q 40 303 29 243 q 122 499 63 415 q 263 628 181 583 q 436 672 344 672 q 538 658 496 672 q 615 613 579 644 l 625 658 l 776 658 l 638 0 l 508 0 l 511 65 q 400 5 457 24 q 272 -14 343 -14 m 338 100 q 521 169 439 100 l 590 496 q 532 542 564 526 q 453 557 500 557 q 286 491 353 557 q 193 301 219 425 q 181 210 181 247 q 217 124 181 149 q 338 100 253 100 z "},"ấ":{"ha":810,"x_min":29,"x_max":871,"o":"m 756 1065 l 871 1065 l 735 881 l 628 881 l 756 1065 m 447 900 l 564 900 l 692 724 l 572 724 l 497 838 l 375 724 l 244 724 l 447 900 m 272 -14 q 29 201 29 -14 q 40 303 29 243 q 122 499 63 415 q 263 628 181 583 q 436 672 344 672 q 538 658 496 672 q 615 613 579 644 l 625 658 l 776 658 l 638 0 l 508 0 l 511 65 q 400 5 457 24 q 272 -14 343 -14 m 338 100 q 521 169 439 100 l 590 496 q 532 542 564 526 q 453 557 500 557 q 286 491 353 557 q 193 301 219 425 q 181 210 181 247 q 217 124 181 149 q 338 100 253 100 z "},"ậ":{"ha":810,"x_min":29,"x_max":776,"o":"m 457 947 l 563 947 l 689 724 l 572 724 l 496 864 l 364 724 l 238 724 l 457 947 m 272 -14 q 29 201 29 -14 q 40 303 29 243 q 122 499 63 415 q 263 628 181 583 q 436 672 344 672 q 538 658 496 672 q 615 613 579 644 l 625 658 l 776 658 l 638 0 l 508 0 l 511 65 q 400 5 457 24 q 272 -14 343 -14 m 338 100 q 521 169 439 100 l 590 496 q 532 542 564 526 q 453 557 500 557 q 286 491 353 557 q 193 301 219 425 q 181 210 181 247 q 217 124 181 149 q 338 100 253 100 m 219 -118 l 350 -118 l 325 -240 l 194 -240 l 219 -118 z "},"ầ":{"ha":810,"x_min":29,"x_max":776,"o":"m 196 1065 l 313 1065 l 361 881 l 254 881 l 196 1065 m 432 900 l 550 900 l 675 724 l 556 724 l 482 838 l 358 724 l 231 724 l 432 900 m 272 -14 q 29 201 29 -14 q 40 303 29 243 q 122 499 63 415 q 263 628 181 583 q 436 672 344 672 q 538 658 496 672 q 615 613 579 644 l 625 658 l 776 658 l 638 0 l 508 0 l 511 65 q 400 5 457 24 q 272 -14 343 -14 m 338 100 q 521 169 439 100 l 590 496 q 532 542 564 526 q 453 557 500 557 q 286 491 353 557 q 193 301 219 425 q 181 210 181 247 q 217 124 181 149 q 338 100 253 100 z "},"ẩ":{"ha":810,"x_min":29,"x_max":872,"o":"m 643 942 q 731 957 707 944 q 760 996 754 969 q 761 1007 761 1000 q 704 1039 761 1039 q 624 1022 667 1039 l 640 1096 q 749 1113 690 1113 q 840 1090 807 1113 q 872 1026 872 1067 q 869 1004 872 1021 q 827 932 858 958 q 739 897 796 906 l 729 850 l 624 850 l 643 942 m 436 899 l 554 899 l 681 722 l 561 722 l 488 836 l 364 722 l 235 722 l 436 899 m 272 -14 q 29 201 29 -14 q 40 303 29 243 q 122 499 63 415 q 263 628 181 583 q 436 672 344 672 q 538 658 496 672 q 615 613 579 644 l 625 658 l 776 658 l 638 0 l 508 0 l 511 65 q 400 5 457 24 q 272 -14 343 -14 m 338 100 q 521 169 439 100 l 590 496 q 532 542 564 526 q 453 557 500 557 q 286 491 353 557 q 193 301 219 425 q 181 210 181 247 q 217 124 181 149 q 338 100 253 100 z "},"ẫ":{"ha":810,"x_min":29,"x_max":776,"o":"m 619 911 q 569 918 593 911 q 515 939 546 925 q 465 958 482 953 q 426 964 447 964 q 301 915 354 964 l 322 1014 q 377 1043 343 1032 q 444 1054 411 1054 q 492 1048 471 1054 q 546 1028 513 1042 q 595 1009 576 1015 q 638 1003 614 1003 q 754 1051 708 1003 l 732 953 q 685 923 715 935 q 619 911 654 911 m 443 900 l 561 900 l 688 724 l 568 724 l 494 838 l 371 724 l 242 724 l 443 900 m 272 -14 q 29 201 29 -14 q 40 303 29 243 q 122 499 63 415 q 263 628 181 583 q 436 672 344 672 q 538 658 496 672 q 615 613 579 644 l 625 658 l 776 658 l 638 0 l 508 0 l 511 65 q 400 5 457 24 q 272 -14 343 -14 m 338 100 q 521 169 439 100 l 590 496 q 532 542 564 526 q 453 557 500 557 q 286 491 353 557 q 193 301 219 425 q 181 210 181 247 q 217 124 181 149 q 338 100 253 100 z "},"ä":{"ha":810,"x_min":29,"x_max":776,"o":"m 315 878 l 442 878 l 415 758 l 289 758 l 315 878 m 572 878 l 700 878 l 674 758 l 546 758 l 572 878 m 272 -14 q 29 201 29 -14 q 40 303 29 243 q 122 499 63 415 q 263 628 181 583 q 436 672 344 672 q 538 658 496 672 q 615 613 579 644 l 625 658 l 776 658 l 638 0 l 508 0 l 511 65 q 400 5 457 24 q 272 -14 343 -14 m 338 100 q 521 169 439 100 l 590 496 q 532 542 564 526 q 453 557 500 557 q 286 491 353 557 q 193 301 219 425 q 181 210 181 247 q 217 124 181 149 q 338 100 253 100 z "},"ạ":{"ha":810,"x_min":29,"x_max":776,"o":"m 272 -14 q 29 201 29 -14 q 40 303 29 243 q 122 499 63 415 q 263 628 181 583 q 436 672 344 672 q 538 658 496 672 q 615 613 579 644 l 625 658 l 776 658 l 638 0 l 508 0 l 511 65 q 400 5 457 24 q 272 -14 343 -14 m 338 100 q 521 169 439 100 l 590 496 q 532 542 564 526 q 453 557 500 557 q 286 491 353 557 q 193 301 219 425 q 181 210 181 247 q 217 124 181 149 q 338 100 253 100 m 226 -118 l 357 -118 l 332 -240 l 201 -240 l 226 -118 z "},"à":{"ha":810,"x_min":29,"x_max":776,"o":"m 357 971 l 489 971 l 542 725 l 419 725 l 357 971 m 272 -14 q 29 201 29 -14 q 40 303 29 243 q 122 499 63 415 q 263 628 181 583 q 436 672 344 672 q 538 658 496 672 q 615 613 579 644 l 625 658 l 776 658 l 638 0 l 508 0 l 511 65 q 400 5 457 24 q 272 -14 343 -14 m 338 100 q 521 169 439 100 l 590 496 q 532 542 564 526 q 453 557 500 557 q 286 491 353 557 q 193 301 219 425 q 181 210 181 247 q 217 124 181 149 q 338 100 253 100 z "},"ả":{"ha":810,"x_min":29,"x_max":776,"o":"m 419 838 q 526 856 497 842 q 563 907 556 871 q 564 919 564 911 q 471 965 564 965 q 424 960 450 965 q 379 949 397 956 l 396 1031 q 529 1049 450 1049 q 642 1022 603 1049 q 681 949 681 996 q 676 919 681 935 q 631 830 665 861 q 526 789 596 799 l 513 724 l 394 724 l 419 838 m 272 -14 q 29 201 29 -14 q 40 303 29 243 q 122 499 63 415 q 263 628 181 583 q 436 672 344 672 q 538 658 496 672 q 615 613 579 644 l 625 658 l 776 658 l 638 0 l 508 0 l 511 65 q 400 5 457 24 q 272 -14 343 -14 m 338 100 q 521 169 439 100 l 590 496 q 532 542 564 526 q 453 557 500 557 q 286 491 353 557 q 193 301 219 425 q 181 210 181 247 q 217 124 181 149 q 338 100 253 100 z "},"ɑ":{"ha":810,"x_min":29,"x_max":776,"o":"m 272 -14 q 29 201 29 -14 q 40 303 29 243 q 122 499 63 415 q 263 628 181 583 q 436 672 344 672 q 538 658 496 672 q 615 613 579 644 l 625 658 l 776 658 l 638 0 l 508 0 l 511 65 q 400 5 457 24 q 272 -14 343 -14 m 338 100 q 521 169 439 100 l 590 496 q 532 542 564 526 q 453 557 500 557 q 286 491 353 557 q 193 301 219 425 q 181 210 181 247 q 217 124 181 149 q 338 100 253 100 z "},"ā":{"ha":810,"x_min":29,"x_max":776,"o":"m 289 853 l 701 853 l 681 754 l 268 754 l 289 853 m 272 -14 q 29 201 29 -14 q 40 303 29 243 q 122 499 63 415 q 263 628 181 583 q 436 672 344 672 q 538 658 496 672 q 615 613 579 644 l 625 658 l 776 658 l 638 0 l 508 0 l 511 65 q 400 5 457 24 q 272 -14 343 -14 m 338 100 q 521 169 439 100 l 590 496 q 532 542 564 526 q 453 557 500 557 q 286 491 353 557 q 193 301 219 425 q 181 210 181 247 q 217 124 181 149 q 338 100 253 100 z "},"ą":{"ha":810,"x_min":29,"x_max":776,"o":"m 506 -306 q 415 -282 450 -306 q 381 -211 381 -258 q 383 -182 381 -192 q 429 -83 394 -132 q 508 0 464 -35 l 511 65 q 400 5 457 24 q 272 -14 343 -14 q 29 201 29 -14 q 40 303 29 243 q 122 499 63 415 q 263 628 181 583 q 436 672 344 672 q 538 658 496 672 q 615 613 579 644 l 625 658 l 776 658 l 638 0 q 510 -156 526 -74 l 507 -174 q 521 -203 507 -194 q 563 -211 535 -211 q 601 -207 581 -211 q 635 -196 621 -203 l 615 -287 q 506 -306 572 -306 m 338 100 q 521 169 439 100 l 590 496 q 532 542 564 526 q 453 557 500 557 q 286 491 353 557 q 193 301 219 425 q 181 210 181 247 q 217 124 181 149 q 338 100 253 100 z "},"å":{"ha":810,"x_min":29,"x_max":776,"o":"m 474 724 q 378 758 413 724 q 343 847 343 793 q 346 881 343 869 q 413 994 361 950 q 540 1039 464 1039 q 639 1005 603 1039 q 675 917 675 971 q 649 821 675 865 q 578 750 624 776 q 474 724 532 724 m 490 799 q 565 829 535 799 q 594 903 594 860 q 577 947 594 931 q 525 963 560 963 q 453 931 483 963 q 422 858 422 900 q 439 815 422 831 q 490 799 456 799 m 272 -14 q 29 201 29 -14 q 40 303 29 243 q 122 499 63 415 q 263 628 181 583 q 436 672 344 672 q 538 658 496 672 q 615 613 579 644 l 625 658 l 776 658 l 638 0 l 508 0 l 511 65 q 400 5 457 24 q 272 -14 343 -14 m 338 100 q 521 169 439 100 l 590 496 q 532 542 564 526 q 453 557 500 557 q 286 491 353 557 q 193 301 219 425 q 181 210 181 247 q 217 124 181 149 q 338 100 253 100 z "},"ǻ":{"ha":810,"x_min":29,"x_max":794,"o":"m 661 1285 l 794 1285 l 625 1089 l 504 1089 l 661 1285 m 460 718 q 364 753 399 718 q 329 842 329 788 q 332 875 329 864 q 399 989 347 944 q 526 1033 450 1033 q 625 999 589 1033 q 661 911 661 965 q 635 815 661 860 q 564 744 610 771 q 460 718 518 718 m 476 793 q 551 824 521 793 q 581 897 581 854 q 563 941 581 925 q 511 957 546 957 q 439 926 469 957 q 408 853 408 894 q 425 809 408 825 q 476 793 442 793 m 272 -14 q 29 201 29 -14 q 40 303 29 243 q 122 499 63 415 q 263 628 181 583 q 436 672 344 672 q 538 658 496 672 q 615 613 579 644 l 625 658 l 776 658 l 638 0 l 508 0 l 511 65 q 400 5 457 24 q 272 -14 343 -14 m 338 100 q 521 169 439 100 l 590 496 q 532 542 564 526 q 453 557 500 557 q 286 491 353 557 q 193 301 219 425 q 181 210 181 247 q 217 124 181 149 q 338 100 253 100 z "},"ã":{"ha":810,"x_min":29,"x_max":776,"o":"m 586 746 q 537 753 560 746 q 478 775 514 760 q 427 794 446 788 q 388 800 408 800 q 256 750 311 800 l 279 861 q 336 891 301 879 q 406 903 371 903 q 456 896 433 903 q 511 875 479 889 q 561 856 540 863 q 607 849 582 849 q 729 900 681 849 l 706 789 q 655 758 688 769 q 586 746 622 746 m 272 -14 q 29 201 29 -14 q 40 303 29 243 q 122 499 63 415 q 263 628 181 583 q 436 672 344 672 q 538 658 496 672 q 615 613 579 644 l 625 658 l 776 658 l 638 0 l 508 0 l 511 65 q 400 5 457 24 q 272 -14 343 -14 m 338 100 q 521 169 439 100 l 590 496 q 532 542 564 526 q 453 557 500 557 q 286 491 353 557 q 193 301 219 425 q 181 210 181 247 q 217 124 181 149 q 338 100 253 100 z "},"æ":{"ha":1224,"x_min":10,"x_max":1171,"o":"m 214 -14 q 66 26 122 -14 q 10 143 10 67 q 15 188 10 157 q 114 341 36 285 q 324 397 192 397 l 535 397 l 542 426 q 547 472 547 449 q 513 535 547 517 q 389 554 478 554 q 164 519 272 554 l 188 632 q 442 672 299 672 q 658 585 607 672 q 775 649 707 626 q 921 672 843 672 q 1107 617 1043 672 q 1171 465 1171 561 q 1163 392 1171 432 l 1138 269 l 656 269 q 654 240 654 260 q 704 131 654 163 q 867 100 754 100 q 972 109 918 100 q 1068 135 1026 118 l 1044 25 q 811 -14 949 -14 q 652 15 718 -14 q 557 101 586 44 q 410 16 488 46 q 214 -14 332 -14 m 1025 368 l 1035 414 q 1040 457 1040 444 q 901 558 1040 558 q 748 514 799 558 q 676 368 697 469 l 1025 368 m 269 94 q 392 115 339 94 q 488 176 444 136 l 514 294 l 306 294 q 203 269 239 294 q 157 190 168 243 q 154 165 154 171 q 183 112 154 129 q 269 94 213 94 z "},"ǽ":{"ha":1224,"x_min":10,"x_max":1171,"o":"m 772 971 l 906 971 l 736 725 l 615 725 l 772 971 m 214 -14 q 66 26 122 -14 q 10 143 10 67 q 15 188 10 157 q 114 341 36 285 q 324 397 192 397 l 535 397 l 542 426 q 547 472 547 449 q 513 535 547 517 q 389 554 478 554 q 164 519 272 554 l 188 632 q 442 672 299 672 q 658 585 607 672 q 775 649 707 626 q 921 672 843 672 q 1107 617 1043 672 q 1171 465 1171 561 q 1163 392 1171 432 l 1138 269 l 656 269 q 654 240 654 260 q 704 131 654 163 q 867 100 754 100 q 972 109 918 100 q 1068 135 1026 118 l 1044 25 q 811 -14 949 -14 q 652 15 718 -14 q 557 101 586 44 q 410 16 488 46 q 214 -14 332 -14 m 1025 368 l 1035 414 q 1040 457 1040 444 q 901 558 1040 558 q 748 514 799 558 q 676 368 697 469 l 1025 368 m 269 94 q 392 115 339 94 q 488 176 444 136 l 514 294 l 306 294 q 203 269 239 294 q 157 190 168 243 q 154 165 154 171 q 183 112 154 129 q 269 94 213 94 z "},"b":{"ha":808,"x_min":4,"x_max":749,"o":"m 361 -14 q 242 5 290 -14 q 156 65 193 24 l 135 0 l 4 0 l 203 936 l 354 936 l 286 615 q 504 672 383 672 q 684 615 619 672 q 749 443 749 558 q 736 335 749 396 q 361 -14 661 -14 m 346 100 q 503 156 449 100 q 583 335 557 213 q 596 431 596 392 q 559 527 596 497 q 440 557 522 557 q 261 500 338 557 l 190 169 q 256 117 215 135 q 346 100 296 100 z "},"c":{"ha":685,"x_min":35,"x_max":674,"o":"m 324 -14 q 110 50 186 -14 q 35 235 35 114 q 46 329 35 274 q 192 586 82 500 q 478 672 301 672 q 589 663 544 672 q 674 632 633 653 l 650 519 q 483 556 586 556 q 294 503 364 556 q 199 329 224 450 q 188 242 188 276 q 233 135 188 168 q 383 101 278 101 q 571 139 482 101 l 546 24 q 324 -14 446 -14 z "},"ć":{"ha":685,"x_min":35,"x_max":676,"o":"m 543 971 l 676 971 l 507 725 l 386 725 l 543 971 m 324 -14 q 110 50 186 -14 q 35 235 35 114 q 46 329 35 274 q 192 586 82 500 q 478 672 301 672 q 589 663 544 672 q 674 632 633 653 l 650 519 q 483 556 586 556 q 294 503 364 556 q 199 329 224 450 q 188 242 188 276 q 233 135 188 168 q 383 101 278 101 q 571 139 482 101 l 546 24 q 324 -14 446 -14 z "},"č":{"ha":685,"x_min":35,"x_max":726,"o":"m 275 947 l 393 947 l 467 807 l 601 947 l 726 947 l 506 724 l 400 724 l 275 947 m 324 -14 q 110 50 186 -14 q 35 235 35 114 q 46 329 35 274 q 192 586 82 500 q 478 672 301 672 q 589 663 544 672 q 674 632 633 653 l 650 519 q 483 556 586 556 q 294 503 364 556 q 199 329 224 450 q 188 242 188 276 q 233 135 188 168 q 383 101 278 101 q 571 139 482 101 l 546 24 q 324 -14 446 -14 z "},"ç":{"ha":685,"x_min":35,"x_max":674,"o":"m 215 -333 q 163 -330 193 -333 q 117 -322 132 -326 l 135 -240 q 218 -251 172 -251 q 312 -239 283 -251 q 349 -189 340 -226 q 350 -174 350 -183 q 327 -140 350 -147 q 249 -132 304 -132 l 193 -132 l 256 -10 q 92 68 150 6 q 35 235 35 131 q 46 329 35 274 q 192 586 82 500 q 478 672 301 672 q 589 663 544 672 q 674 632 633 653 l 650 519 q 483 556 586 556 q 294 503 364 556 q 199 329 224 450 q 188 242 188 276 q 233 135 188 168 q 383 101 278 101 q 571 139 482 101 l 546 24 q 356 -12 463 -8 l 328 -65 q 422 -90 390 -65 q 454 -158 454 -114 q 450 -190 454 -174 q 215 -333 419 -333 z "},"ĉ":{"ha":685,"x_min":35,"x_max":676,"o":"m 444 947 l 550 947 l 676 724 l 560 724 l 483 864 l 351 724 l 225 724 l 444 947 m 324 -14 q 110 50 186 -14 q 35 235 35 114 q 46 329 35 274 q 192 586 82 500 q 478 672 301 672 q 589 663 544 672 q 674 632 633 653 l 650 519 q 483 556 586 556 q 294 503 364 556 q 199 329 224 450 q 188 242 188 276 q 233 135 188 168 q 383 101 278 101 q 571 139 482 101 l 546 24 q 324 -14 446 -14 z "},"ċ":{"ha":685,"x_min":35,"x_max":674,"o":"m 429 879 l 557 879 l 531 757 l 403 757 l 429 879 m 324 -14 q 110 50 186 -14 q 35 235 35 114 q 46 329 35 274 q 192 586 82 500 q 478 672 301 672 q 589 663 544 672 q 674 632 633 653 l 650 519 q 483 556 586 556 q 294 503 364 556 q 199 329 224 450 q 188 242 188 276 q 233 135 188 168 q 383 101 278 101 q 571 139 482 101 l 546 24 q 324 -14 446 -14 z "},"d":{"ha":808,"x_min":32,"x_max":836,"o":"m 272 -14 q 97 44 161 -14 q 32 218 32 101 q 44 326 32 267 q 181 586 82 500 q 425 672 279 672 q 617 615 546 672 l 685 936 l 836 936 l 638 0 l 508 0 l 511 65 q 400 5 457 24 q 272 -14 343 -14 m 338 100 q 521 169 439 100 l 592 499 q 440 557 540 557 q 285 500 349 557 q 197 325 222 443 q 185 229 185 271 q 221 131 185 163 q 338 100 257 100 z "},"ð":{"ha":796,"x_min":25,"x_max":871,"o":"m 310 -14 q 96 41 167 -14 q 25 197 25 96 q 33 274 25 232 q 160 487 64 414 q 404 560 256 560 q 517 541 460 560 q 613 489 574 522 l 625 546 q 642 671 642 629 q 638 713 642 694 l 438 633 l 454 711 l 604 771 q 468 806 565 806 q 261 771 365 806 l 283 875 q 511 908 386 908 q 732 822 664 908 l 871 878 l 854 799 l 764 763 q 779 656 779 718 q 765 531 779 594 l 722 332 q 589 68 685 150 q 310 -14 493 -14 m 332 92 q 490 140 432 92 q 571 292 549 189 l 592 392 q 507 441 554 422 q 411 460 460 460 q 247 412 304 460 q 169 274 189 364 q 163 218 163 242 q 203 124 163 156 q 332 92 243 92 z "},"ď":{"ha":896,"x_min":32,"x_max":1118,"o":"m 989 967 l 1118 967 l 943 710 l 825 710 l 989 967 m 272 -14 q 95 42 158 -14 q 32 214 32 99 q 44 326 32 264 q 183 585 82 499 q 425 672 283 672 q 617 615 546 672 l 685 936 l 836 936 l 638 0 l 508 0 l 511 65 q 400 5 457 24 q 272 -14 343 -14 m 338 100 q 521 169 439 100 l 592 499 q 440 557 540 557 q 283 501 343 557 q 197 325 222 444 q 186 238 186 272 q 224 133 186 167 q 338 100 261 100 z "},"đ":{"ha":808,"x_min":32,"x_max":886,"o":"m 272 -14 q 97 44 161 -14 q 32 218 32 101 q 44 326 32 267 q 181 586 82 500 q 425 672 279 672 q 617 615 546 672 l 643 743 l 418 743 l 442 851 l 667 851 l 685 936 l 836 936 l 818 851 l 886 851 l 863 743 l 794 743 l 638 0 l 508 0 l 511 65 q 400 5 457 24 q 272 -14 343 -14 m 338 100 q 521 169 439 100 l 592 499 q 440 557 540 557 q 285 500 349 557 q 197 325 222 443 q 185 229 185 271 q 221 131 185 163 q 338 100 257 100 z "},"ḍ":{"ha":808,"x_min":32,"x_max":836,"o":"m 272 -14 q 97 44 161 -14 q 32 218 32 101 q 44 326 32 267 q 181 586 82 500 q 425 672 279 672 q 617 615 546 672 l 685 936 l 836 936 l 638 0 l 508 0 l 511 65 q 400 5 457 24 q 272 -14 343 -14 m 338 100 q 521 169 439 100 l 592 499 q 440 557 540 557 q 285 500 349 557 q 197 325 222 443 q 185 229 185 271 q 221 131 185 163 q 338 100 257 100 m 238 -118 l 368 -118 l 343 -240 l 213 -240 l 238 -118 z "},"ḏ":{"ha":808,"x_min":32,"x_max":836,"o":"m 272 -14 q 97 44 161 -14 q 32 218 32 101 q 44 326 32 267 q 181 586 82 500 q 425 672 279 672 q 617 615 546 672 l 685 936 l 836 936 l 638 0 l 508 0 l 511 65 q 400 5 457 24 q 272 -14 343 -14 m 338 100 q 521 169 439 100 l 592 499 q 440 557 540 557 q 285 500 349 557 q 197 325 222 443 q 185 229 185 271 q 221 131 185 163 q 338 100 257 100 m 99 -129 l 511 -129 l 490 -228 l 78 -228 l 99 -129 z "},"e":{"ha":746,"x_min":35,"x_max":692,"o":"m 333 -14 q 114 49 193 -14 q 35 233 35 111 q 46 331 35 275 q 177 584 81 496 q 443 672 274 672 q 628 613 565 672 q 692 457 692 554 q 685 392 692 429 l 660 269 l 178 269 q 176 236 176 257 q 224 131 176 161 q 389 101 271 101 q 493 111 439 101 q 590 136 547 121 l 567 25 q 333 -14 471 -14 m 547 368 l 557 414 q 563 461 563 436 q 530 534 563 510 q 424 558 497 558 q 270 514 321 558 q 199 368 219 469 l 547 368 z "},"é":{"ha":746,"x_min":35,"x_max":692,"o":"m 540 971 l 674 971 l 504 725 l 383 725 l 540 971 m 333 -14 q 114 49 193 -14 q 35 233 35 111 q 46 331 35 275 q 177 584 81 496 q 443 672 274 672 q 628 613 565 672 q 692 457 692 554 q 685 392 692 429 l 660 269 l 178 269 q 176 236 176 257 q 224 131 176 161 q 389 101 271 101 q 493 111 439 101 q 590 136 547 121 l 567 25 q 333 -14 471 -14 m 547 368 l 557 414 q 563 461 563 436 q 530 534 563 510 q 424 558 497 558 q 270 514 321 558 q 199 368 219 469 l 547 368 z "},"ĕ":{"ha":746,"x_min":35,"x_max":693,"o":"m 451 725 q 334 763 375 725 q 293 868 293 800 q 299 921 293 894 l 396 921 q 392 882 392 900 q 409 832 392 849 q 467 815 426 815 q 544 844 513 815 q 586 921 575 872 l 693 921 q 609 778 674 831 q 451 725 544 725 m 333 -14 q 114 49 193 -14 q 35 233 35 111 q 46 331 35 275 q 177 584 81 496 q 443 672 274 672 q 628 613 565 672 q 692 457 692 554 q 685 392 692 429 l 660 269 l 178 269 q 176 236 176 257 q 224 131 176 161 q 389 101 271 101 q 493 111 439 101 q 590 136 547 121 l 567 25 q 333 -14 471 -14 m 547 368 l 557 414 q 563 461 563 436 q 530 534 563 510 q 424 558 497 558 q 270 514 321 558 q 199 368 219 469 l 547 368 z "},"ě":{"ha":746,"x_min":35,"x_max":733,"o":"m 282 947 l 400 947 l 474 807 l 608 947 l 733 947 l 513 724 l 407 724 l 282 947 m 333 -14 q 114 49 193 -14 q 35 233 35 111 q 46 331 35 275 q 177 584 81 496 q 443 672 274 672 q 628 613 565 672 q 692 457 692 554 q 685 392 692 429 l 660 269 l 178 269 q 176 236 176 257 q 224 131 176 161 q 389 101 271 101 q 493 111 439 101 q 590 136 547 121 l 567 25 q 333 -14 471 -14 m 547 368 l 557 414 q 563 461 563 436 q 530 534 563 510 q 424 558 497 558 q 270 514 321 558 q 199 368 219 469 l 547 368 z "},"ê":{"ha":746,"x_min":35,"x_max":692,"o":"m 442 947 l 547 947 l 674 724 l 557 724 l 481 864 l 349 724 l 222 724 l 442 947 m 333 -14 q 114 49 193 -14 q 35 233 35 111 q 46 331 35 275 q 177 584 81 496 q 443 672 274 672 q 628 613 565 672 q 692 457 692 554 q 685 392 692 429 l 660 269 l 178 269 q 176 236 176 257 q 224 131 176 161 q 389 101 271 101 q 493 111 439 101 q 590 136 547 121 l 567 25 q 333 -14 471 -14 m 547 368 l 557 414 q 563 461 563 436 q 530 534 563 510 q 424 558 497 558 q 270 514 321 558 q 199 368 219 469 l 547 368 z "},"ế":{"ha":746,"x_min":35,"x_max":857,"o":"m 742 1064 l 857 1064 l 721 879 l 614 879 l 742 1064 m 433 899 l 550 899 l 678 722 l 558 722 l 483 836 l 361 722 l 231 722 l 433 899 m 333 -14 q 114 49 193 -14 q 35 233 35 111 q 46 331 35 275 q 177 584 81 496 q 443 672 274 672 q 628 613 565 672 q 692 457 692 554 q 685 392 692 429 l 660 269 l 178 269 q 176 236 176 257 q 224 131 176 161 q 389 101 271 101 q 493 111 439 101 q 590 136 547 121 l 567 25 q 333 -14 471 -14 m 547 368 l 557 414 q 563 461 563 436 q 530 534 563 510 q 424 558 497 558 q 270 514 321 558 q 199 368 219 469 l 547 368 z "},"ệ":{"ha":746,"x_min":35,"x_max":692,"o":"m 444 947 l 550 947 l 676 724 l 560 724 l 483 864 l 351 724 l 225 724 l 444 947 m 333 -14 q 114 49 193 -14 q 35 233 35 111 q 46 331 35 275 q 177 584 81 496 q 443 672 274 672 q 628 613 565 672 q 692 457 692 554 q 685 392 692 429 l 660 269 l 178 269 q 176 236 176 257 q 224 131 176 161 q 389 101 271 101 q 493 111 439 101 q 590 136 547 121 l 567 25 q 333 -14 471 -14 m 547 368 l 557 414 q 563 461 563 436 q 530 534 563 510 q 424 558 497 558 q 270 514 321 558 q 199 368 219 469 l 547 368 m 208 -118 l 339 -118 l 314 -240 l 183 -240 l 208 -118 z "},"ề":{"ha":746,"x_min":35,"x_max":692,"o":"m 210 1082 l 326 1082 l 375 897 l 268 897 l 210 1082 m 446 917 l 564 917 l 689 740 l 569 740 l 496 854 l 372 740 l 244 740 l 446 917 m 333 -14 q 114 49 193 -14 q 35 233 35 111 q 46 331 35 275 q 177 584 81 496 q 443 672 274 672 q 628 613 565 672 q 692 457 692 554 q 685 392 692 429 l 660 269 l 178 269 q 176 236 176 257 q 224 131 176 161 q 389 101 271 101 q 493 111 439 101 q 590 136 547 121 l 567 25 q 333 -14 471 -14 m 547 368 l 557 414 q 563 461 563 436 q 530 534 563 510 q 424 558 497 558 q 270 514 321 558 q 199 368 219 469 l 547 368 z "},"ể":{"ha":746,"x_min":35,"x_max":863,"o":"m 633 942 q 721 957 697 944 q 750 996 744 969 q 751 1007 751 1000 q 694 1039 751 1039 q 614 1022 657 1039 l 631 1096 q 739 1113 681 1113 q 830 1090 797 1113 q 863 1026 863 1067 q 860 1004 863 1021 q 817 932 849 958 q 729 897 786 906 l 719 850 l 614 850 l 633 942 m 426 899 l 544 899 l 671 722 l 551 722 l 478 836 l 354 722 l 225 722 l 426 899 m 333 -14 q 114 49 193 -14 q 35 233 35 111 q 46 331 35 275 q 177 584 81 496 q 443 672 274 672 q 628 613 565 672 q 692 457 692 554 q 685 392 692 429 l 660 269 l 178 269 q 176 236 176 257 q 224 131 176 161 q 389 101 271 101 q 493 111 439 101 q 590 136 547 121 l 567 25 q 333 -14 471 -14 m 547 368 l 557 414 q 563 461 563 436 q 530 534 563 510 q 424 558 497 558 q 270 514 321 558 q 199 368 219 469 l 547 368 z "},"ễ":{"ha":746,"x_min":35,"x_max":743,"o":"m 608 911 q 558 918 582 911 q 504 939 535 925 q 453 958 471 953 q 415 964 435 964 q 290 915 343 964 l 311 1014 q 366 1043 332 1032 q 433 1054 400 1054 q 481 1048 460 1054 q 535 1028 501 1042 q 584 1009 565 1015 q 626 1003 603 1003 q 743 1051 697 1003 l 721 953 q 674 923 704 935 q 608 911 643 911 m 432 900 l 550 900 l 676 724 l 557 724 l 483 838 l 360 724 l 231 724 l 432 900 m 333 -14 q 114 49 193 -14 q 35 233 35 111 q 46 331 35 275 q 177 584 81 496 q 443 672 274 672 q 628 613 565 672 q 692 457 692 554 q 685 392 692 429 l 660 269 l 178 269 q 176 236 176 257 q 224 131 176 161 q 389 101 271 101 q 493 111 439 101 q 590 136 547 121 l 567 25 q 333 -14 471 -14 m 547 368 l 557 414 q 563 461 563 436 q 530 534 563 510 q 424 558 497 558 q 270 514 321 558 q 199 368 219 469 l 547 368 z "},"ë":{"ha":746,"x_min":35,"x_max":692,"o":"m 288 878 l 414 878 l 388 758 l 261 758 l 288 878 m 544 878 l 672 878 l 646 758 l 518 758 l 544 878 m 333 -14 q 114 49 193 -14 q 35 233 35 111 q 46 331 35 275 q 177 584 81 496 q 443 672 274 672 q 628 613 565 672 q 692 457 692 554 q 685 392 692 429 l 660 269 l 178 269 q 176 236 176 257 q 224 131 176 161 q 389 101 271 101 q 493 111 439 101 q 590 136 547 121 l 567 25 q 333 -14 471 -14 m 547 368 l 557 414 q 563 461 563 436 q 530 534 563 510 q 424 558 497 558 q 270 514 321 558 q 199 368 219 469 l 547 368 z "},"ė":{"ha":746,"x_min":35,"x_max":692,"o":"m 419 879 l 547 879 l 521 757 l 393 757 l 419 879 m 333 -14 q 114 49 193 -14 q 35 233 35 111 q 46 331 35 275 q 177 584 81 496 q 443 672 274 672 q 628 613 565 672 q 692 457 692 554 q 685 392 692 429 l 660 269 l 178 269 q 176 236 176 257 q 224 131 176 161 q 389 101 271 101 q 493 111 439 101 q 590 136 547 121 l 567 25 q 333 -14 471 -14 m 547 368 l 557 414 q 563 461 563 436 q 530 534 563 510 q 424 558 497 558 q 270 514 321 558 q 199 368 219 469 l 547 368 z "},"ẹ":{"ha":746,"x_min":35,"x_max":692,"o":"m 333 -14 q 114 49 193 -14 q 35 233 35 111 q 46 331 35 275 q 177 584 81 496 q 443 672 274 672 q 628 613 565 672 q 692 457 692 554 q 685 392 692 429 l 660 269 l 178 269 q 176 236 176 257 q 224 131 176 161 q 389 101 271 101 q 493 111 439 101 q 590 136 547 121 l 567 25 q 333 -14 471 -14 m 547 368 l 557 414 q 563 461 563 436 q 530 534 563 510 q 424 558 497 558 q 270 514 321 558 q 199 368 219 469 l 547 368 m 208 -118 l 339 -118 l 314 -240 l 183 -240 l 208 -118 z "},"è":{"ha":746,"x_min":35,"x_max":692,"o":"m 326 971 l 458 971 l 511 725 l 389 725 l 326 971 m 333 -14 q 114 49 193 -14 q 35 233 35 111 q 46 331 35 275 q 177 584 81 496 q 443 672 274 672 q 628 613 565 672 q 692 457 692 554 q 685 392 692 429 l 660 269 l 178 269 q 176 236 176 257 q 224 131 176 161 q 389 101 271 101 q 493 111 439 101 q 590 136 547 121 l 567 25 q 333 -14 471 -14 m 547 368 l 557 414 q 563 461 563 436 q 530 534 563 510 q 424 558 497 558 q 270 514 321 558 q 199 368 219 469 l 547 368 z "},"ẻ":{"ha":746,"x_min":35,"x_max":692,"o":"m 418 838 q 525 856 496 842 q 561 907 554 871 q 563 919 563 911 q 469 965 563 965 q 422 960 449 965 q 378 949 396 956 l 394 1031 q 528 1049 449 1049 q 640 1022 601 1049 q 679 949 679 996 q 675 919 679 935 q 629 830 664 861 q 525 789 594 799 l 511 724 l 393 724 l 418 838 m 333 -14 q 114 49 193 -14 q 35 233 35 111 q 46 331 35 275 q 177 584 81 496 q 443 672 274 672 q 628 613 565 672 q 692 457 692 554 q 685 392 692 429 l 660 269 l 178 269 q 176 236 176 257 q 224 131 176 161 q 389 101 271 101 q 493 111 439 101 q 590 136 547 121 l 567 25 q 333 -14 471 -14 m 547 368 l 557 414 q 563 461 563 436 q 530 534 563 510 q 424 558 497 558 q 270 514 321 558 q 199 368 219 469 l 547 368 z "},"ē":{"ha":746,"x_min":35,"x_max":700,"o":"m 288 869 l 700 869 l 679 771 l 267 771 l 288 869 m 333 -14 q 114 49 193 -14 q 35 233 35 111 q 46 331 35 275 q 177 584 81 496 q 443 672 274 672 q 628 613 565 672 q 692 457 692 554 q 685 392 692 429 l 660 269 l 178 269 q 176 236 176 257 q 224 131 176 161 q 389 101 271 101 q 493 111 439 101 q 590 136 547 121 l 567 25 q 333 -14 471 -14 m 547 368 l 557 414 q 563 461 563 436 q 530 534 563 510 q 424 558 497 558 q 270 514 321 558 q 199 368 219 469 l 547 368 z "},"ę":{"ha":746,"x_min":35,"x_max":692,"o":"m 349 -306 q 258 -282 293 -306 q 224 -211 224 -258 q 226 -182 224 -192 q 268 -90 236 -135 q 346 -14 300 -46 l 333 -14 q 114 49 193 -14 q 35 233 35 111 q 46 331 35 275 q 177 584 81 496 q 443 672 274 672 q 628 613 565 672 q 692 457 692 554 q 685 392 692 429 l 660 269 l 178 269 q 176 236 176 257 q 224 131 176 161 q 389 101 271 101 q 493 111 439 101 q 590 136 547 121 l 567 25 q 479 0 528 8 q 353 -156 369 -74 l 350 -174 q 364 -203 350 -194 q 406 -211 378 -211 q 444 -207 424 -211 q 478 -196 464 -203 l 458 -287 q 349 -306 415 -306 m 547 368 l 557 414 q 563 461 563 436 q 530 534 563 510 q 424 558 497 558 q 270 514 321 558 q 199 368 219 469 l 547 368 z "},"ẽ":{"ha":746,"x_min":35,"x_max":711,"o":"m 568 746 q 519 753 542 746 q 460 775 496 760 q 409 794 428 788 q 369 800 390 800 q 238 750 293 800 l 261 861 q 318 891 283 879 q 388 903 353 903 q 438 896 415 903 q 493 875 461 889 q 543 856 522 863 q 589 849 564 849 q 711 900 663 849 l 688 789 q 637 758 669 769 q 568 746 604 746 m 333 -14 q 114 49 193 -14 q 35 233 35 111 q 46 331 35 275 q 177 584 81 496 q 443 672 274 672 q 628 613 565 672 q 692 457 692 554 q 685 392 692 429 l 660 269 l 178 269 q 176 236 176 257 q 224 131 176 161 q 389 101 271 101 q 493 111 439 101 q 590 136 547 121 l 567 25 q 333 -14 471 -14 m 547 368 l 557 414 q 563 461 563 436 q 530 534 563 510 q 424 558 497 558 q 270 514 321 558 q 199 368 219 469 l 547 368 z "},"f":{"ha":486,"x_min":44,"x_max":596,"o":"m 158 540 l 63 540 l 88 658 l 183 658 l 201 739 q 288 900 224 842 q 465 958 353 958 q 596 935 538 958 l 572 826 q 488 842 531 842 q 392 819 422 842 q 350 738 363 796 l 333 658 l 506 658 l 474 540 l 308 540 l 194 0 l 44 0 l 158 540 z "},"g":{"ha":810,"x_min":32,"x_max":776,"o":"m 233 -244 q 142 -240 196 -244 q 64 -231 89 -236 l 90 -110 q 158 -123 117 -118 q 233 -128 200 -128 q 486 6 457 -128 l 497 56 q 282 0 403 0 q 99 55 165 0 q 32 221 32 110 q 43 315 32 260 q 178 578 78 485 q 419 672 278 672 q 538 653 490 672 q 624 593 586 633 l 647 658 l 776 658 l 643 29 q 513 -171 615 -97 q 233 -244 411 -244 m 344 114 q 522 172 442 114 l 589 488 q 436 557 536 557 q 282 494 344 557 q 196 317 219 431 q 183 225 183 263 q 220 138 183 161 q 344 114 257 114 z "},"ğ":{"ha":810,"x_min":32,"x_max":776,"o":"m 440 725 q 323 763 364 725 q 282 868 282 800 q 288 921 282 894 l 385 921 q 381 882 381 900 q 398 832 381 849 q 456 815 415 815 q 533 844 501 815 q 575 921 564 872 l 682 921 q 598 778 663 831 q 440 725 533 725 m 233 -244 q 142 -240 196 -244 q 64 -231 89 -236 l 90 -110 q 158 -123 117 -118 q 233 -128 200 -128 q 486 6 457 -128 l 497 56 q 282 0 403 0 q 99 55 165 0 q 32 221 32 110 q 43 315 32 260 q 178 578 78 485 q 419 672 278 672 q 538 653 490 672 q 624 593 586 633 l 647 658 l 776 658 l 643 29 q 513 -171 615 -97 q 233 -244 411 -244 m 344 114 q 522 172 442 114 l 589 488 q 436 557 536 557 q 282 494 344 557 q 196 317 219 431 q 183 225 183 263 q 220 138 183 161 q 344 114 257 114 z "},"ǧ":{"ha":810,"x_min":32,"x_max":776,"o":"m 289 947 l 407 947 l 481 807 l 615 947 l 740 947 l 519 724 l 414 724 l 289 947 m 233 -244 q 142 -240 196 -244 q 64 -231 89 -236 l 90 -110 q 158 -123 117 -118 q 233 -128 200 -128 q 486 6 457 -128 l 497 56 q 282 0 403 0 q 99 55 165 0 q 32 221 32 110 q 43 315 32 260 q 178 578 78 485 q 419 672 278 672 q 538 653 490 672 q 624 593 586 633 l 647 658 l 776 658 l 643 29 q 513 -171 615 -97 q 233 -244 411 -244 m 344 114 q 522 172 442 114 l 589 488 q 436 557 536 557 q 282 494 344 557 q 196 317 219 431 q 183 225 183 263 q 220 138 183 161 q 344 114 257 114 z "},"ĝ":{"ha":810,"x_min":32,"x_max":776,"o":"m 438 947 l 543 947 l 669 724 l 553 724 l 476 864 l 344 724 l 218 724 l 438 947 m 233 -244 q 142 -240 196 -244 q 64 -231 89 -236 l 90 -110 q 158 -123 117 -118 q 233 -128 200 -128 q 486 6 457 -128 l 497 56 q 282 0 403 0 q 99 55 165 0 q 32 221 32 110 q 43 315 32 260 q 178 578 78 485 q 419 672 278 672 q 538 653 490 672 q 624 593 586 633 l 647 658 l 776 658 l 643 29 q 513 -171 615 -97 q 233 -244 411 -244 m 344 114 q 522 172 442 114 l 589 488 q 436 557 536 557 q 282 494 344 557 q 196 317 219 431 q 183 225 183 263 q 220 138 183 161 q 344 114 257 114 z "},"ģ":{"ha":810,"x_min":32,"x_max":776,"o":"m 490 988 l 590 988 l 494 725 l 369 725 l 490 988 m 233 -244 q 142 -240 196 -244 q 64 -231 89 -236 l 90 -110 q 158 -123 117 -118 q 233 -128 200 -128 q 486 6 457 -128 l 497 56 q 282 0 403 0 q 99 55 165 0 q 32 221 32 110 q 43 315 32 260 q 178 578 78 485 q 419 672 278 672 q 538 653 490 672 q 624 593 586 633 l 647 658 l 776 658 l 643 29 q 513 -171 615 -97 q 233 -244 411 -244 m 344 114 q 522 172 442 114 l 589 488 q 436 557 536 557 q 282 494 344 557 q 196 317 219 431 q 183 225 183 263 q 220 138 183 161 q 344 114 257 114 z "},"ġ":{"ha":810,"x_min":32,"x_max":776,"o":"m 399 868 l 526 868 l 500 746 l 372 746 l 399 868 m 233 -244 q 142 -240 196 -244 q 64 -231 89 -236 l 90 -110 q 158 -123 117 -118 q 233 -128 200 -128 q 486 6 457 -128 l 497 56 q 282 0 403 0 q 99 55 165 0 q 32 221 32 110 q 43 315 32 260 q 178 578 78 485 q 419 672 278 672 q 538 653 490 672 q 624 593 586 633 l 647 658 l 776 658 l 643 29 q 513 -171 615 -97 q 233 -244 411 -244 m 344 114 q 522 172 442 114 l 589 488 q 436 557 536 557 q 282 494 344 557 q 196 317 219 431 q 183 225 183 263 q 220 138 183 161 q 344 114 257 114 z "},"ḡ":{"ha":810,"x_min":32,"x_max":776,"o":"m 282 864 l 694 864 l 674 765 l 261 765 l 282 864 m 233 -244 q 142 -240 196 -244 q 64 -231 89 -236 l 90 -110 q 158 -123 117 -118 q 233 -128 200 -128 q 486 6 457 -128 l 497 56 q 282 0 403 0 q 99 55 165 0 q 32 221 32 110 q 43 315 32 260 q 178 578 78 485 q 419 672 278 672 q 538 653 490 672 q 624 593 586 633 l 647 658 l 776 658 l 643 29 q 513 -171 615 -97 q 233 -244 411 -244 m 344 114 q 522 172 442 114 l 589 488 q 436 557 536 557 q 282 494 344 557 q 196 317 219 431 q 183 225 183 263 q 220 138 183 161 q 344 114 257 114 z "},"h":{"ha":803,"x_min":4,"x_max":736,"o":"m 203 936 l 354 936 l 281 594 q 535 672 393 672 q 685 628 633 672 q 736 500 736 585 q 728 426 736 467 l 638 0 l 488 0 l 576 419 q 583 475 583 454 q 556 538 583 519 q 460 557 528 557 q 353 535 410 557 q 257 479 297 514 l 156 0 l 4 0 l 203 936 z "},"ħ":{"ha":815,"x_min":17,"x_max":749,"o":"m 174 744 l 99 744 l 122 854 l 197 854 l 215 936 l 367 936 l 349 854 l 556 854 l 532 744 l 325 744 l 293 594 q 547 672 406 672 q 697 628 646 672 q 749 500 749 585 q 740 426 749 467 l 650 0 l 500 0 l 589 419 q 596 475 596 454 q 568 538 596 519 q 472 557 540 557 q 366 535 422 557 q 269 479 310 514 l 168 0 l 17 0 l 174 744 z "},"ḫ":{"ha":803,"x_min":4,"x_max":736,"o":"m 203 936 l 354 936 l 281 594 q 535 672 393 672 q 685 628 633 672 q 736 500 736 585 q 728 426 736 467 l 638 0 l 488 0 l 576 419 q 583 475 583 454 q 556 538 583 519 q 460 557 528 557 q 353 535 410 557 q 257 479 297 514 l 156 0 l 4 0 l 203 936 m 269 -287 q 151 -249 193 -287 q 110 -144 110 -211 q 115 -90 110 -117 l 214 -90 q 210 -131 210 -114 q 227 -181 210 -164 q 283 -197 244 -197 q 360 -169 329 -197 q 403 -90 392 -140 l 510 -90 q 426 -234 490 -181 q 269 -287 361 -287 z "},"ĥ":{"ha":803,"x_min":4,"x_max":736,"o":"m 438 1199 l 543 1199 l 669 975 l 553 975 l 476 1115 l 344 975 l 218 975 l 438 1199 m 203 936 l 354 936 l 281 594 q 535 672 393 672 q 685 628 633 672 q 736 500 736 585 q 728 426 736 467 l 638 0 l 488 0 l 576 419 q 583 475 583 454 q 556 538 583 519 q 460 557 528 557 q 353 535 410 557 q 257 479 297 514 l 156 0 l 4 0 l 203 936 z "},"ḥ":{"ha":803,"x_min":4,"x_max":736,"o":"m 203 936 l 354 936 l 281 594 q 535 672 393 672 q 685 628 633 672 q 736 500 736 585 q 728 426 736 467 l 638 0 l 488 0 l 576 419 q 583 475 583 454 q 556 538 583 519 q 460 557 528 557 q 353 535 410 557 q 257 479 297 514 l 156 0 l 4 0 l 203 936 m 236 -118 l 367 -118 l 342 -240 l 211 -240 l 236 -118 z "},"i":{"ha":428,"x_min":104,"x_max":451,"o":"m 286 921 l 451 921 l 425 796 l 260 796 l 286 921 m 219 543 l 119 543 l 157 658 l 394 658 l 256 0 l 104 0 l 219 543 z "},"ı":{"ha":428,"x_min":104,"x_max":394,"o":"m 219 543 l 119 543 l 157 658 l 394 658 l 256 0 l 104 0 l 219 543 z "},"í":{"ha":428,"x_min":104,"x_max":546,"o":"m 413 971 l 546 971 l 376 725 l 256 725 l 413 971 m 219 543 l 119 543 l 157 658 l 394 658 l 256 0 l 104 0 l 219 543 z "},"ĭ":{"ha":428,"x_min":104,"x_max":536,"o":"m 294 724 q 176 762 218 724 q 135 867 135 800 q 140 921 135 894 l 238 921 q 233 881 233 899 q 251 831 233 847 q 307 814 268 814 q 385 842 353 814 q 428 921 417 871 l 536 921 q 453 776 515 828 q 294 724 392 724 m 219 543 l 119 543 l 157 658 l 394 658 l 256 0 l 104 0 l 219 543 z "},"ǐ":{"ha":431,"x_min":104,"x_max":572,"o":"m 121 947 l 239 947 l 313 807 l 447 947 l 572 947 l 351 724 l 246 724 l 121 947 m 219 543 l 119 543 l 157 658 l 394 658 l 256 0 l 104 0 l 219 543 z "},"î":{"ha":431,"x_min":78,"x_max":529,"o":"m 297 947 l 403 947 l 529 724 l 413 724 l 336 864 l 204 724 l 78 724 l 297 947 m 219 543 l 119 543 l 157 658 l 394 658 l 256 0 l 104 0 l 219 543 z "},"ï":{"ha":431,"x_min":104,"x_max":517,"o":"m 132 878 l 258 878 l 232 758 l 106 758 l 132 878 m 389 878 l 517 878 l 490 758 l 363 758 l 389 878 m 219 543 l 119 543 l 157 658 l 394 658 l 256 0 l 104 0 l 219 543 z "},"ị":{"ha":431,"x_min":65,"x_max":451,"o":"m 286 921 l 451 921 l 425 796 l 260 796 l 286 921 m 219 543 l 119 543 l 157 658 l 394 658 l 256 0 l 104 0 l 219 543 m 90 -118 l 221 -118 l 196 -240 l 65 -240 l 90 -118 z "},"ì":{"ha":431,"x_min":104,"x_max":394,"o":"m 210 971 l 342 971 l 394 725 l 272 725 l 210 971 m 219 543 l 119 543 l 157 658 l 394 658 l 256 0 l 104 0 l 219 543 z "},"ỉ":{"ha":431,"x_min":104,"x_max":519,"o":"m 258 838 q 365 856 336 842 q 401 907 394 871 q 403 919 403 911 q 310 965 403 965 q 263 960 289 965 q 218 949 236 956 l 235 1031 q 368 1049 289 1049 q 481 1022 442 1049 q 519 949 519 996 q 515 919 519 935 q 469 830 504 861 q 365 789 435 799 l 351 724 l 233 724 l 258 838 m 219 543 l 119 543 l 157 658 l 394 658 l 256 0 l 104 0 l 219 543 z "},"ĳ":{"ha":756,"x_min":104,"x_max":778,"o":"m 286 921 l 451 921 l 425 796 l 260 796 l 286 921 m 613 921 l 778 921 l 751 796 l 586 796 l 613 921 m 219 543 l 119 543 l 157 658 l 394 658 l 256 0 l 104 0 l 219 543 m 301 -325 q 168 -303 221 -325 l 192 -193 q 274 -207 232 -207 q 368 -184 338 -207 q 410 -106 399 -161 l 549 543 l 449 543 l 486 658 l 722 658 l 557 -119 q 473 -271 536 -217 q 301 -325 410 -325 z "},"ī":{"ha":428,"x_min":92,"x_max":526,"o":"m 113 883 l 526 883 l 506 785 l 92 785 l 113 883 m 219 543 l 119 543 l 157 658 l 394 658 l 256 0 l 104 0 l 219 543 z "},"į":{"ha":428,"x_min":-21,"x_max":451,"o":"m 286 921 l 451 921 l 425 796 l 260 796 l 286 921 m 104 -306 q 14 -282 49 -306 q -21 -211 -21 -258 q -18 -182 -21 -192 q 31 -81 -7 -129 q 122 0 68 -33 l 104 0 l 219 543 l 119 543 l 157 658 l 394 658 l 256 0 l 236 0 q 108 -156 125 -74 l 106 -174 q 119 -203 106 -194 q 161 -211 133 -211 q 199 -207 179 -211 q 233 -196 219 -203 l 214 -287 q 104 -306 171 -306 z "},"ĩ":{"ha":428,"x_min":68,"x_max":542,"o":"m 399 735 q 349 742 372 735 q 290 764 326 749 q 240 783 258 776 q 200 789 221 789 q 68 739 124 789 l 92 850 q 149 880 114 868 q 218 892 183 892 q 269 885 246 892 q 324 864 292 878 q 374 844 353 851 q 419 838 394 838 q 542 889 493 838 l 518 778 q 467 747 500 758 q 399 735 435 735 m 219 543 l 119 543 l 157 658 l 394 658 l 256 0 l 104 0 l 219 543 z "},"j":{"ha":425,"x_min":-161,"x_max":449,"o":"m 283 921 l 449 921 l 422 796 l 257 796 l 283 921 m -28 -325 q -161 -303 -108 -325 l -137 -193 q -56 -207 -97 -207 q 39 -184 8 -207 q 81 -106 69 -161 l 219 543 l 119 543 l 157 658 l 393 658 l 228 -119 q 144 -271 207 -217 q -28 -325 81 -325 z "},"ȷ":{"ha":425,"x_min":-161,"x_max":393,"o":"m -28 -325 q -161 -303 -108 -325 l -137 -193 q -56 -207 -97 -207 q 39 -184 8 -207 q 81 -106 69 -161 l 219 543 l 119 543 l 157 658 l 393 658 l 228 -119 q 141 -270 207 -215 q -28 -325 75 -325 z "},"ĵ":{"ha":425,"x_min":-161,"x_max":532,"o":"m 300 947 l 406 947 l 532 724 l 415 724 l 339 864 l 207 724 l 81 724 l 300 947 m -28 -325 q -161 -303 -108 -325 l -137 -193 q -56 -207 -97 -207 q 39 -184 8 -207 q 81 -106 69 -161 l 219 543 l 119 543 l 157 658 l 393 658 l 228 -119 q 141 -270 207 -215 q -28 -325 75 -325 z "},"k":{"ha":764,"x_min":4,"x_max":744,"o":"m 203 936 l 354 936 l 239 394 l 571 658 l 744 658 l 421 393 l 621 0 l 461 0 l 308 313 l 204 229 l 156 0 l 4 0 l 203 936 z "},"ķ":{"ha":764,"x_min":4,"x_max":744,"o":"m 203 936 l 354 936 l 239 394 l 571 658 l 744 658 l 421 393 l 621 0 l 461 0 l 308 313 l 204 229 l 156 0 l 4 0 l 203 936 m 221 -51 l 346 -51 l 225 -314 l 125 -314 l 221 -51 z "},"ĸ":{"ha":764,"x_min":4,"x_max":744,"o":"m 143 658 l 294 658 l 233 369 l 571 658 l 744 658 l 417 375 l 621 0 l 461 0 l 306 293 l 197 201 l 156 0 l 4 0 l 143 658 z "},"l":{"ha":389,"x_min":31,"x_max":354,"o":"m 164 -14 q 31 100 31 -14 q 38 157 31 122 l 203 936 l 354 936 l 192 171 q 188 138 188 150 q 198 112 188 119 q 232 104 208 104 q 299 113 265 104 l 275 3 q 164 -14 225 -14 z "},"ĺ":{"ha":389,"x_min":31,"x_max":521,"o":"m 388 1263 l 521 1263 l 351 1017 l 231 1017 l 388 1263 m 164 -14 q 31 100 31 -14 q 38 157 31 122 l 203 936 l 354 936 l 192 171 q 188 138 188 150 q 198 112 188 119 q 232 104 208 104 q 299 113 265 104 l 275 3 q 164 -14 225 -14 z "},"ľ":{"ha":432,"x_min":31,"x_max":646,"o":"m 521 1164 l 646 1164 l 525 901 l 425 901 l 521 1164 m 164 -14 q 31 100 31 -14 q 38 157 31 122 l 203 936 l 354 936 l 192 171 q 188 138 188 150 q 198 112 188 119 q 232 104 208 104 q 299 113 265 104 l 275 3 q 164 -14 225 -14 z "},"ļ":{"ha":389,"x_min":-6,"x_max":354,"o":"m 164 -14 q 31 100 31 -14 q 38 157 31 122 l 203 936 l 354 936 l 192 171 q 188 138 188 150 q 198 112 188 119 q 232 104 208 104 q 299 113 265 104 l 275 3 q 164 -14 225 -14 m 90 -51 l 215 -51 l 94 -314 l -6 -314 l 90 -51 z "},"ŀ":{"ha":424,"x_min":31,"x_max":478,"o":"m 164 -14 q 31 100 31 -14 q 38 157 31 122 l 203 936 l 354 936 l 192 171 q 188 138 188 150 q 198 112 188 119 q 232 104 208 104 q 299 113 265 104 l 275 3 q 164 -14 225 -14 m 350 501 l 478 501 l 451 379 l 324 379 l 350 501 z "},"ḷ":{"ha":389,"x_min":4,"x_max":354,"o":"m 164 -14 q 31 100 31 -14 q 38 157 31 122 l 203 936 l 354 936 l 192 171 q 188 138 188 150 q 198 112 188 119 q 232 104 208 104 q 299 113 265 104 l 275 3 q 164 -14 225 -14 m 29 -118 l 160 -118 l 135 -240 l 4 -240 l 29 -118 z "},"ḹ":{"ha":389,"x_min":4,"x_max":519,"o":"m 107 1101 l 519 1101 l 499 1003 l 86 1003 l 107 1101 m 164 -14 q 31 100 31 -14 q 38 157 31 122 l 203 936 l 354 936 l 192 171 q 188 138 188 150 q 198 112 188 119 q 232 104 208 104 q 299 113 265 104 l 275 3 q 164 -14 225 -14 m 29 -118 l 160 -118 l 135 -240 l 4 -240 l 29 -118 z "},"ḻ":{"ha":389,"x_min":-133,"x_max":354,"o":"m 164 -14 q 31 100 31 -14 q 38 157 31 122 l 203 936 l 354 936 l 192 171 q 188 138 188 150 q 198 112 188 119 q 232 104 208 104 q 299 113 265 104 l 275 3 q 164 -14 225 -14 m -112 -104 l 300 -104 l 279 -203 l -133 -203 l -112 -104 z "},"ł":{"ha":389,"x_min":-62,"x_max":440,"o":"m 164 -14 q 64 13 97 -14 q 31 96 31 39 q 38 157 31 128 l 85 381 l -62 322 l -37 439 l 110 497 l 203 936 l 354 936 l 275 564 l 440 631 l 415 514 l 250 447 l 192 171 q 188 142 188 154 q 199 113 188 121 q 232 104 210 104 q 299 113 265 104 l 275 3 q 164 -14 225 -14 z "},"m":{"ha":1189,"x_min":4,"x_max":1125,"o":"m 143 658 l 282 658 l 275 589 q 524 672 397 672 q 625 651 590 672 q 676 586 660 629 q 801 650 736 628 q 943 672 865 672 q 1078 633 1032 672 q 1125 513 1125 593 q 1115 435 1125 486 l 1024 0 l 875 0 l 964 419 q 971 476 971 457 q 944 538 971 519 q 857 557 918 557 q 763 540 808 557 q 681 490 717 522 q 672 422 681 463 l 583 0 l 443 0 l 531 418 q 539 479 539 454 q 516 538 539 519 q 442 557 493 557 q 347 535 396 557 q 254 479 299 514 l 153 0 l 4 0 l 143 658 z "},"ṃ":{"ha":1189,"x_min":4,"x_max":1125,"o":"m 143 658 l 282 658 l 275 589 q 524 672 397 672 q 625 651 590 672 q 676 586 660 629 q 801 650 736 628 q 943 672 865 672 q 1078 633 1032 672 q 1125 513 1125 593 q 1115 435 1125 486 l 1024 0 l 875 0 l 964 419 q 971 476 971 457 q 944 538 971 519 q 857 557 918 557 q 763 540 808 557 q 681 490 717 522 q 672 422 681 463 l 583 0 l 443 0 l 531 418 q 539 479 539 454 q 516 538 539 519 q 442 557 493 557 q 347 535 396 557 q 254 479 299 514 l 153 0 l 4 0 l 143 658 m 419 -118 l 550 -118 l 525 -240 l 394 -240 l 419 -118 z "},"n":{"ha":803,"x_min":4,"x_max":736,"o":"m 143 658 l 282 658 l 275 589 q 397 649 331 626 q 535 672 464 672 q 685 628 635 672 q 736 500 736 583 q 728 426 736 467 l 638 0 l 488 0 l 576 419 q 583 476 583 457 q 555 539 583 521 q 457 557 526 557 q 352 536 406 557 q 257 482 299 515 l 156 0 l 4 0 l 143 658 z "},"ń":{"ha":803,"x_min":4,"x_max":736,"o":"m 547 971 l 681 971 l 511 725 l 390 725 l 547 971 m 143 658 l 282 658 l 275 589 q 397 649 331 626 q 535 672 464 672 q 685 628 635 672 q 736 500 736 583 q 728 426 736 467 l 638 0 l 488 0 l 576 419 q 583 476 583 457 q 555 539 583 521 q 457 557 526 557 q 352 536 406 557 q 257 482 299 515 l 156 0 l 4 0 l 143 658 z "},"ŉ":{"ha":881,"x_min":28,"x_max":814,"o":"m 124 899 l 249 899 l 128 636 l 28 636 l 124 899 m 221 658 l 360 658 l 353 589 q 475 649 408 626 q 613 672 542 672 q 763 628 713 672 q 814 500 814 583 q 806 426 814 467 l 715 0 l 565 0 l 654 419 q 661 476 661 457 q 633 539 661 521 q 535 557 604 557 q 430 536 483 557 q 335 482 376 515 l 233 0 l 82 0 l 221 658 z "},"ň":{"ha":803,"x_min":4,"x_max":736,"o":"m 279 947 l 397 947 l 471 807 l 606 947 l 731 947 l 510 724 l 404 724 l 279 947 m 143 658 l 282 658 l 275 589 q 397 649 331 626 q 535 672 464 672 q 685 628 635 672 q 736 500 736 583 q 728 426 736 467 l 638 0 l 488 0 l 576 419 q 583 476 583 457 q 555 539 583 521 q 457 557 526 557 q 352 536 406 557 q 257 482 299 515 l 156 0 l 4 0 l 143 658 z "},"ņ":{"ha":803,"x_min":4,"x_max":736,"o":"m 143 658 l 282 658 l 275 589 q 397 649 331 626 q 535 672 464 672 q 685 628 635 672 q 736 500 736 583 q 728 426 736 467 l 638 0 l 488 0 l 576 419 q 583 476 583 457 q 555 539 583 521 q 457 557 526 557 q 352 536 406 557 q 257 482 299 515 l 156 0 l 4 0 l 143 658 m 263 -51 l 388 -51 l 267 -314 l 167 -314 l 263 -51 z "},"ṅ":{"ha":803,"x_min":4,"x_max":736,"o":"m 440 879 l 568 879 l 542 757 l 414 757 l 440 879 m 143 658 l 282 658 l 275 589 q 397 649 331 626 q 535 672 464 672 q 685 628 635 672 q 736 500 736 583 q 728 426 736 467 l 638 0 l 488 0 l 576 419 q 583 476 583 457 q 555 539 583 521 q 457 557 526 557 q 352 536 406 557 q 257 482 299 515 l 156 0 l 4 0 l 143 658 z "},"ṇ":{"ha":803,"x_min":4,"x_max":736,"o":"m 143 658 l 282 658 l 275 589 q 397 649 331 626 q 535 672 464 672 q 685 628 635 672 q 736 500 736 583 q 728 426 736 467 l 638 0 l 488 0 l 576 419 q 583 476 583 457 q 555 539 583 521 q 457 557 526 557 q 352 536 406 557 q 257 482 299 515 l 156 0 l 4 0 l 143 658 m 235 -118 l 365 -118 l 340 -240 l 210 -240 l 235 -118 z "},"ŋ":{"ha":803,"x_min":4,"x_max":738,"o":"m 354 -325 q 221 -303 274 -325 l 244 -193 q 326 -207 285 -207 q 422 -184 392 -207 q 464 -106 453 -161 l 576 419 q 583 474 583 454 q 554 538 583 518 q 457 557 525 557 q 352 536 406 557 q 257 482 299 515 l 156 0 l 4 0 l 143 658 l 282 658 l 275 589 q 397 649 331 626 q 535 672 464 672 q 688 633 639 672 q 738 511 738 593 q 728 426 738 469 l 611 -119 q 526 -271 590 -217 q 354 -325 461 -325 z "},"ṉ":{"ha":803,"x_min":4,"x_max":736,"o":"m 143 658 l 282 658 l 275 589 q 397 649 331 626 q 535 672 464 672 q 685 628 635 672 q 736 500 736 583 q 728 426 736 467 l 638 0 l 488 0 l 576 419 q 583 476 583 457 q 555 539 583 521 q 457 557 526 557 q 352 536 406 557 q 257 482 299 515 l 156 0 l 4 0 l 143 658 m 94 -100 l 507 -100 l 486 -199 l 74 -199 l 94 -100 z "},"ñ":{"ha":803,"x_min":4,"x_max":736,"o":"m 592 746 q 542 753 565 746 q 483 775 519 760 q 433 794 451 788 q 393 800 414 800 q 261 750 317 800 l 285 861 q 342 891 307 879 q 411 903 376 903 q 462 896 439 903 q 517 875 485 889 q 567 856 546 863 q 613 849 588 849 q 735 900 686 849 l 711 789 q 660 758 693 769 q 592 746 628 746 m 143 658 l 282 658 l 275 589 q 397 649 331 626 q 535 672 464 672 q 685 628 635 672 q 736 500 736 583 q 728 426 736 467 l 638 0 l 488 0 l 576 419 q 583 476 583 457 q 555 539 583 521 q 457 557 526 557 q 352 536 406 557 q 257 482 299 515 l 156 0 l 4 0 l 143 658 z "},"o":{"ha":807,"x_min":35,"x_max":744,"o":"m 315 -14 q 106 48 178 -14 q 35 228 35 110 q 46 329 35 281 q 181 586 82 500 q 461 672 281 672 q 673 610 601 672 q 744 431 744 549 q 733 329 744 378 q 598 72 697 158 q 315 -14 499 -14 m 343 114 q 501 164 446 114 q 581 329 556 214 q 593 424 593 383 q 557 515 593 488 q 435 543 521 543 q 277 493 332 543 q 199 329 222 443 q 186 235 186 275 q 223 142 186 171 q 343 114 260 114 z "},"ó":{"ha":807,"x_min":35,"x_max":744,"o":"m 564 971 l 697 971 l 528 725 l 407 725 l 564 971 m 315 -14 q 106 48 178 -14 q 35 228 35 110 q 46 329 35 281 q 181 586 82 500 q 461 672 281 672 q 673 610 601 672 q 744 431 744 549 q 733 329 744 378 q 598 72 697 158 q 315 -14 499 -14 m 343 114 q 501 164 446 114 q 581 329 556 214 q 593 424 593 383 q 557 515 593 488 q 435 543 521 543 q 277 493 332 543 q 199 329 222 443 q 186 235 186 275 q 223 142 186 171 q 343 114 260 114 z "},"ŏ":{"ha":807,"x_min":35,"x_max":744,"o":"m 471 725 q 353 763 394 725 q 313 868 313 800 q 318 921 313 894 l 415 921 q 411 882 411 900 q 428 832 411 849 q 486 815 446 815 q 563 844 532 815 q 606 921 594 872 l 713 921 q 628 778 693 831 q 471 725 564 725 m 315 -14 q 106 48 178 -14 q 35 228 35 110 q 46 329 35 281 q 181 586 82 500 q 461 672 281 672 q 673 610 601 672 q 744 431 744 549 q 733 329 744 378 q 598 72 697 158 q 315 -14 499 -14 m 343 114 q 501 164 446 114 q 581 329 556 214 q 593 424 593 383 q 557 515 593 488 q 435 543 521 543 q 277 493 332 543 q 199 329 222 443 q 186 235 186 275 q 223 142 186 171 q 343 114 260 114 z "},"ǒ":{"ha":807,"x_min":35,"x_max":746,"o":"m 294 947 l 413 947 l 486 807 l 621 947 l 746 947 l 525 724 l 419 724 l 294 947 m 315 -14 q 106 48 178 -14 q 35 228 35 110 q 46 329 35 281 q 181 586 82 500 q 461 672 281 672 q 673 610 601 672 q 744 431 744 549 q 733 329 744 378 q 598 72 697 158 q 315 -14 499 -14 m 343 114 q 501 164 446 114 q 581 329 556 214 q 593 424 593 383 q 557 515 593 488 q 435 543 521 543 q 277 493 332 543 q 199 329 222 443 q 186 235 186 275 q 223 142 186 171 q 343 114 260 114 z "},"ô":{"ha":807,"x_min":35,"x_max":744,"o":"m 467 947 l 572 947 l 699 724 l 582 724 l 506 864 l 374 724 l 247 724 l 467 947 m 315 -14 q 106 48 178 -14 q 35 228 35 110 q 46 329 35 281 q 181 586 82 500 q 461 672 281 672 q 673 610 601 672 q 744 431 744 549 q 733 329 744 378 q 598 72 697 158 q 315 -14 499 -14 m 343 114 q 501 164 446 114 q 581 329 556 214 q 593 424 593 383 q 557 515 593 488 q 435 543 521 543 q 277 493 332 543 q 199 329 222 443 q 186 235 186 275 q 223 142 186 171 q 343 114 260 114 z "},"ố":{"ha":807,"x_min":35,"x_max":876,"o":"m 761 1065 l 876 1065 l 740 881 l 633 881 l 761 1065 m 453 900 l 569 900 l 697 724 l 578 724 l 503 838 l 381 724 l 250 724 l 453 900 m 315 -14 q 106 48 178 -14 q 35 228 35 110 q 46 329 35 281 q 181 586 82 500 q 461 672 281 672 q 673 610 601 672 q 744 431 744 549 q 733 329 744 378 q 598 72 697 158 q 315 -14 499 -14 m 343 114 q 501 164 446 114 q 581 329 556 214 q 593 424 593 383 q 557 515 593 488 q 435 543 521 543 q 277 493 332 543 q 199 329 222 443 q 186 235 186 275 q 223 142 186 171 q 343 114 260 114 z "},"ộ":{"ha":807,"x_min":35,"x_max":744,"o":"m 467 947 l 572 947 l 699 724 l 582 724 l 506 864 l 374 724 l 247 724 l 467 947 m 315 -14 q 106 48 178 -14 q 35 228 35 110 q 46 329 35 281 q 181 586 82 500 q 461 672 281 672 q 673 610 601 672 q 744 431 744 549 q 733 329 744 378 q 598 72 697 158 q 315 -14 499 -14 m 343 114 q 501 164 446 114 q 581 329 556 214 q 593 424 593 383 q 557 515 593 488 q 435 543 521 543 q 277 493 332 543 q 199 329 222 443 q 186 235 186 275 q 223 142 186 171 q 343 114 260 114 m 229 -118 l 360 -118 l 335 -240 l 204 -240 l 229 -118 z "},"ồ":{"ha":807,"x_min":35,"x_max":744,"o":"m 208 1065 l 325 1065 l 374 881 l 267 881 l 208 1065 m 444 900 l 563 900 l 688 724 l 568 724 l 494 838 l 371 724 l 243 724 l 444 900 m 315 -14 q 106 48 178 -14 q 35 228 35 110 q 46 329 35 281 q 181 586 82 500 q 461 672 281 672 q 673 610 601 672 q 744 431 744 549 q 733 329 744 378 q 598 72 697 158 q 315 -14 499 -14 m 343 114 q 501 164 446 114 q 581 329 556 214 q 593 424 593 383 q 557 515 593 488 q 435 543 521 543 q 277 493 332 543 q 199 329 222 443 q 186 235 186 275 q 223 142 186 171 q 343 114 260 114 z "},"ổ":{"ha":807,"x_min":35,"x_max":885,"o":"m 656 943 q 743 958 719 946 q 772 997 767 971 q 774 1008 774 1001 q 717 1040 774 1040 q 636 1024 679 1040 l 653 1097 q 761 1114 703 1114 q 852 1091 819 1114 q 885 1028 885 1068 q 882 1006 885 1022 q 840 933 871 960 q 751 899 808 907 l 742 851 l 636 851 l 656 943 m 449 900 l 567 900 l 693 724 l 574 724 l 500 838 l 376 724 l 247 724 l 449 900 m 315 -14 q 106 48 178 -14 q 35 228 35 110 q 46 329 35 281 q 181 586 82 500 q 461 672 281 672 q 673 610 601 672 q 744 431 744 549 q 733 329 744 378 q 598 72 697 158 q 315 -14 499 -14 m 343 114 q 501 164 446 114 q 581 329 556 214 q 593 424 593 383 q 557 515 593 488 q 435 543 521 543 q 277 493 332 543 q 199 329 222 443 q 186 235 186 275 q 223 142 186 171 q 343 114 260 114 z "},"ỗ":{"ha":807,"x_min":35,"x_max":765,"o":"m 632 960 q 582 967 606 960 q 528 988 558 974 q 502 997 521 990 q 468 1008 483 1004 q 439 1011 453 1011 q 314 964 367 1011 l 335 1063 q 390 1092 356 1081 q 457 1103 424 1103 q 506 1096 483 1103 q 558 1075 528 1089 q 608 1056 589 1063 q 650 1050 626 1050 q 765 1100 722 1050 l 746 1000 q 697 971 728 982 q 632 960 667 960 m 474 725 q 342 761 390 725 q 293 874 293 797 q 300 931 293 896 l 389 931 q 385 889 385 908 q 410 827 385 847 q 489 807 435 807 q 587 839 547 807 q 639 931 626 871 l 733 931 q 474 725 692 725 m 315 -14 q 106 48 178 -14 q 35 228 35 110 q 46 329 35 281 q 181 586 82 500 q 461 672 281 672 q 673 610 601 672 q 744 431 744 549 q 733 329 744 378 q 598 72 697 158 q 315 -14 499 -14 m 343 114 q 501 164 446 114 q 581 329 556 214 q 593 424 593 383 q 557 515 593 488 q 435 543 521 543 q 277 493 332 543 q 199 329 222 443 q 186 235 186 275 q 223 142 186 171 q 343 114 260 114 z "},"ö":{"ha":807,"x_min":35,"x_max":744,"o":"m 314 878 l 440 878 l 414 758 l 288 758 l 314 878 m 571 878 l 699 878 l 672 758 l 544 758 l 571 878 m 315 -14 q 106 48 178 -14 q 35 228 35 110 q 46 329 35 281 q 181 586 82 500 q 461 672 281 672 q 673 610 601 672 q 744 431 744 549 q 733 329 744 378 q 598 72 697 158 q 315 -14 499 -14 m 343 114 q 501 164 446 114 q 581 329 556 214 q 593 424 593 383 q 557 515 593 488 q 435 543 521 543 q 277 493 332 543 q 199 329 222 443 q 186 235 186 275 q 223 142 186 171 q 343 114 260 114 z "},"ọ":{"ha":807,"x_min":35,"x_max":744,"o":"m 315 -14 q 106 48 178 -14 q 35 228 35 110 q 46 329 35 281 q 181 586 82 500 q 461 672 281 672 q 673 610 601 672 q 744 431 744 549 q 733 329 744 378 q 598 72 697 158 q 315 -14 499 -14 m 343 114 q 501 164 446 114 q 581 329 556 214 q 593 424 593 383 q 557 515 593 488 q 435 543 521 543 q 277 493 332 543 q 199 329 222 443 q 186 235 186 275 q 223 142 186 171 q 343 114 260 114 m 229 -118 l 360 -118 l 335 -240 l 204 -240 l 229 -118 z "},"ò":{"ha":807,"x_min":35,"x_max":744,"o":"m 357 971 l 489 971 l 542 725 l 419 725 l 357 971 m 315 -14 q 106 48 178 -14 q 35 228 35 110 q 46 329 35 281 q 181 586 82 500 q 461 672 281 672 q 673 610 601 672 q 744 431 744 549 q 733 329 744 378 q 598 72 697 158 q 315 -14 499 -14 m 343 114 q 501 164 446 114 q 581 329 556 214 q 593 424 593 383 q 557 515 593 488 q 435 543 521 543 q 277 493 332 543 q 199 329 222 443 q 186 235 186 275 q 223 142 186 171 q 343 114 260 114 z "},"ỏ":{"ha":807,"x_min":35,"x_max":744,"o":"m 440 838 q 547 856 518 842 q 583 907 576 871 q 585 919 585 911 q 492 965 585 965 q 444 960 471 965 q 400 949 418 956 l 417 1031 q 550 1049 471 1049 q 663 1022 624 1049 q 701 949 701 996 q 697 919 701 935 q 651 830 686 861 q 547 789 617 799 l 533 724 l 415 724 l 440 838 m 315 -14 q 106 48 178 -14 q 35 228 35 110 q 46 329 35 281 q 181 586 82 500 q 461 672 281 672 q 673 610 601 672 q 744 431 744 549 q 733 329 744 378 q 598 72 697 158 q 315 -14 499 -14 m 343 114 q 501 164 446 114 q 581 329 556 214 q 593 424 593 383 q 557 515 593 488 q 435 543 521 543 q 277 493 332 543 q 199 329 222 443 q 186 235 186 275 q 223 142 186 171 q 343 114 260 114 z "},"ơ":{"ha":939,"x_min":33,"x_max":989,"o":"m 315 -14 q 33 218 33 -14 q 46 329 33 269 q 461 672 118 672 q 704 582 633 672 q 817 619 782 583 q 872 744 853 654 l 989 744 q 903 556 963 617 q 742 481 843 494 q 744 431 744 450 q 733 329 744 378 q 315 -14 660 -14 m 343 114 q 501 164 446 114 q 581 329 556 214 q 592 415 592 382 q 554 513 592 482 q 435 543 517 543 q 277 493 332 543 q 199 329 222 443 q 188 242 188 276 q 225 144 188 175 q 343 114 263 114 z "},"ớ":{"ha":939,"x_min":33,"x_max":989,"o":"m 579 971 l 713 971 l 543 725 l 422 725 l 579 971 m 315 -14 q 33 218 33 -14 q 46 329 33 269 q 461 672 118 672 q 704 582 633 672 q 817 619 782 583 q 872 744 853 654 l 989 744 q 903 556 963 617 q 742 481 843 494 q 744 431 744 450 q 733 329 744 378 q 315 -14 660 -14 m 343 114 q 501 164 446 114 q 581 329 556 214 q 592 415 592 382 q 554 513 592 482 q 435 543 517 543 q 277 493 332 543 q 199 329 222 443 q 188 242 188 276 q 225 144 188 175 q 343 114 263 114 z "},"ợ":{"ha":939,"x_min":33,"x_max":989,"o":"m 315 -14 q 33 218 33 -14 q 46 329 33 269 q 461 672 118 672 q 704 582 633 672 q 817 619 782 583 q 872 744 853 654 l 989 744 q 903 556 963 617 q 742 481 843 494 q 744 431 744 450 q 733 329 744 378 q 315 -14 660 -14 m 343 114 q 501 164 446 114 q 581 329 556 214 q 592 415 592 382 q 554 513 592 482 q 435 543 517 543 q 277 493 332 543 q 199 329 222 443 q 188 242 188 276 q 225 144 188 175 q 343 114 263 114 m 236 -118 l 367 -118 l 342 -240 l 211 -240 l 236 -118 z "},"ờ":{"ha":939,"x_min":33,"x_max":989,"o":"m 371 971 l 503 971 l 556 725 l 433 725 l 371 971 m 315 -14 q 33 218 33 -14 q 46 329 33 269 q 461 672 118 672 q 704 582 633 672 q 817 619 782 583 q 872 744 853 654 l 989 744 q 903 556 963 617 q 742 481 843 494 q 744 431 744 450 q 733 329 744 378 q 315 -14 660 -14 m 343 114 q 501 164 446 114 q 581 329 556 214 q 592 415 592 382 q 554 513 592 482 q 435 543 517 543 q 277 493 332 543 q 199 329 222 443 q 188 242 188 276 q 225 144 188 175 q 343 114 263 114 z "},"ở":{"ha":939,"x_min":33,"x_max":989,"o":"m 436 838 q 543 856 514 842 q 579 907 572 871 q 581 919 581 911 q 488 965 581 965 q 440 960 467 965 q 396 949 414 956 l 413 1031 q 546 1049 467 1049 q 658 1022 619 1049 q 697 949 697 996 q 693 919 697 935 q 647 830 682 861 q 543 789 613 799 l 529 724 l 411 724 l 436 838 m 315 -14 q 33 218 33 -14 q 46 329 33 269 q 461 672 118 672 q 704 582 633 672 q 817 619 782 583 q 872 744 853 654 l 989 744 q 903 556 963 617 q 742 481 843 494 q 744 431 744 450 q 733 329 744 378 q 315 -14 660 -14 m 343 114 q 501 164 446 114 q 581 329 556 214 q 592 415 592 382 q 554 513 592 482 q 435 543 517 543 q 277 493 332 543 q 199 329 222 443 q 188 242 188 276 q 225 144 188 175 q 343 114 263 114 z "},"ỡ":{"ha":939,"x_min":33,"x_max":989,"o":"m 596 743 q 547 750 569 743 q 488 772 524 757 q 437 791 456 785 q 397 797 418 797 q 265 747 321 797 l 289 858 q 346 888 311 876 q 415 900 381 900 q 466 893 443 900 q 521 872 489 886 q 571 853 550 860 q 617 846 592 846 q 739 897 690 846 l 715 786 q 665 755 697 767 q 596 743 632 743 m 315 -14 q 33 218 33 -14 q 46 329 33 269 q 461 672 118 672 q 704 582 633 672 q 817 619 782 583 q 872 744 853 654 l 989 744 q 903 556 963 617 q 742 481 843 494 q 744 431 744 450 q 733 329 744 378 q 315 -14 660 -14 m 343 114 q 501 164 446 114 q 581 329 556 214 q 592 415 592 382 q 554 513 592 482 q 435 543 517 543 q 277 493 332 543 q 199 329 222 443 q 188 242 188 276 q 225 144 188 175 q 343 114 263 114 z "},"ő":{"ha":807,"x_min":35,"x_max":849,"o":"m 411 951 l 547 951 l 381 724 l 258 724 l 411 951 m 711 951 l 849 951 l 681 724 l 558 724 l 711 951 m 315 -14 q 106 48 178 -14 q 35 228 35 110 q 46 329 35 281 q 181 586 82 500 q 461 672 281 672 q 673 610 601 672 q 744 431 744 549 q 733 329 744 378 q 598 72 697 158 q 315 -14 499 -14 m 343 114 q 501 164 446 114 q 581 329 556 214 q 593 424 593 383 q 557 515 593 488 q 435 543 521 543 q 277 493 332 543 q 199 329 222 443 q 186 235 186 275 q 223 142 186 171 q 343 114 260 114 z "},"ō":{"ha":807,"x_min":35,"x_max":744,"o":"m 293 869 l 706 869 l 685 771 l 272 771 l 293 869 m 315 -14 q 106 48 178 -14 q 35 228 35 110 q 46 329 35 281 q 181 586 82 500 q 461 672 281 672 q 673 610 601 672 q 744 431 744 549 q 733 329 744 378 q 598 72 697 158 q 315 -14 499 -14 m 343 114 q 501 164 446 114 q 581 329 556 214 q 593 424 593 383 q 557 515 593 488 q 435 543 521 543 q 277 493 332 543 q 199 329 222 443 q 186 235 186 275 q 223 142 186 171 q 343 114 260 114 z "},"ø":{"ha":807,"x_min":35,"x_max":744,"o":"m 154 17 q 35 228 35 75 q 46 329 35 281 q 181 586 82 500 q 461 672 281 672 q 535 667 506 672 l 574 733 l 676 733 l 622 642 q 744 431 744 586 q 733 329 744 388 q 598 72 697 158 q 315 -14 499 -14 q 242 -8 271 -14 l 203 -75 l 100 -75 l 154 17 m 461 542 l 435 543 q 278 493 332 543 q 199 329 224 443 q 186 235 186 275 q 226 140 186 168 l 461 542 m 343 114 q 501 164 446 114 q 581 329 556 214 q 593 422 593 383 q 550 518 593 489 l 314 115 q 343 114 324 114 z "},"ǿ":{"ha":807,"x_min":35,"x_max":744,"o":"m 543 971 l 676 971 l 507 725 l 386 725 l 543 971 m 154 17 q 35 228 35 75 q 46 329 35 281 q 181 586 82 500 q 461 672 281 672 q 535 667 506 672 l 574 733 l 676 733 l 622 642 q 744 431 744 586 q 733 329 744 388 q 598 72 697 158 q 315 -14 499 -14 q 242 -8 271 -14 l 203 -75 l 100 -75 l 154 17 m 461 542 l 435 543 q 278 493 332 543 q 199 329 224 443 q 186 235 186 275 q 226 140 186 168 l 461 542 m 343 114 q 501 164 446 114 q 581 329 556 214 q 593 422 593 383 q 550 518 593 489 l 314 115 q 343 114 324 114 z "},"õ":{"ha":807,"x_min":35,"x_max":744,"o":"m 590 757 q 541 764 564 757 q 482 786 518 771 q 431 805 450 799 q 392 811 413 811 q 260 761 315 811 l 283 872 q 340 902 306 890 q 410 914 375 914 q 460 907 438 914 q 515 886 483 900 q 565 867 544 874 q 611 860 586 860 q 733 911 685 860 l 710 800 q 659 769 692 781 q 590 757 626 757 m 315 -14 q 106 48 178 -14 q 35 228 35 110 q 46 329 35 281 q 181 586 82 500 q 461 672 281 672 q 673 610 601 672 q 744 431 744 549 q 733 329 744 378 q 598 72 697 158 q 315 -14 499 -14 m 343 114 q 501 164 446 114 q 581 329 556 214 q 593 424 593 383 q 557 515 593 488 q 435 543 521 543 q 277 493 332 543 q 199 329 222 443 q 186 235 186 275 q 223 142 186 171 q 343 114 260 114 z "},"œ":{"ha":1288,"x_min":35,"x_max":1233,"o":"m 315 -14 q 106 48 178 -14 q 35 228 35 110 q 46 329 35 281 q 181 586 82 500 q 461 672 281 672 q 606 647 549 672 q 697 572 663 622 q 821 647 747 621 q 985 672 894 672 q 1170 613 1107 672 q 1233 457 1233 554 q 1226 392 1233 429 l 1201 269 l 719 269 q 718 236 718 257 q 765 131 718 161 q 931 101 813 101 q 1035 111 981 101 q 1132 136 1089 121 l 1108 25 q 875 -14 1013 -14 q 617 89 689 -14 q 315 -14 511 -14 m 1089 368 l 1099 414 q 1104 461 1104 436 q 1072 534 1104 510 q 965 558 1039 558 q 812 514 863 558 q 740 368 761 469 l 1089 368 m 343 114 q 501 164 446 114 q 581 329 556 214 q 593 424 593 383 q 557 515 593 488 q 435 543 521 543 q 277 493 332 543 q 199 329 222 443 q 186 235 186 275 q 223 142 186 171 q 343 114 260 114 z "},"p":{"ha":808,"x_min":-60,"x_max":747,"o":"m 143 658 l 274 658 l 268 593 q 379 653 322 633 q 507 672 436 672 q 684 615 621 672 q 747 442 747 557 q 735 329 747 392 q 605 69 697 153 q 356 -14 513 -14 q 164 42 236 -14 l 92 -300 l -60 -300 l 143 658 m 342 100 q 498 155 440 100 q 582 331 556 210 q 594 432 594 389 q 559 527 594 497 q 443 557 524 557 q 258 488 340 557 l 189 158 q 342 100 243 100 z "},"þ":{"ha":808,"x_min":-60,"x_max":747,"o":"m 210 972 l 361 972 l 286 615 q 506 672 382 672 q 683 612 619 672 q 747 436 747 551 q 735 329 747 388 q 603 69 696 153 q 356 -14 510 -14 q 164 42 236 -14 l 92 -300 l -60 -300 l 210 972 m 342 100 q 498 155 440 100 q 582 331 556 210 q 594 428 594 388 q 559 526 594 494 q 443 557 524 557 q 258 488 340 557 l 189 158 q 342 100 243 100 z "},"q":{"ha":876,"x_min":35,"x_max":776,"o":"m 590 -336 q 446 -211 446 -336 q 453 -153 446 -187 l 494 42 q 278 -14 397 -14 q 99 47 163 -14 q 35 224 35 107 q 46 329 35 278 q 176 588 82 504 q 419 672 269 672 q 538 653 490 672 q 624 593 586 633 l 647 658 l 776 658 l 607 -142 q 603 -176 603 -162 q 616 -208 603 -199 q 661 -218 629 -218 q 721 -210 688 -218 l 699 -319 q 590 -336 647 -336 m 342 100 q 519 158 439 100 l 589 488 q 436 557 536 557 q 280 503 336 557 q 199 331 224 449 q 188 235 188 282 q 224 132 188 164 q 342 100 261 100 z "},"r":{"ha":510,"x_min":4,"x_max":535,"o":"m 143 658 l 282 658 l 275 582 q 399 638 329 613 q 535 672 469 663 l 511 557 q 374 522 449 546 q 256 475 300 499 l 156 0 l 4 0 l 143 658 z "},"ŕ":{"ha":510,"x_min":4,"x_max":535,"o":"m 321 971 l 454 971 l 285 725 l 164 725 l 321 971 m 143 658 l 282 658 l 275 582 q 399 638 329 613 q 535 672 469 663 l 511 557 q 374 522 449 546 q 256 475 300 499 l 156 0 l 4 0 l 143 658 z "},"ř":{"ha":510,"x_min":4,"x_max":535,"o":"m 81 947 l 199 947 l 272 807 l 407 947 l 532 947 l 311 724 l 206 724 l 81 947 m 143 658 l 282 658 l 275 582 q 399 638 329 613 q 535 672 469 663 l 511 557 q 374 522 449 546 q 256 475 300 499 l 156 0 l 4 0 l 143 658 z "},"ŗ":{"ha":510,"x_min":-93,"x_max":535,"o":"m 143 658 l 282 658 l 275 582 q 399 638 329 613 q 535 672 469 663 l 511 557 q 374 522 449 546 q 256 475 300 499 l 156 0 l 4 0 l 143 658 m 3 -51 l 128 -51 l 7 -314 l -93 -314 l 3 -51 z "},"ṛ":{"ha":510,"x_min":-37,"x_max":535,"o":"m 143 658 l 282 658 l 275 582 q 399 638 329 613 q 535 672 469 663 l 511 557 q 374 522 449 546 q 256 475 300 499 l 156 0 l 4 0 l 143 658 m -12 -118 l 118 -118 l 93 -240 l -37 -240 l -12 -118 z "},"ṝ":{"ha":515,"x_min":-31,"x_max":540,"o":"m 115 864 l 528 864 l 507 765 l 94 765 l 115 864 m 149 658 l 288 658 l 281 582 q 405 638 335 613 q 540 672 475 663 l 517 557 q 380 522 454 546 q 261 475 306 499 l 161 0 l 10 0 l 149 658 m -6 -118 l 125 -118 l 100 -240 l -31 -240 l -6 -118 z "},"ṟ":{"ha":510,"x_min":-157,"x_max":535,"o":"m 143 658 l 282 658 l 275 582 q 399 638 329 613 q 535 672 469 663 l 511 557 q 374 522 449 546 q 256 475 300 499 l 156 0 l 4 0 l 143 658 m -136 -100 l 276 -100 l 256 -199 l -157 -199 l -136 -100 z "},"s":{"ha":644,"x_min":-6,"x_max":583,"o":"m 219 -14 q 93 -5 153 -14 q -6 19 33 4 l 22 147 q 118 119 64 129 q 226 110 172 110 q 342 124 307 110 q 386 178 376 138 q 388 192 388 183 q 362 235 388 219 q 265 275 336 250 l 228 288 q 110 348 149 315 q 72 439 72 381 q 78 483 72 450 q 172 625 99 578 q 393 672 246 672 q 583 643 503 672 l 557 517 q 477 540 522 532 q 390 549 432 549 q 277 535 314 549 q 232 486 240 522 q 231 472 231 481 q 245 440 231 453 q 294 414 260 426 q 372 388 328 401 q 505 323 465 357 q 544 232 544 289 q 538 179 544 211 q 442 33 517 79 q 219 -14 367 -14 z "},"ś":{"ha":644,"x_min":-6,"x_max":607,"o":"m 474 971 l 607 971 l 438 725 l 317 725 l 474 971 m 219 -14 q 93 -5 153 -14 q -6 19 33 4 l 22 147 q 118 119 64 129 q 226 110 172 110 q 342 124 307 110 q 386 178 376 138 q 388 192 388 183 q 362 235 388 219 q 265 275 336 250 l 228 288 q 110 348 149 315 q 72 439 72 381 q 78 483 72 450 q 172 625 99 578 q 393 672 246 672 q 583 643 503 672 l 557 517 q 477 540 522 532 q 390 549 432 549 q 277 535 314 549 q 232 486 240 522 q 231 472 231 481 q 245 440 231 453 q 294 414 260 426 q 372 388 328 401 q 505 323 465 357 q 544 232 544 289 q 538 179 544 211 q 442 33 517 79 q 219 -14 367 -14 z "},"š":{"ha":644,"x_min":-6,"x_max":668,"o":"m 217 947 l 335 947 l 408 807 l 543 947 l 668 947 l 447 724 l 342 724 l 217 947 m 219 -14 q 93 -5 153 -14 q -6 19 33 4 l 22 147 q 118 119 64 129 q 226 110 172 110 q 342 124 307 110 q 386 178 376 138 q 388 192 388 183 q 362 235 388 219 q 265 275 336 250 l 228 288 q 110 348 149 315 q 72 439 72 381 q 78 483 72 450 q 172 625 99 578 q 393 672 246 672 q 583 643 503 672 l 557 517 q 477 540 522 532 q 390 549 432 549 q 277 535 314 549 q 232 486 240 522 q 231 472 231 481 q 245 440 231 453 q 294 414 260 426 q 372 388 328 401 q 505 323 465 357 q 544 232 544 289 q 538 179 544 211 q 442 33 517 79 q 219 -14 367 -14 z "},"ş":{"ha":644,"x_min":-6,"x_max":583,"o":"m 136 -333 q 83 -330 114 -333 q 38 -322 53 -326 l 56 -240 q 139 -251 93 -251 q 233 -239 204 -251 q 269 -189 261 -226 q 271 -174 271 -183 q 248 -140 271 -147 q 169 -132 225 -132 l 114 -132 l 175 -12 q -6 19 64 -8 l 22 147 q 118 119 64 129 q 226 110 172 110 q 342 124 307 110 q 386 178 376 138 q 388 192 388 183 q 362 235 388 219 q 265 275 336 250 l 228 288 q 110 348 149 315 q 72 439 72 381 q 78 483 72 450 q 172 625 99 578 q 393 672 246 672 q 583 643 503 672 l 557 517 q 477 540 522 532 q 390 549 432 549 q 277 535 314 549 q 232 486 240 522 q 231 472 231 481 q 245 440 231 453 q 294 414 260 426 q 372 388 328 401 q 505 323 465 357 q 544 232 544 289 q 538 179 544 211 q 456 43 518 89 q 276 -11 394 -3 l 249 -65 q 343 -90 311 -65 q 375 -158 375 -114 q 371 -190 375 -174 q 136 -333 340 -333 z "},"ŝ":{"ha":644,"x_min":-6,"x_max":625,"o":"m 393 954 l 499 954 l 625 731 l 508 731 l 432 871 l 300 731 l 174 731 l 393 954 m 219 -14 q 93 -5 153 -14 q -6 19 33 4 l 22 147 q 118 119 64 129 q 226 110 172 110 q 342 124 307 110 q 386 178 376 138 q 388 192 388 183 q 362 235 388 219 q 265 275 336 250 l 228 288 q 110 348 149 315 q 72 439 72 381 q 78 483 72 450 q 172 625 99 578 q 393 672 246 672 q 583 643 503 672 l 557 517 q 477 540 522 532 q 390 549 432 549 q 277 535 314 549 q 232 486 240 522 q 231 472 231 481 q 245 440 231 453 q 294 414 260 426 q 372 388 328 401 q 505 323 465 357 q 544 232 544 289 q 538 179 544 211 q 442 33 517 79 q 219 -14 367 -14 z "},"ș":{"ha":644,"x_min":-6,"x_max":583,"o":"m 219 -14 q 93 -5 153 -14 q -6 19 33 4 l 22 147 q 118 119 64 129 q 226 110 172 110 q 342 124 307 110 q 386 178 376 138 q 388 192 388 183 q 362 235 388 219 q 265 275 336 250 l 228 288 q 110 348 149 315 q 72 439 72 381 q 78 483 72 450 q 172 625 99 578 q 393 672 246 672 q 583 643 503 672 l 557 517 q 477 540 522 532 q 390 549 432 549 q 277 535 314 549 q 232 486 240 522 q 231 472 231 481 q 245 440 231 453 q 294 414 260 426 q 372 388 328 401 q 505 323 465 357 q 544 232 544 289 q 538 179 544 211 q 442 33 517 79 q 219 -14 367 -14 m 161 -69 l 293 -69 l 186 -310 l 71 -310 l 161 -69 z "},"ṡ":{"ha":644,"x_min":-6,"x_max":583,"o":"m 365 879 l 493 879 l 467 757 l 339 757 l 365 879 m 219 -14 q 93 -5 153 -14 q -6 19 33 4 l 22 147 q 118 119 64 129 q 226 110 172 110 q 342 124 307 110 q 386 178 376 138 q 388 192 388 183 q 362 235 388 219 q 265 275 336 250 l 228 288 q 110 348 149 315 q 72 439 72 381 q 78 483 72 450 q 172 625 99 578 q 393 672 246 672 q 583 643 503 672 l 557 517 q 477 540 522 532 q 390 549 432 549 q 277 535 314 549 q 232 486 240 522 q 231 472 231 481 q 245 440 231 453 q 294 414 260 426 q 372 388 328 401 q 505 323 465 357 q 544 232 544 289 q 538 179 544 211 q 442 33 517 79 q 219 -14 367 -14 z "},"ṣ":{"ha":644,"x_min":-6,"x_max":583,"o":"m 219 -14 q 93 -5 153 -14 q -6 19 33 4 l 22 147 q 118 119 64 129 q 226 110 172 110 q 342 124 307 110 q 386 178 376 138 q 388 192 388 183 q 362 235 388 219 q 265 275 336 250 l 228 288 q 110 348 149 315 q 72 439 72 381 q 78 483 72 450 q 172 625 99 578 q 393 672 246 672 q 583 643 503 672 l 557 517 q 477 540 522 532 q 390 549 432 549 q 277 535 314 549 q 232 486 240 522 q 231 472 231 481 q 245 440 231 453 q 294 414 260 426 q 372 388 328 401 q 505 323 465 357 q 544 232 544 289 q 538 179 544 211 q 442 33 517 79 q 219 -14 367 -14 m 160 -118 l 290 -118 l 265 -240 l 135 -240 l 160 -118 z "},"ß":{"ha":875,"x_min":-3,"x_max":850,"o":"m 443 -14 q 250 17 325 -14 l 278 144 q 443 114 339 114 q 569 154 518 114 q 636 268 619 194 q 642 315 642 290 q 606 397 642 369 q 496 424 571 424 l 388 424 l 413 539 l 519 539 q 642 579 597 539 q 701 692 686 619 q 707 733 707 722 q 665 815 707 786 q 529 843 624 843 q 360 792 422 843 q 276 632 299 740 l 143 0 l -3 0 l 132 636 q 273 885 167 797 q 556 972 379 972 q 776 910 701 972 q 850 750 850 849 q 843 692 850 724 q 787 558 828 614 q 686 476 746 501 q 764 416 736 460 q 792 313 792 372 q 786 260 792 283 q 669 58 758 131 q 443 -14 581 -14 z "},"ə":{"ha":746,"x_min":24,"x_max":682,"o":"m 274 -14 q 88 43 153 -14 q 24 197 24 100 q 32 267 24 229 l 58 388 l 540 388 q 542 422 542 400 q 522 502 542 474 q 457 543 503 531 q 329 556 411 556 q 224 547 278 556 q 126 521 169 538 l 150 632 q 383 672 250 672 q 605 611 528 672 q 682 428 682 550 q 671 326 682 376 q 540 74 636 161 q 274 -14 444 -14 m 294 99 q 448 144 397 99 q 519 289 499 189 l 171 289 l 161 244 q 154 192 154 213 q 186 122 154 144 q 294 99 218 99 z "},"t":{"ha":504,"x_min":63,"x_max":510,"o":"m 251 -14 q 122 24 165 -14 q 79 133 79 63 q 86 196 79 158 l 160 540 l 63 540 l 88 658 l 185 658 l 217 810 l 376 856 l 335 658 l 510 658 l 475 540 l 310 540 l 239 204 q 233 161 233 182 q 255 114 233 126 q 329 101 276 101 q 411 115 368 101 l 389 8 q 251 -14 328 -14 z "},"ŧ":{"ha":504,"x_min":14,"x_max":510,"o":"m 251 -14 q 122 24 165 -14 q 79 133 79 63 q 86 196 79 158 l 106 288 l 14 288 l 36 392 l 128 392 l 160 540 l 63 540 l 88 658 l 185 658 l 217 810 l 376 856 l 335 658 l 510 658 l 475 540 l 310 540 l 278 392 l 451 392 l 429 288 l 256 288 l 239 204 q 235 167 235 183 q 257 116 235 131 q 329 101 279 101 q 411 115 368 101 l 389 8 q 251 -14 328 -14 z "},"ť":{"ha":586,"x_min":63,"x_max":731,"o":"m 606 1039 l 731 1039 l 610 776 l 510 776 l 606 1039 m 251 -14 q 122 24 165 -14 q 79 133 79 63 q 86 196 79 158 l 160 540 l 63 540 l 88 658 l 185 658 l 217 810 l 376 856 l 335 658 l 510 658 l 475 540 l 310 540 l 239 204 q 233 161 233 182 q 255 114 233 126 q 329 101 276 101 q 411 115 368 101 l 389 8 q 251 -14 328 -14 z "},"ţ":{"ha":519,"x_min":42,"x_max":510,"o":"m 140 -333 q 88 -330 118 -333 q 42 -322 57 -326 l 60 -240 q 143 -251 97 -251 q 237 -239 208 -251 q 274 -189 265 -226 q 275 -174 275 -183 q 252 -140 275 -147 q 174 -132 229 -132 l 118 -132 l 182 -6 q 78 132 78 22 q 86 196 78 161 l 160 540 l 63 540 l 88 658 l 185 658 l 217 810 l 376 856 l 335 658 l 510 658 l 475 540 l 310 540 l 239 204 q 233 161 233 182 q 255 114 233 126 q 329 101 276 101 q 411 115 368 101 l 389 8 q 281 -12 336 -11 l 253 -65 q 347 -90 315 -65 q 379 -158 379 -114 q 375 -190 379 -174 q 140 -333 344 -333 z "},"ț":{"ha":504,"x_min":63,"x_max":510,"o":"m 251 -14 q 122 24 165 -14 q 79 133 79 63 q 86 196 79 158 l 160 540 l 63 540 l 88 658 l 185 658 l 217 810 l 376 856 l 335 658 l 510 658 l 475 540 l 310 540 l 239 204 q 233 161 233 182 q 255 114 233 126 q 329 101 276 101 q 411 115 368 101 l 389 8 q 251 -14 328 -14 m 163 -62 l 288 -62 l 167 -325 l 67 -325 l 163 -62 z "},"ẗ":{"ha":511,"x_min":68,"x_max":556,"o":"m 171 1013 l 297 1013 l 271 893 l 144 893 l 171 1013 m 428 1013 l 556 1013 l 529 893 l 401 893 l 428 1013 m 257 -14 q 128 24 171 -14 q 85 133 85 63 q 92 196 85 158 l 165 540 l 68 540 l 93 658 l 190 658 l 222 810 l 382 856 l 340 658 l 515 658 l 481 540 l 315 540 l 244 204 q 239 161 239 182 q 260 114 239 126 q 335 101 282 101 q 417 115 374 101 l 394 8 q 257 -14 333 -14 z "},"ṭ":{"ha":504,"x_min":63,"x_max":510,"o":"m 251 -14 q 122 24 165 -14 q 79 133 79 63 q 86 196 79 158 l 160 540 l 63 540 l 88 658 l 185 658 l 217 810 l 376 856 l 335 658 l 510 658 l 475 540 l 310 540 l 239 204 q 233 161 233 182 q 255 114 233 126 q 329 101 276 101 q 411 115 368 101 l 389 8 q 251 -14 328 -14 m 140 -108 l 271 -108 l 246 -231 l 115 -231 l 140 -108 z "},"ṯ":{"ha":504,"x_min":-53,"x_max":510,"o":"m 251 -14 q 122 24 165 -14 q 79 133 79 63 q 86 196 79 158 l 160 540 l 63 540 l 88 658 l 185 658 l 217 810 l 376 856 l 335 658 l 510 658 l 475 540 l 310 540 l 239 204 q 233 161 233 182 q 255 114 233 126 q 329 101 276 101 q 411 115 368 101 l 389 8 q 251 -14 328 -14 m -32 -90 l 381 -90 l 360 -189 l -53 -189 l -32 -90 z "},"u":{"ha":803,"x_min":40,"x_max":769,"o":"m 238 -14 q 92 33 144 -14 q 40 168 40 79 q 49 243 40 201 l 136 658 l 288 658 l 200 243 q 193 188 193 208 q 222 119 193 139 q 317 100 251 100 q 422 120 371 100 q 517 176 474 140 l 619 658 l 769 658 l 631 0 l 493 0 l 500 68 q 238 -14 379 -14 z "},"ú":{"ha":803,"x_min":40,"x_max":769,"o":"m 543 971 l 676 971 l 507 725 l 386 725 l 543 971 m 238 -14 q 92 33 144 -14 q 40 168 40 79 q 49 243 40 201 l 136 658 l 288 658 l 200 243 q 193 188 193 208 q 222 119 193 139 q 317 100 251 100 q 422 120 371 100 q 517 176 474 140 l 619 658 l 769 658 l 631 0 l 493 0 l 500 68 q 238 -14 379 -14 z "},"ŭ":{"ha":803,"x_min":40,"x_max":769,"o":"m 469 725 q 352 763 393 725 q 311 868 311 800 q 317 921 311 894 l 414 921 q 410 882 410 900 q 427 832 410 849 q 485 815 444 815 q 562 844 531 815 q 604 921 593 872 l 711 921 q 627 778 692 831 q 469 725 563 725 m 238 -14 q 92 33 144 -14 q 40 168 40 79 q 49 243 40 201 l 136 658 l 288 658 l 200 243 q 193 188 193 208 q 222 119 193 139 q 317 100 251 100 q 422 120 371 100 q 517 176 474 140 l 619 658 l 769 658 l 631 0 l 493 0 l 500 68 q 238 -14 379 -14 z "},"ǔ":{"ha":803,"x_min":40,"x_max":769,"o":"m 289 947 l 407 947 l 481 807 l 615 947 l 740 947 l 519 724 l 414 724 l 289 947 m 238 -14 q 92 33 144 -14 q 40 168 40 79 q 49 243 40 201 l 136 658 l 288 658 l 200 243 q 193 188 193 208 q 222 119 193 139 q 317 100 251 100 q 422 120 371 100 q 517 176 474 140 l 619 658 l 769 658 l 631 0 l 493 0 l 500 68 q 238 -14 379 -14 z "},"û":{"ha":803,"x_min":40,"x_max":769,"o":"m 460 947 l 565 947 l 692 724 l 575 724 l 499 864 l 367 724 l 240 724 l 460 947 m 238 -14 q 92 33 144 -14 q 40 168 40 79 q 49 243 40 201 l 136 658 l 288 658 l 200 243 q 193 188 193 208 q 222 119 193 139 q 317 100 251 100 q 422 120 371 100 q 517 176 474 140 l 619 658 l 769 658 l 631 0 l 493 0 l 500 68 q 238 -14 379 -14 z "},"ü":{"ha":803,"x_min":40,"x_max":769,"o":"m 304 875 l 431 875 l 404 756 l 278 756 l 304 875 m 561 875 l 689 875 l 663 756 l 535 756 l 561 875 m 238 -14 q 92 33 144 -14 q 40 168 40 79 q 49 243 40 201 l 136 658 l 288 658 l 200 243 q 193 188 193 208 q 222 119 193 139 q 317 100 251 100 q 422 120 371 100 q 517 176 474 140 l 619 658 l 769 658 l 631 0 l 493 0 l 500 68 q 238 -14 379 -14 z "},"ǘ":{"ha":803,"x_min":40,"x_max":769,"o":"m 556 1038 l 671 1038 l 540 861 l 433 861 l 556 1038 m 288 842 l 411 842 l 386 725 l 263 725 l 288 842 m 563 842 l 686 842 l 661 725 l 538 725 l 563 842 m 238 -14 q 92 33 144 -14 q 40 168 40 79 q 49 243 40 201 l 136 658 l 288 658 l 200 243 q 193 188 193 208 q 222 119 193 139 q 317 100 251 100 q 422 120 371 100 q 517 176 474 140 l 619 658 l 769 658 l 631 0 l 493 0 l 500 68 q 238 -14 379 -14 z "},"ǚ":{"ha":803,"x_min":40,"x_max":769,"o":"m 324 1024 l 438 1024 l 508 915 l 624 1024 l 743 1024 l 554 857 l 444 857 l 324 1024 m 292 840 l 417 840 l 392 724 l 267 724 l 292 840 m 568 840 l 690 840 l 665 724 l 543 724 l 568 840 m 238 -14 q 92 33 144 -14 q 40 168 40 79 q 49 243 40 201 l 136 658 l 288 658 l 200 243 q 193 188 193 208 q 222 119 193 139 q 317 100 251 100 q 422 120 371 100 q 517 176 474 140 l 619 658 l 769 658 l 631 0 l 493 0 l 500 68 q 238 -14 379 -14 z "},"ǜ":{"ha":803,"x_min":40,"x_max":769,"o":"m 394 1038 l 511 1038 l 557 861 l 450 861 l 394 1038 m 297 842 l 421 842 l 396 725 l 272 725 l 297 842 m 572 842 l 696 842 l 671 725 l 547 725 l 572 842 m 238 -14 q 92 33 144 -14 q 40 168 40 79 q 49 243 40 201 l 136 658 l 288 658 l 200 243 q 193 188 193 208 q 222 119 193 139 q 317 100 251 100 q 422 120 371 100 q 517 176 474 140 l 619 658 l 769 658 l 631 0 l 493 0 l 500 68 q 238 -14 379 -14 z "},"ǖ":{"ha":803,"x_min":40,"x_max":769,"o":"m 333 1039 l 746 1039 l 725 940 l 313 940 l 333 1039 m 311 867 l 438 867 l 411 747 l 285 747 l 311 867 m 568 867 l 696 867 l 669 747 l 542 747 l 568 867 m 238 -14 q 92 33 144 -14 q 40 168 40 79 q 49 243 40 201 l 136 658 l 288 658 l 200 243 q 193 188 193 208 q 222 119 193 139 q 317 100 251 100 q 422 120 371 100 q 517 176 474 140 l 619 658 l 769 658 l 631 0 l 493 0 l 500 68 q 238 -14 379 -14 z "},"ụ":{"ha":803,"x_min":40,"x_max":769,"o":"m 238 -14 q 92 33 144 -14 q 40 168 40 79 q 49 243 40 201 l 136 658 l 288 658 l 200 243 q 193 188 193 208 q 222 119 193 139 q 317 100 251 100 q 422 120 371 100 q 517 176 474 140 l 619 658 l 769 658 l 631 0 l 493 0 l 500 68 q 238 -14 379 -14 m 215 -118 l 346 -118 l 321 -240 l 190 -240 l 215 -118 z "},"ù":{"ha":803,"x_min":40,"x_max":769,"o":"m 360 971 l 492 971 l 544 725 l 422 725 l 360 971 m 238 -14 q 92 33 144 -14 q 40 168 40 79 q 49 243 40 201 l 136 658 l 288 658 l 200 243 q 193 188 193 208 q 222 119 193 139 q 317 100 251 100 q 422 120 371 100 q 517 176 474 140 l 619 658 l 769 658 l 631 0 l 493 0 l 500 68 q 238 -14 379 -14 z "},"ủ":{"ha":803,"x_min":40,"x_max":769,"o":"m 431 838 q 538 856 508 842 q 574 907 567 871 q 575 919 575 911 q 482 965 575 965 q 435 960 461 965 q 390 949 408 956 l 407 1031 q 540 1049 461 1049 q 653 1022 614 1049 q 692 949 692 996 q 688 919 692 935 q 642 830 676 861 q 538 789 607 799 l 524 724 l 406 724 l 431 838 m 238 -14 q 92 33 144 -14 q 40 168 40 79 q 49 243 40 201 l 136 658 l 288 658 l 200 243 q 193 188 193 208 q 222 119 193 139 q 317 100 251 100 q 422 120 371 100 q 517 176 474 140 l 619 658 l 769 658 l 631 0 l 493 0 l 500 68 q 238 -14 379 -14 z "},"ư":{"ha":975,"x_min":39,"x_max":1018,"o":"m 238 -14 q 90 31 140 -14 q 39 163 39 75 q 49 243 39 203 l 136 658 l 288 658 l 200 243 q 194 196 194 219 q 317 100 194 100 q 422 120 371 100 q 517 176 474 140 l 619 658 l 769 658 l 754 582 q 853 624 821 588 q 901 744 885 660 l 1018 744 q 919 545 989 608 q 732 478 850 482 l 631 0 l 493 0 l 500 68 q 238 -14 379 -14 z "},"ứ":{"ha":978,"x_min":39,"x_max":1018,"o":"m 571 971 l 704 971 l 535 725 l 414 725 l 571 971 m 238 -14 q 90 31 140 -14 q 39 163 39 75 q 49 243 39 203 l 136 658 l 288 658 l 200 243 q 194 196 194 219 q 317 100 194 100 q 422 120 371 100 q 517 176 474 140 l 619 658 l 769 658 l 754 582 q 853 624 821 588 q 901 744 885 660 l 1018 744 q 919 545 989 608 q 732 478 850 482 l 631 0 l 493 0 l 500 68 q 238 -14 379 -14 z "},"ự":{"ha":978,"x_min":39,"x_max":1018,"o":"m 238 -14 q 90 31 140 -14 q 39 163 39 75 q 49 243 39 203 l 136 658 l 288 658 l 200 243 q 194 196 194 219 q 317 100 194 100 q 422 120 371 100 q 517 176 474 140 l 619 658 l 769 658 l 754 582 q 853 624 821 588 q 901 744 885 660 l 1018 744 q 919 545 989 608 q 732 478 850 482 l 631 0 l 493 0 l 500 68 q 238 -14 379 -14 m 222 -118 l 353 -118 l 328 -240 l 197 -240 l 222 -118 z "},"ừ":{"ha":978,"x_min":39,"x_max":1018,"o":"m 361 971 l 493 971 l 546 725 l 424 725 l 361 971 m 238 -14 q 90 31 140 -14 q 39 163 39 75 q 49 243 39 203 l 136 658 l 288 658 l 200 243 q 194 196 194 219 q 317 100 194 100 q 422 120 371 100 q 517 176 474 140 l 619 658 l 769 658 l 754 582 q 853 624 821 588 q 901 744 885 660 l 1018 744 q 919 545 989 608 q 732 478 850 482 l 631 0 l 493 0 l 500 68 q 238 -14 379 -14 z "},"ử":{"ha":978,"x_min":39,"x_max":1018,"o":"m 439 838 q 546 856 517 842 q 582 907 575 871 q 583 919 583 911 q 490 965 583 965 q 443 960 469 965 q 399 949 417 956 l 415 1031 q 549 1049 469 1049 q 661 1022 622 1049 q 700 949 700 996 q 696 919 700 935 q 650 830 685 861 q 546 789 615 799 l 532 724 l 414 724 l 439 838 m 238 -14 q 90 31 140 -14 q 39 163 39 75 q 49 243 39 203 l 136 658 l 288 658 l 200 243 q 194 196 194 219 q 317 100 194 100 q 422 120 371 100 q 517 176 474 140 l 619 658 l 769 658 l 754 582 q 853 624 821 588 q 901 744 885 660 l 1018 744 q 919 545 989 608 q 732 478 850 482 l 631 0 l 493 0 l 500 68 q 238 -14 379 -14 z "},"ữ":{"ha":978,"x_min":39,"x_max":1018,"o":"m 593 743 q 544 750 567 743 q 485 772 521 757 q 434 791 453 785 q 394 797 415 797 q 263 747 318 797 l 286 858 q 343 888 308 876 q 413 900 378 900 q 463 893 440 900 q 518 872 486 886 q 568 853 547 860 q 614 846 589 846 q 736 897 688 846 l 713 786 q 662 755 694 767 q 593 743 629 743 m 238 -14 q 90 31 140 -14 q 39 163 39 75 q 49 243 39 203 l 136 658 l 288 658 l 200 243 q 194 196 194 219 q 317 100 194 100 q 422 120 371 100 q 517 176 474 140 l 619 658 l 769 658 l 754 582 q 853 624 821 588 q 901 744 885 660 l 1018 744 q 919 545 989 608 q 732 478 850 482 l 631 0 l 493 0 l 500 68 q 238 -14 379 -14 z "},"ű":{"ha":803,"x_min":40,"x_max":807,"o":"m 369 951 l 506 951 l 339 724 l 217 724 l 369 951 m 669 951 l 807 951 l 639 724 l 517 724 l 669 951 m 238 -14 q 92 33 144 -14 q 40 168 40 79 q 49 243 40 201 l 136 658 l 288 658 l 200 243 q 193 188 193 208 q 222 119 193 139 q 317 100 251 100 q 422 120 371 100 q 517 176 474 140 l 619 658 l 769 658 l 631 0 l 493 0 l 500 68 q 238 -14 379 -14 z "},"ū":{"ha":803,"x_min":40,"x_max":769,"o":"m 292 869 l 704 869 l 683 771 l 271 771 l 292 869 m 238 -14 q 92 33 144 -14 q 40 168 40 79 q 49 243 40 201 l 136 658 l 288 658 l 200 243 q 193 188 193 208 q 222 119 193 139 q 317 100 251 100 q 422 120 371 100 q 517 176 474 140 l 619 658 l 769 658 l 631 0 l 493 0 l 500 68 q 238 -14 379 -14 z "},"ų":{"ha":804,"x_min":40,"x_max":769,"o":"m 499 -306 q 408 -282 443 -306 q 374 -211 374 -258 q 376 -182 374 -192 q 422 -81 388 -132 q 493 0 456 -31 l 500 68 q 238 -14 379 -14 q 92 33 144 -14 q 40 168 40 79 q 49 243 40 201 l 136 658 l 288 658 l 200 243 q 193 188 193 208 q 222 119 193 139 q 317 100 251 100 q 422 120 371 100 q 517 176 474 140 l 619 658 l 769 658 l 631 0 q 503 -156 519 -74 l 500 -174 q 514 -203 500 -194 q 556 -211 528 -211 q 594 -207 574 -211 q 628 -196 614 -203 l 608 -287 q 499 -306 565 -306 z "},"ů":{"ha":803,"x_min":40,"x_max":769,"o":"m 460 724 q 364 758 399 724 q 329 847 329 793 q 332 881 329 869 q 399 994 347 950 q 526 1039 450 1039 q 625 1005 589 1039 q 661 917 661 971 q 635 821 661 865 q 564 750 610 776 q 460 724 518 724 m 476 799 q 551 829 521 799 q 581 903 581 860 q 563 947 581 931 q 511 963 546 963 q 439 931 469 963 q 408 858 408 900 q 425 815 408 831 q 476 799 442 799 m 238 -14 q 92 33 144 -14 q 40 168 40 79 q 49 243 40 201 l 136 658 l 288 658 l 200 243 q 193 188 193 208 q 222 119 193 139 q 317 100 251 100 q 422 120 371 100 q 517 176 474 140 l 619 658 l 769 658 l 631 0 l 493 0 l 500 68 q 238 -14 379 -14 z "},"ũ":{"ha":803,"x_min":40,"x_max":769,"o":"m 583 746 q 534 753 557 746 q 475 775 511 760 q 424 794 443 788 q 385 800 406 800 q 253 750 308 800 l 276 861 q 333 891 299 879 q 403 903 368 903 q 453 896 431 903 q 508 875 476 889 q 558 856 538 863 q 604 849 579 849 q 726 900 678 849 l 703 789 q 652 758 685 769 q 583 746 619 746 m 238 -14 q 92 33 144 -14 q 40 168 40 79 q 49 243 40 201 l 136 658 l 288 658 l 200 243 q 193 188 193 208 q 222 119 193 139 q 317 100 251 100 q 422 120 371 100 q 517 176 474 140 l 619 658 l 769 658 l 631 0 l 493 0 l 500 68 q 238 -14 379 -14 z "},"v":{"ha":803,"x_min":115,"x_max":797,"o":"m 115 658 l 267 658 l 343 147 l 636 658 l 797 658 l 400 0 l 236 0 l 115 658 z "},"w":{"ha":1036,"x_min":115,"x_max":1032,"o":"m 115 658 l 267 658 l 279 179 l 493 578 l 510 658 l 625 658 l 667 179 l 882 658 l 1032 658 l 721 0 l 583 0 l 533 431 l 300 0 l 150 0 l 115 658 z "},"ẃ":{"ha":1036,"x_min":115,"x_max":1032,"o":"m 678 971 l 811 971 l 642 725 l 521 725 l 678 971 m 115 658 l 267 658 l 279 179 l 493 578 l 510 658 l 625 658 l 667 179 l 882 658 l 1032 658 l 721 0 l 583 0 l 533 431 l 300 0 l 150 0 l 115 658 z "},"ŵ":{"ha":1036,"x_min":115,"x_max":1032,"o":"m 583 947 l 689 947 l 815 724 l 699 724 l 622 864 l 490 724 l 364 724 l 583 947 m 115 658 l 267 658 l 279 179 l 493 578 l 510 658 l 625 658 l 667 179 l 882 658 l 1032 658 l 721 0 l 583 0 l 533 431 l 300 0 l 150 0 l 115 658 z "},"ẅ":{"ha":1036,"x_min":115,"x_max":1032,"o":"m 431 875 l 557 875 l 531 756 l 404 756 l 431 875 m 688 875 l 815 875 l 789 756 l 661 756 l 688 875 m 115 658 l 267 658 l 279 179 l 493 578 l 510 658 l 625 658 l 667 179 l 882 658 l 1032 658 l 721 0 l 583 0 l 533 431 l 300 0 l 150 0 l 115 658 z "},"ẁ":{"ha":1036,"x_min":115,"x_max":1032,"o":"m 456 971 l 588 971 l 640 725 l 518 725 l 456 971 m 115 658 l 267 658 l 279 179 l 493 578 l 510 658 l 625 658 l 667 179 l 882 658 l 1032 658 l 721 0 l 583 0 l 533 431 l 300 0 l 150 0 l 115 658 z "},"x":{"ha":788,"x_min":-24,"x_max":772,"o":"m 299 335 l 125 658 l 288 658 l 403 439 l 610 658 l 772 658 l 464 335 l 643 0 l 479 0 l 358 229 l 140 0 l -24 0 l 299 335 z "},"y":{"ha":831,"x_min":36,"x_max":769,"o":"m 206 -244 q 115 -240 168 -244 q 36 -231 61 -236 l 63 -110 q 131 -123 89 -118 q 206 -128 172 -128 q 398 -92 322 -128 q 489 21 474 -56 l 499 68 q 238 -14 378 -14 q 93 35 146 -14 q 40 172 40 83 q 49 243 40 206 l 136 658 l 288 658 l 200 243 q 193 188 193 208 q 222 121 193 142 q 317 100 250 100 q 422 120 371 100 q 517 176 474 140 l 619 658 l 769 658 l 639 44 q 503 -165 613 -85 q 206 -244 394 -244 z "},"ý":{"ha":831,"x_min":36,"x_max":769,"o":"m 583 971 l 717 971 l 547 725 l 426 725 l 583 971 m 206 -244 q 115 -240 168 -244 q 36 -231 61 -236 l 63 -110 q 131 -123 89 -118 q 206 -128 172 -128 q 398 -92 322 -128 q 489 21 474 -56 l 499 68 q 238 -14 378 -14 q 93 35 146 -14 q 40 172 40 83 q 49 243 40 206 l 136 658 l 288 658 l 200 243 q 193 188 193 208 q 222 121 193 142 q 317 100 250 100 q 422 120 371 100 q 517 176 474 140 l 619 658 l 769 658 l 639 44 q 503 -165 613 -85 q 206 -244 394 -244 z "},"ŷ":{"ha":831,"x_min":36,"x_max":769,"o":"m 493 947 l 599 947 l 725 724 l 608 724 l 532 864 l 400 724 l 274 724 l 493 947 m 206 -244 q 115 -240 168 -244 q 36 -231 61 -236 l 63 -110 q 131 -123 89 -118 q 206 -128 172 -128 q 398 -92 322 -128 q 489 21 474 -56 l 499 68 q 238 -14 378 -14 q 93 35 146 -14 q 40 172 40 83 q 49 243 40 206 l 136 658 l 288 658 l 200 243 q 193 188 193 208 q 222 121 193 142 q 317 100 250 100 q 422 120 371 100 q 517 176 474 140 l 619 658 l 769 658 l 639 44 q 503 -165 613 -85 q 206 -244 394 -244 z "},"ÿ":{"ha":831,"x_min":36,"x_max":769,"o":"m 346 892 l 472 892 l 446 772 l 319 772 l 346 892 m 603 892 l 731 892 l 704 772 l 576 772 l 603 892 m 206 -244 q 115 -240 168 -244 q 36 -231 61 -236 l 63 -110 q 131 -123 89 -118 q 206 -128 172 -128 q 398 -92 322 -128 q 489 21 474 -56 l 499 68 q 238 -14 378 -14 q 93 35 146 -14 q 40 172 40 83 q 49 243 40 206 l 136 658 l 288 658 l 200 243 q 193 188 193 208 q 222 121 193 142 q 317 100 250 100 q 422 120 371 100 q 517 176 474 140 l 619 658 l 769 658 l 639 44 q 503 -165 613 -85 q 206 -244 394 -244 z "},"ẏ":{"ha":831,"x_min":36,"x_max":769,"o":"m 467 879 l 594 879 l 568 757 l 440 757 l 467 879 m 206 -244 q 115 -240 168 -244 q 36 -231 61 -236 l 63 -110 q 131 -123 89 -118 q 206 -128 172 -128 q 398 -92 322 -128 q 489 21 474 -56 l 499 68 q 238 -14 378 -14 q 93 35 146 -14 q 40 172 40 83 q 49 243 40 206 l 136 658 l 288 658 l 200 243 q 193 188 193 208 q 222 121 193 142 q 317 100 250 100 q 422 120 371 100 q 517 176 474 140 l 619 658 l 769 658 l 639 44 q 503 -165 613 -85 q 206 -244 394 -244 z "},"ỵ":{"ha":831,"x_min":36,"x_max":769,"o":"m 206 -244 q 115 -240 168 -244 q 36 -231 61 -236 l 63 -110 q 131 -123 89 -118 q 206 -128 172 -128 q 398 -92 322 -128 q 489 21 474 -56 l 499 68 q 238 -14 378 -14 q 93 35 146 -14 q 40 172 40 83 q 49 243 40 206 l 136 658 l 288 658 l 200 243 q 193 188 193 208 q 222 121 193 142 q 317 100 250 100 q 422 120 371 100 q 517 176 474 140 l 619 658 l 769 658 l 639 44 q 503 -165 613 -85 q 206 -244 394 -244 m 625 -101 l 756 -101 l 731 -224 l 600 -224 l 625 -101 z "},"ỳ":{"ha":831,"x_min":36,"x_max":769,"o":"m 382 971 l 514 971 l 567 725 l 444 725 l 382 971 m 206 -244 q 115 -240 168 -244 q 36 -231 61 -236 l 63 -110 q 131 -123 89 -118 q 206 -128 172 -128 q 398 -92 322 -128 q 489 21 474 -56 l 499 68 q 238 -14 378 -14 q 93 35 146 -14 q 40 172 40 83 q 49 243 40 206 l 136 658 l 288 658 l 200 243 q 193 188 193 208 q 222 121 193 142 q 317 100 250 100 q 422 120 371 100 q 517 176 474 140 l 619 658 l 769 658 l 639 44 q 503 -165 613 -85 q 206 -244 394 -244 z "},"ỷ":{"ha":831,"x_min":36,"x_max":769,"o":"m 465 838 q 572 856 543 842 q 608 907 601 871 q 610 919 610 911 q 517 965 610 965 q 469 960 496 965 q 425 949 443 956 l 442 1031 q 575 1049 496 1049 q 688 1022 649 1049 q 726 949 726 996 q 722 919 726 935 q 676 830 711 861 q 572 789 642 799 l 558 724 l 440 724 l 465 838 m 206 -244 q 115 -240 168 -244 q 36 -231 61 -236 l 63 -110 q 131 -123 89 -118 q 206 -128 172 -128 q 398 -92 322 -128 q 489 21 474 -56 l 499 68 q 238 -14 378 -14 q 93 35 146 -14 q 40 172 40 83 q 49 243 40 206 l 136 658 l 288 658 l 200 243 q 193 188 193 208 q 222 121 193 142 q 317 100 250 100 q 422 120 371 100 q 517 176 474 140 l 619 658 l 769 658 l 639 44 q 503 -165 613 -85 q 206 -244 394 -244 z "},"ỹ":{"ha":831,"x_min":36,"x_max":769,"o":"m 613 746 q 563 753 586 746 q 504 775 540 760 q 453 794 472 788 q 414 800 435 800 q 282 750 338 800 l 306 861 q 363 891 328 879 q 432 903 397 903 q 483 896 460 903 q 538 875 506 889 q 588 856 567 863 q 633 849 608 849 q 756 900 707 849 l 732 789 q 681 758 714 769 q 613 746 649 746 m 206 -244 q 115 -240 168 -244 q 36 -231 61 -236 l 63 -110 q 131 -123 89 -118 q 206 -128 172 -128 q 398 -92 322 -128 q 489 21 474 -56 l 499 68 q 238 -14 378 -14 q 93 35 146 -14 q 40 172 40 83 q 49 243 40 206 l 136 658 l 288 658 l 200 243 q 193 188 193 208 q 222 121 193 142 q 317 100 250 100 q 422 120 371 100 q 517 176 474 140 l 619 658 l 769 658 l 639 44 q 503 -165 613 -85 q 206 -244 394 -244 z "},"z":{"ha":676,"x_min":-24,"x_max":661,"o":"m -7 79 l 449 535 l 106 535 l 132 658 l 661 658 l 642 565 l 193 117 l 556 117 l 532 0 l -24 0 l -7 79 z "},"ź":{"ha":676,"x_min":-24,"x_max":661,"o":"m 504 971 l 638 971 l 468 725 l 347 725 l 504 971 m -7 79 l 449 535 l 106 535 l 132 658 l 661 658 l 642 565 l 193 117 l 556 117 l 532 0 l -24 0 l -7 79 z "},"ž":{"ha":676,"x_min":-24,"x_max":674,"o":"m 222 947 l 340 947 l 414 807 l 549 947 l 674 947 l 453 724 l 347 724 l 222 947 m -7 79 l 449 535 l 106 535 l 132 658 l 661 658 l 642 565 l 193 117 l 556 117 l 532 0 l -24 0 l -7 79 z "},"ż":{"ha":676,"x_min":-24,"x_max":661,"o":"m 381 879 l 508 879 l 482 757 l 354 757 l 381 879 m -7 79 l 449 535 l 106 535 l 132 658 l 661 658 l 642 565 l 193 117 l 556 117 l 532 0 l -24 0 l -7 79 z "},"ẓ":{"ha":676,"x_min":-24,"x_max":661,"o":"m -7 79 l 449 535 l 106 535 l 132 658 l 661 658 l 642 565 l 193 117 l 556 117 l 532 0 l -24 0 l -7 79 m 163 -118 l 293 -118 l 268 -240 l 138 -240 l 163 -118 z "},"ﬁ":{"ha":736,"x_min":44,"x_max":704,"o":"m 158 540 l 63 540 l 88 658 l 183 658 l 199 726 q 301 895 221 832 q 510 958 382 958 q 668 935 614 958 l 643 822 q 595 835 628 831 q 529 839 563 839 q 404 811 449 839 q 347 724 360 783 l 333 658 l 704 658 l 565 0 l 414 0 l 528 540 l 308 540 l 194 0 l 44 0 l 158 540 z "},"ﬂ":{"ha":736,"x_min":44,"x_max":764,"o":"m 158 540 l 63 540 l 88 658 l 183 658 l 199 729 q 294 895 221 832 q 483 958 368 958 q 639 938 578 958 l 764 938 l 565 0 l 414 0 l 528 540 l 308 540 l 194 0 l 44 0 l 158 540 m 553 658 l 589 829 q 506 842 556 842 q 396 814 432 842 q 347 725 360 786 l 333 658 l 553 658 z "},"ª":{"ha":476,"x_min":108,"x_max":499,"o":"m 219 528 q 140 549 171 528 q 108 611 108 569 q 111 638 108 618 q 165 728 124 699 q 286 758 207 758 l 400 758 l 401 771 q 406 797 406 786 q 387 826 406 818 q 318 835 368 835 q 196 815 258 835 l 211 886 q 354 908 278 908 q 460 883 421 908 q 499 804 499 857 q 494 769 499 789 l 446 536 l 363 536 l 364 572 q 299 538 332 549 q 219 528 265 528 m 261 593 q 375 642 328 593 l 386 696 l 289 696 q 227 684 247 696 q 201 642 207 672 q 200 626 200 636 q 214 601 200 608 q 261 593 228 593 z "},"º":{"ha":504,"x_min":121,"x_max":518,"o":"m 279 528 q 161 562 201 528 q 121 661 121 596 q 128 718 121 683 q 206 860 149 813 q 361 908 263 908 q 478 875 439 908 q 518 776 518 842 q 511 718 518 753 q 435 575 490 622 q 279 528 379 528 m 294 600 q 374 628 346 600 q 415 718 403 657 q 422 769 422 750 q 404 819 422 803 q 344 835 386 835 q 264 806 293 835 q 222 718 235 778 q 215 665 215 683 q 233 616 215 632 q 294 600 251 600 z "},"ⁿ":{"ha":497,"x_min":97,"x_max":521,"o":"m 174 900 l 263 900 l 257 863 q 411 907 331 907 q 492 882 463 907 q 521 811 521 857 q 517 775 521 794 l 467 536 l 374 536 l 419 757 q 425 793 425 785 q 411 824 425 815 q 363 833 397 833 q 301 822 335 833 q 246 792 268 810 l 192 536 l 97 536 l 174 900 z "},"Δ":{"ha":901,"x_min":-24,"x_max":774,"o":"m -7 83 l 485 894 l 624 894 l 774 82 l 757 0 l -24 0 l -7 83 m 638 117 l 526 733 l 151 117 l 638 117 z "},"Ω":{"ha":1061,"x_min":-14,"x_max":1036,"o":"m 10 114 l 210 114 q 107 232 143 161 q 71 394 71 303 q 83 506 71 447 q 274 840 128 715 q 651 965 421 965 q 936 872 836 965 q 1036 622 1036 779 q 1024 506 1036 567 q 919 274 994 374 q 732 114 843 175 l 931 114 l 907 0 l 525 0 l 549 117 q 869 500 815 246 q 882 611 882 561 q 624 836 882 836 q 370 745 472 836 q 235 500 268 654 q 224 403 224 447 q 392 117 224 221 l 368 0 l -14 0 l 10 114 z "},"μ":{"ha":810,"x_min":-39,"x_max":776,"o":"m 143 658 l 294 658 l 207 243 q 200 189 200 211 q 229 122 200 143 q 324 100 258 100 q 429 120 378 100 q 524 176 481 140 l 626 658 l 776 658 l 638 0 l 500 0 l 507 68 q 244 -14 386 -14 q 157 7 189 -14 l 113 -199 l -39 -199 l 143 658 z "},"π":{"ha":933,"x_min":56,"x_max":849,"o":"m 669 -14 q 546 27 590 -14 q 501 142 501 68 q 508 199 501 164 l 581 542 l 319 542 l 206 0 l 56 0 l 169 542 l 76 542 l 101 658 l 849 658 l 824 542 l 732 542 l 661 204 q 654 158 654 174 q 675 116 654 128 q 747 104 696 104 q 832 118 785 104 l 808 8 q 669 -14 746 -14 z "},"ก":{"ha":851,"x_min":17,"x_max":788,"o":"m 74 271 q 219 443 103 410 l 78 481 l 111 636 q 285 728 185 692 q 497 764 385 764 q 713 710 638 764 q 788 547 788 656 q 778 465 788 506 l 679 0 l 528 0 l 626 469 q 635 538 635 510 q 597 618 635 594 q 467 642 558 642 q 334 622 399 642 q 228 571 269 603 l 222 546 l 372 506 l 351 406 q 265 361 294 392 q 224 269 236 331 l 167 0 l 17 0 l 74 271 z "},"ถ":{"ha":851,"x_min":42,"x_max":788,"o":"m 151 0 q 70 28 99 0 q 42 103 42 56 q 46 140 42 122 l 74 271 q 219 443 103 410 l 78 481 l 111 636 q 285 728 185 692 q 497 764 385 764 q 788 551 788 764 q 778 465 788 510 l 679 0 l 528 0 l 626 469 q 635 539 635 510 q 597 618 635 594 q 467 642 558 642 q 334 622 399 642 q 228 571 269 603 l 222 546 l 372 506 l 351 406 q 265 361 294 392 q 224 269 236 331 l 204 179 q 200 150 200 163 q 210 126 200 133 q 247 119 221 119 l 326 119 l 301 0 l 151 0 z "},"ภ":{"ha":899,"x_min":-17,"x_max":835,"o":"m 8 119 l 60 119 q 103 133 89 119 q 125 178 118 146 l 144 271 q 188 380 158 338 q 279 443 218 422 l 135 481 l 168 636 q 340 728 240 692 q 553 764 440 764 q 762 711 689 764 q 835 550 835 658 q 825 465 835 508 l 726 0 l 576 0 l 675 469 q 685 540 685 518 q 648 619 685 596 q 524 642 611 642 q 390 622 454 642 q 285 571 325 603 l 279 546 l 433 506 l 413 406 q 333 362 357 390 q 297 269 310 333 l 275 169 q 76 0 239 0 l -17 0 l 8 119 z "},"ฤ":{"ha":851,"x_min":42,"x_max":788,"o":"m 626 469 q 635 538 635 510 q 597 618 635 594 q 467 642 558 642 q 334 622 399 642 q 228 571 269 603 l 222 546 l 372 506 l 351 406 q 265 361 294 392 q 224 269 236 331 l 204 179 q 200 150 200 163 q 210 126 200 133 q 246 119 219 119 l 326 119 l 301 0 l 151 0 q 70 28 99 0 q 42 103 42 56 q 46 140 42 122 l 74 271 q 219 443 103 410 l 78 481 l 111 636 q 285 728 185 692 q 497 764 385 764 q 713 711 638 764 q 788 550 788 658 q 778 465 788 508 l 631 -222 l 479 -222 l 626 469 z "},"ฦ":{"ha":899,"x_min":-17,"x_max":835,"o":"m 675 469 q 685 540 685 518 q 648 619 685 596 q 524 642 611 642 q 390 622 454 642 q 285 571 325 603 l 279 546 l 433 506 l 413 406 q 333 362 357 390 q 297 269 310 333 l 275 169 q 76 0 239 0 l -17 0 l 8 119 l 60 119 q 103 133 89 119 q 125 178 118 146 l 144 271 q 188 380 158 338 q 279 443 218 422 l 135 481 l 168 636 q 340 728 240 692 q 553 764 440 764 q 762 710 689 764 q 835 549 835 656 q 825 465 835 506 l 678 -222 l 528 -222 l 675 469 z "},"ฎ":{"ha":899,"x_min":-17,"x_max":835,"o":"m 117 -153 q 364 -103 235 -103 q 546 -143 481 -103 l 675 469 q 683 538 683 510 q 647 618 683 594 q 524 642 611 642 q 390 622 454 642 q 285 571 325 603 l 279 546 l 433 506 l 413 406 q 333 362 357 390 q 297 269 310 333 l 275 169 q 209 40 256 81 q 76 0 163 0 l -17 0 l 8 119 l 60 119 q 103 133 89 119 q 125 178 118 146 l 144 271 q 188 380 158 338 q 279 443 218 422 l 135 481 l 168 636 q 340 728 240 692 q 553 764 440 764 q 763 710 690 764 q 835 549 835 656 q 825 465 835 508 l 668 -269 l 518 -269 q 322 -224 443 -224 q 204 -237 265 -224 q 92 -274 143 -250 l 117 -153 z "},"ฏ":{"ha":899,"x_min":-17,"x_max":835,"o":"m 464 -271 q 376 -253 415 -271 q 322 -207 338 -236 q 182 -269 274 -269 l 47 -269 l 82 -149 l 181 -149 q 247 -135 221 -149 q 294 -89 272 -122 l 393 -89 q 415 -137 399 -121 q 467 -154 432 -154 q 529 -133 507 -154 q 561 -69 551 -112 l 675 469 q 685 540 685 518 q 648 619 685 596 q 524 642 611 642 q 390 622 454 642 q 285 571 325 603 l 279 546 l 433 506 l 413 406 q 333 362 357 390 q 297 269 310 333 l 275 169 q 76 0 239 0 l -17 0 l 8 119 l 60 119 q 103 133 89 119 q 125 178 118 146 l 144 271 q 188 380 158 338 q 279 443 218 422 l 135 481 l 168 636 q 340 728 240 692 q 553 764 440 764 q 761 709 688 764 q 835 547 835 654 q 825 465 835 506 l 710 -78 q 628 -221 689 -171 q 464 -271 567 -271 z "},"ญ":{"ha":1347,"x_min":42,"x_max":1332,"o":"m 829 -85 q 690 -69 760 -85 q 563 -25 619 -54 l 588 96 q 708 51 639 65 q 851 36 776 36 q 1004 58 947 36 q 1068 117 1061 79 q 1069 131 1069 121 q 1058 163 1069 147 q 867 118 974 118 q 664 174 736 118 q 592 339 592 231 q 601 424 592 381 l 611 469 q 621 540 621 518 q 585 619 621 596 q 463 642 549 642 q 332 622 394 642 q 228 571 269 603 l 222 546 l 372 506 l 351 406 q 265 361 294 392 q 224 269 236 331 l 204 179 q 200 150 200 163 q 210 126 200 133 q 246 119 221 119 l 326 119 l 301 0 l 151 0 q 70 28 99 0 q 42 103 42 56 q 46 140 42 122 l 74 271 q 219 443 103 410 l 78 481 l 111 636 q 283 728 185 692 q 493 764 382 764 q 769 556 769 764 q 758 465 769 518 l 747 418 q 739 349 739 379 q 774 265 739 290 q 892 239 810 239 q 1039 282 986 239 q 1111 418 1092 325 l 1182 750 l 1332 750 l 1263 424 q 1172 238 1239 308 q 1201 147 1201 201 q 1197 108 1201 129 q 1087 -36 1176 13 q 829 -85 997 -85 z "},"ข":{"ha":807,"x_min":38,"x_max":793,"o":"m 308 -14 q 108 42 179 -14 q 38 197 38 97 q 46 267 38 229 l 63 340 q 102 428 74 389 q 176 514 131 467 q 221 563 206 543 q 240 600 236 582 q 243 615 243 611 q 234 632 243 628 q 204 636 225 636 l 108 636 l 144 750 l 319 750 q 408 681 408 750 q 404 649 408 665 q 370 569 394 604 q 304 486 346 533 q 242 410 264 442 q 211 339 219 378 l 193 254 q 186 201 186 222 q 221 129 186 151 q 335 107 256 107 q 538 258 506 107 l 642 750 l 793 750 l 692 268 q 308 -14 631 -14 z "},"ฃ":{"ha":807,"x_min":38,"x_max":793,"o":"m 308 -14 q 110 43 183 -14 q 38 200 38 100 q 46 267 38 232 l 56 308 q 101 399 65 354 q 196 503 136 444 q 256 568 238 546 q 279 608 275 590 l 281 618 q 257 639 281 639 q 207 618 232 639 l 196 563 l 93 563 l 132 750 l 238 750 l 229 711 q 283 740 257 729 q 343 750 308 750 q 431 676 431 750 q 426 643 431 663 q 388 556 417 596 q 306 461 358 517 q 235 380 260 413 q 204 313 211 347 l 193 254 q 188 199 188 226 q 221 127 188 147 q 335 107 254 107 q 538 258 506 107 l 642 750 l 793 750 l 692 268 q 308 -14 631 -14 z "},"ช":{"ha":808,"x_min":39,"x_max":797,"o":"m 308 -14 q 110 43 181 -14 q 39 199 39 100 q 47 267 39 232 l 64 340 q 100 420 74 385 q 175 510 126 456 q 222 563 207 543 q 242 600 238 582 q 244 615 244 611 q 235 632 244 628 q 206 636 226 636 l 110 636 l 146 750 l 321 750 q 408 679 408 750 q 406 649 408 660 q 372 570 396 606 q 304 483 349 535 q 242 406 264 438 q 213 339 219 374 l 194 254 q 189 207 189 231 q 224 131 189 154 q 335 107 260 107 q 539 258 507 107 l 558 350 q 565 403 565 385 q 547 452 565 438 q 485 467 528 467 l 446 467 l 476 576 l 504 576 q 590 603 561 576 q 632 693 618 631 l 646 764 l 797 764 l 782 688 q 738 577 768 618 q 644 514 707 536 q 699 469 682 496 q 715 403 715 442 q 707 338 715 374 l 693 268 q 568 58 667 129 q 308 -14 469 -14 z "},"ซ":{"ha":808,"x_min":40,"x_max":797,"o":"m 308 -14 q 112 44 183 -14 q 40 203 40 103 q 47 267 40 229 l 57 313 q 102 405 67 361 q 199 508 138 449 q 258 569 239 547 q 281 608 276 590 l 282 618 q 258 639 282 639 q 208 618 233 639 l 197 563 l 94 563 l 133 750 l 239 750 l 231 711 q 284 740 258 729 q 344 750 310 750 q 432 676 432 750 q 402 578 432 624 q 314 472 372 533 q 240 385 265 419 q 207 313 215 351 l 194 254 q 189 207 189 231 q 224 131 189 154 q 335 107 260 107 q 539 258 507 107 l 558 350 q 565 403 565 385 q 547 452 565 438 q 485 467 528 467 l 446 467 l 476 576 l 504 576 q 590 603 561 576 q 632 693 618 631 l 646 764 l 797 764 l 782 688 q 738 577 768 618 q 644 514 707 536 q 699 469 682 496 q 715 403 715 442 q 707 338 715 374 l 693 268 q 568 58 667 129 q 308 -14 469 -14 z "},"ค":{"ha":854,"x_min":4,"x_max":789,"o":"m 104 475 q 228 691 135 618 q 506 764 322 764 q 718 705 647 764 q 789 544 789 646 q 782 475 789 504 l 682 0 l 531 0 l 633 489 q 640 542 640 521 q 603 618 640 594 q 481 642 565 642 q 330 605 385 642 q 258 489 275 568 l 226 335 q 382 385 299 385 l 472 385 l 453 264 l 353 264 q 201 217 269 264 l 156 0 l 4 0 l 104 475 z "},"ฅ":{"ha":854,"x_min":4,"x_max":808,"o":"m 119 549 q 198 710 143 656 q 349 764 253 764 q 486 692 447 764 q 571 746 521 728 q 668 764 621 764 q 774 731 740 764 q 808 633 808 699 q 797 547 808 599 l 682 0 l 532 0 l 649 550 q 654 592 654 583 q 642 624 654 614 q 603 635 631 635 q 501 578 549 635 l 429 578 q 363 635 414 635 q 300 614 319 635 q 271 550 281 593 l 225 335 q 381 385 297 385 l 472 385 l 453 264 l 353 264 q 200 217 269 264 l 154 0 l 4 0 l 119 549 z "},"ศ":{"ha":883,"x_min":4,"x_max":910,"o":"m 104 475 q 228 691 135 618 q 506 764 322 764 q 624 750 568 764 l 910 750 l 878 632 l 769 632 q 789 538 789 593 q 782 475 789 510 l 682 0 l 531 0 l 633 489 q 640 546 640 526 q 604 619 640 597 q 481 642 568 642 q 330 605 385 642 q 258 489 275 568 l 226 335 q 382 385 299 385 l 472 385 l 453 264 l 353 264 q 201 217 269 264 l 156 0 l 4 0 l 104 475 z "},"ด":{"ha":893,"x_min":39,"x_max":825,"o":"m 279 -14 q 104 49 169 -14 q 39 239 39 113 q 53 364 39 299 q 210 660 93 557 q 521 764 326 764 q 750 695 675 764 q 825 524 825 626 q 818 458 825 496 l 721 0 l 569 0 l 665 451 q 674 515 674 488 q 631 610 674 579 q 493 642 589 642 q 300 572 372 642 q 199 364 228 503 q 183 246 183 292 q 219 140 183 172 q 332 107 256 107 q 431 118 396 107 l 406 3 q 279 -14 354 -14 z "},"ต":{"ha":897,"x_min":39,"x_max":851,"o":"m 279 -14 q 104 49 169 -14 q 39 239 39 113 q 53 364 39 299 q 177 663 96 561 q 385 764 258 764 q 468 746 439 764 q 517 692 497 728 q 707 764 599 764 q 815 726 778 764 q 851 622 851 688 q 844 563 851 597 l 725 0 l 574 0 l 688 540 q 694 590 694 572 q 681 630 694 618 q 636 642 667 642 q 581 626 607 642 q 536 578 554 610 l 453 578 q 428 627 443 613 q 381 642 413 642 q 270 571 313 642 q 199 364 228 500 q 185 247 185 299 q 221 140 185 172 q 332 107 257 107 q 431 118 396 107 l 406 3 q 279 -14 354 -14 z "},"ท":{"ha":840,"x_min":4,"x_max":781,"o":"m 163 750 l 300 750 l 292 668 q 578 764 424 764 q 727 712 674 764 q 781 568 781 660 q 772 494 781 535 l 668 0 l 518 0 l 621 488 q 628 547 628 525 q 598 619 628 597 q 503 642 568 642 q 380 617 440 642 q 272 551 319 592 l 156 0 l 4 0 l 163 750 z "},"ฑ":{"ha":835,"x_min":29,"x_max":779,"o":"m 92 296 q 129 389 101 346 q 208 497 157 432 q 259 562 242 536 q 281 608 276 588 q 282 618 282 613 q 258 639 282 639 q 208 618 233 639 l 197 563 l 94 563 l 133 750 l 239 750 l 231 711 q 283 740 258 731 q 342 750 308 750 q 415 708 396 750 q 502 749 454 733 q 599 764 550 764 q 779 596 779 764 q 769 506 779 553 l 663 0 l 513 0 l 619 504 q 628 571 628 544 q 606 626 628 610 q 533 642 585 642 q 470 630 506 642 q 411 600 435 618 q 385 532 404 563 q 332 456 367 501 q 273 372 294 408 q 242 290 251 336 l 181 0 l 29 0 l 92 296 z "},"น":{"ha":840,"x_min":49,"x_max":826,"o":"m 256 -14 q 103 37 158 -14 q 49 179 49 88 q 58 258 49 210 l 163 750 l 314 750 l 211 265 q 204 203 204 236 q 235 128 204 150 q 332 107 265 107 q 452 132 392 107 q 560 197 513 157 l 676 750 l 826 750 l 668 0 l 531 0 l 540 82 q 256 -14 408 -14 z "},"ม":{"ha":840,"x_min":4,"x_max":826,"o":"m 408 -14 q 269 10 326 -14 q 167 82 211 35 l 142 0 l 4 0 l 163 750 l 314 750 l 197 197 q 276 132 226 157 q 385 107 325 107 q 513 143 471 107 q 574 265 556 179 l 676 750 l 826 750 l 722 258 q 614 56 694 126 q 408 -14 533 -14 z "},"ฌ":{"ha":1329,"x_min":42,"x_max":1315,"o":"m 904 -14 q 770 10 825 -14 q 671 82 715 35 l 646 0 l 513 0 l 611 469 q 619 539 619 510 q 583 618 619 594 q 463 642 547 642 q 332 622 394 642 q 228 571 269 603 l 222 546 l 372 506 l 351 406 q 265 361 294 392 q 224 269 236 331 l 204 179 q 200 151 200 163 q 211 127 200 135 q 247 119 222 119 l 326 119 l 301 0 l 151 0 q 72 28 101 0 q 42 106 42 57 q 46 140 42 122 l 74 271 q 219 443 103 410 l 78 481 l 111 636 q 283 728 185 692 q 493 764 382 764 q 768 553 768 764 q 758 465 768 510 l 701 197 q 778 131 732 156 q 881 107 824 107 q 1004 143 964 107 q 1063 265 1044 179 l 1165 750 l 1315 750 l 1211 258 q 1105 56 1182 126 q 904 -14 1028 -14 z "},"ณ":{"ha":1333,"x_min":42,"x_max":1319,"o":"m 757 -14 q 611 38 664 -14 q 558 181 558 89 q 567 258 558 217 l 611 469 q 619 540 619 511 q 584 619 619 597 q 463 642 549 642 q 332 622 394 642 q 228 571 269 603 l 222 546 l 372 506 l 351 406 q 265 361 294 392 q 224 269 236 331 l 204 179 q 200 151 200 163 q 211 127 200 135 q 247 119 222 119 l 326 119 l 301 0 l 151 0 q 70 28 99 0 q 42 103 42 56 q 46 140 42 122 l 74 271 q 219 443 103 410 l 78 481 l 111 636 q 283 728 185 692 q 493 764 382 764 q 697 712 626 764 q 768 553 768 660 q 758 465 768 510 l 715 265 q 707 201 707 228 q 738 128 707 150 q 833 107 768 107 q 947 131 890 107 q 1051 197 1004 156 l 1168 750 l 1319 750 l 1161 0 l 1024 0 l 1032 82 q 904 10 971 35 q 757 -14 838 -14 z "},"ฒ":{"ha":1374,"x_min":39,"x_max":1360,"o":"m 279 -14 q 104 49 169 -14 q 39 238 39 111 q 53 364 39 296 q 176 662 94 560 q 375 764 257 764 q 456 746 428 764 q 504 692 485 728 q 692 764 586 764 q 831 635 831 764 q 822 563 831 603 l 744 197 q 925 107 810 107 q 1047 143 1007 107 q 1106 265 1088 179 l 1208 750 l 1360 750 l 1256 258 q 1149 56 1226 126 q 949 -14 1072 -14 q 814 10 869 -14 q 714 82 758 35 l 690 0 l 557 0 l 671 540 q 678 593 678 575 q 665 631 678 619 q 624 642 653 642 q 525 578 561 642 l 442 578 q 417 627 432 613 q 371 642 403 642 q 267 572 307 642 q 199 364 228 501 q 185 247 185 299 q 221 140 185 172 q 332 107 257 107 q 431 118 396 107 l 406 3 q 279 -14 354 -14 z "},"ฆ":{"ha":835,"x_min":-1,"x_max":821,"o":"m 403 -14 q 263 10 321 -14 q 161 82 206 35 l 136 0 l -1 0 l 60 290 q 109 392 71 342 q 207 504 147 442 q 265 567 246 544 q 288 608 283 590 l 289 618 q 265 639 289 639 q 215 618 240 639 l 204 563 l 101 563 l 140 750 l 246 750 l 238 711 q 291 740 265 729 q 351 750 317 750 q 439 676 439 750 q 410 580 439 625 q 324 468 382 535 q 249 374 275 413 q 213 294 222 336 l 192 197 q 270 132 221 157 q 379 107 319 107 q 508 143 465 107 q 568 265 550 179 l 671 750 l 821 750 l 717 258 q 606 58 689 129 q 403 -14 524 -14 z "},"ธ":{"ha":731,"x_min":-1,"x_max":715,"o":"m 289 -14 q 126 1 203 -14 q -1 42 50 17 l 58 324 l 197 324 l 157 132 q 225 114 185 121 q 306 107 265 107 q 440 133 393 107 q 501 224 488 158 q 506 254 506 240 q 483 310 506 289 q 422 342 461 331 q 301 372 383 354 q 147 429 201 396 q 92 531 92 463 q 96 567 92 549 q 210 714 117 664 q 460 764 304 764 q 605 753 533 764 q 715 728 676 743 l 689 603 q 582 631 646 621 q 456 642 518 642 q 297 625 356 642 q 239 557 239 608 q 270 512 239 526 q 375 479 301 497 q 453 460 425 468 q 602 392 553 432 q 651 278 651 353 q 646 224 651 250 q 536 44 622 103 q 289 -14 450 -14 z "},"ร":{"ha":700,"x_min":-1,"x_max":661,"o":"m 246 -14 q 105 -4 171 -14 q -1 24 39 6 l 25 150 q 131 118 72 129 q 244 107 190 107 q 392 125 346 107 q 451 197 439 143 q 454 219 454 214 q 427 272 454 254 q 329 314 400 289 q 274 333 321 317 q 135 406 182 367 q 89 510 89 446 q 93 550 89 529 q 439 764 138 764 q 561 754 500 764 q 661 731 622 744 l 635 606 q 540 632 594 622 q 436 642 486 642 q 299 623 349 642 q 239 554 250 604 q 238 539 238 549 q 271 485 238 504 q 390 436 304 465 l 421 425 q 558 351 513 392 q 603 246 603 310 q 597 197 603 219 q 488 37 574 88 q 246 -14 403 -14 z "},"จ":{"ha":790,"x_min":39,"x_max":742,"o":"m 299 -14 q 236 -9 269 -14 q 183 4 203 -4 l 135 300 l 39 300 l 71 414 l 256 414 l 306 106 q 476 168 403 101 q 582 382 550 235 q 597 496 597 451 q 545 609 597 576 q 367 642 493 642 q 121 606 239 642 l 146 722 q 432 764 286 764 q 665 697 588 764 q 742 503 742 631 q 728 382 742 443 q 638 166 700 256 q 488 31 575 76 q 299 -14 400 -14 z "},"ว":{"ha":690,"x_min":-29,"x_max":647,"o":"m 186 -14 q -29 28 58 -14 l -4 147 q 176 107 81 107 q 333 133 272 107 q 430 218 393 160 q 488 375 467 276 q 501 488 501 436 q 453 606 501 571 q 289 642 404 642 q 93 601 192 642 l 118 722 q 347 764 225 764 q 570 695 493 764 q 647 494 647 626 q 633 375 647 436 q 551 156 604 240 q 410 28 499 71 q 186 -14 322 -14 z "},"ง":{"ha":783,"x_min":58,"x_max":739,"o":"m 294 -14 q 160 4 207 -14 l 58 518 l 206 518 l 288 101 q 474 172 401 99 q 579 399 546 246 q 596 522 596 474 q 563 611 596 586 q 447 636 529 636 l 394 636 l 418 750 l 490 750 q 739 522 739 750 q 725 400 739 464 q 294 -14 638 -14 z "},"ฐ":{"ha":839,"x_min":-64,"x_max":865,"o":"m 292 -14 q 229 -9 263 -14 q 176 4 196 -4 l 128 300 l 32 300 l 64 414 l 249 414 l 299 106 q 469 168 396 101 q 575 382 543 235 q 590 496 590 451 q 538 609 590 576 q 360 642 486 642 q 114 606 232 642 l 139 722 q 425 764 279 764 q 550 750 490 764 l 865 750 l 833 632 l 699 632 q 733 489 733 575 q 721 382 733 439 q 631 166 693 256 q 481 31 568 76 q 292 -14 393 -14 m 353 -271 q 267 -253 304 -271 q 214 -207 231 -236 q 74 -269 165 -269 l -64 -269 l -29 -149 l 69 -149 q 135 -135 110 -149 q 183 -89 161 -122 l 282 -89 q 304 -137 288 -121 q 356 -154 321 -154 q 418 -133 396 -154 q 450 -69 440 -112 l 453 -57 l 603 -57 l 599 -78 q 516 -221 579 -171 q 353 -271 453 -271 z "},"ฉ":{"ha":810,"x_min":28,"x_max":743,"o":"m 222 -14 q 78 31 129 -14 q 28 165 28 76 q 38 246 28 194 l 74 417 l 224 417 l 190 260 q 182 196 182 222 q 211 127 182 147 q 307 107 240 107 q 528 199 425 107 l 583 458 q 592 529 592 500 q 546 617 592 593 q 383 642 500 642 q 244 630 325 642 q 103 600 164 618 l 128 717 q 281 751 194 738 q 447 764 367 764 q 743 546 743 764 q 733 457 743 501 l 638 0 l 500 0 l 508 82 q 222 -14 379 -14 z "},"ล":{"ha":817,"x_min":10,"x_max":756,"o":"m 224 -14 q 70 31 131 -14 q 10 160 10 75 q 17 215 10 183 q 123 388 42 329 q 358 447 204 447 l 588 447 l 597 494 q 604 550 604 529 q 567 621 604 600 q 436 642 529 642 q 183 606 304 642 l 208 722 q 343 752 269 740 q 486 764 417 764 q 756 563 756 764 q 746 481 756 521 l 644 0 l 493 0 l 563 331 l 343 331 q 217 304 258 331 q 161 215 175 278 q 156 175 156 185 q 185 122 156 138 q 290 107 215 107 q 389 118 347 107 l 364 3 q 224 -14 300 -14 z "},"ส":{"ha":839,"x_min":10,"x_max":865,"o":"m 224 -14 q 70 31 131 -14 q 10 160 10 75 q 17 215 10 183 q 123 388 42 329 q 358 447 204 447 l 588 447 l 597 494 q 604 550 604 529 q 567 621 604 600 q 436 642 529 642 q 183 606 304 642 l 208 722 q 343 752 269 740 q 486 764 417 764 q 610 750 551 764 l 865 750 l 832 632 l 735 632 q 753 543 753 592 q 746 481 753 518 l 644 0 l 493 0 l 563 331 l 343 331 q 217 304 258 331 q 161 215 175 278 q 156 175 156 185 q 185 122 156 138 q 290 107 215 107 q 389 118 347 107 l 364 3 q 224 -14 300 -14 z "},"บ":{"ha":863,"x_min":57,"x_max":849,"o":"m 343 -14 q 132 45 207 -14 q 57 215 57 104 q 65 292 57 250 l 163 750 l 314 750 l 215 286 q 207 219 207 249 q 246 133 207 158 q 369 107 285 107 q 526 149 471 107 q 600 286 581 192 l 699 750 l 849 750 l 751 292 q 618 60 718 133 q 343 -14 518 -14 z "}}}
